<svg width="125" height="125" viewBox="0 0 125 125" fill="none" xmlns="http://www.w3.org/2000/svg">
<path d="M63.7028 35.9164C58.7654 35.9164 51.1248 30.3019 43.078 30.4998C32.4531 30.6404 22.7135 36.6612 17.2396 46.1976C6.21365 65.3381 14.3959 93.6087 25.151 109.166C30.427 116.739 36.6509 125.26 44.9009 124.994C52.8175 124.655 55.7862 119.853 65.3955 119.853C74.9319 119.853 77.635 124.994 86.0204 124.791C94.5464 124.655 99.9578 117.083 105.166 109.437C111.187 100.645 113.687 92.1192 113.822 91.6504C113.619 91.5827 97.2495 85.2911 97.0516 66.3537C96.9162 50.5205 109.968 42.9476 110.578 42.6091C103.135 31.7237 91.7079 30.505 87.7131 30.2342C77.2965 29.4217 68.5726 35.9164 63.7028 35.9164ZM81.2965 19.9478C85.6871 14.677 88.5881 7.30724 87.7808 0C81.4944 0.270831 73.9163 4.19268 69.3851 9.46869C65.3226 14.1353 61.8122 21.6457 62.7549 28.8123C69.7236 29.354 76.8955 25.229 81.2913 19.953" fill="currentColor"/>
</svg>
