<svg width="125" height="125" viewBox="0 0 125 125" fill="none" xmlns="http://www.w3.org/2000/svg">
<path d="M35.2248 52.2366C35.2248 53.7834 35.3914 55.0324 35.6831 55.9469C36.0164 56.8666 36.4331 57.87 37.0164 58.9569C37.2248 59.2862 37.3081 59.6206 37.3081 59.9132C37.3081 60.3313 37.0581 60.7494 36.5164 61.1674L33.8966 62.9181C33.58 63.1471 33.2033 63.278 32.8133 63.2943C32.3966 63.2943 31.98 63.0853 31.5685 62.709C31.009 62.1052 30.5084 61.449 30.0737 60.7494C29.6081 59.9479 29.1772 59.1267 28.782 58.288C25.5424 62.1237 21.4643 64.0416 16.558 64.0416C13.0684 64.0416 10.2819 63.0435 8.24546 61.042C6.20899 59.0353 5.17253 56.3702 5.17253 53.0309C5.17253 49.4879 6.41733 46.6033 8.9538 44.4398C11.4903 42.2711 14.8549 41.1842 19.1361 41.1842C20.5528 41.1842 22.006 41.3096 23.5424 41.5186C25.0841 41.7276 26.6674 42.0621 28.3237 42.4383V39.3917C28.3237 36.2197 27.6622 34.0092 26.3706 32.7184C25.0424 31.4225 22.7976 30.8006 19.5997 30.8006C18.1413 30.8006 16.6413 30.9626 15.1049 31.3388C13.5684 31.7151 12.0684 32.175 10.6153 32.7602C10.1415 32.9731 9.65432 33.1546 9.15692 33.3037C8.94271 33.373 8.72028 33.4134 8.49546 33.4239C7.91213 33.4239 7.62046 33.0059 7.62046 32.1332V30.0899C7.62046 29.421 7.70379 28.9193 7.91213 28.6267C8.22674 28.2473 8.62658 27.9482 9.0788 27.754C10.5319 27.0015 12.2767 26.3744 14.3132 25.8727C16.4331 25.3282 18.6146 25.0629 20.8028 25.0836C25.7508 25.0836 29.3654 26.2124 31.6935 28.4647C33.98 30.7117 35.1414 34.1346 35.1414 38.7228V52.2366H35.2248ZM18.3497 58.5807C19.7195 58.5807 21.1309 58.3298 22.631 57.8282C24.1258 57.3265 25.4591 56.412 26.5789 55.163C27.2456 54.3687 27.7456 53.4908 27.9956 52.4875C28.2404 51.4893 28.4122 50.277 28.4122 48.8608V47.1102C27.1505 46.8015 25.8724 46.5643 24.5841 46.3995C23.2885 46.2343 21.9838 46.1505 20.6778 46.1486C17.8913 46.1486 15.8549 46.6921 14.4799 47.8209C13.1101 48.9444 12.4486 50.5278 12.4486 52.6129C12.4486 54.5725 12.9434 56.0357 13.9851 57.0339C14.9799 58.079 16.433 58.5807 18.3497 58.5807ZM51.7353 63.0853C50.9853 63.0853 50.4853 62.9599 50.1519 62.6672C49.8186 62.4164 49.5269 61.8311 49.2769 61.042L39.5113 28.7939C39.3213 28.2532 39.1954 27.6919 39.1363 27.1217C39.1363 26.4528 39.4696 26.0765 40.131 26.0765H44.2092C44.9957 26.0765 45.5373 26.2072 45.8238 26.4946C46.1623 26.7454 46.4123 27.3307 46.6571 28.125L53.6467 55.7379L60.1312 28.125C60.3395 27.2889 60.5895 26.7454 60.9176 26.4946C61.4173 26.1871 61.9992 26.0412 62.5843 26.0765H65.9072C66.6989 26.0765 67.2406 26.2072 67.5739 26.4946C67.902 26.7454 68.1989 27.3307 68.3604 28.125L74.9281 56.0723L82.1209 28.125C82.3709 27.2889 82.6625 26.7454 82.9542 26.4946C83.4366 26.1872 84.0036 26.0409 84.574 26.0765H88.4438C89.1053 26.0765 89.4855 26.4162 89.4855 27.1217C89.4855 27.3307 89.4386 27.5397 89.3969 27.7906C89.3317 28.1471 89.2341 28.497 89.1053 28.8357L79.0896 61.0786C78.8396 61.9147 78.5479 62.453 78.2146 62.7038C77.7453 63.0059 77.1932 63.1521 76.6365 63.1219H73.0583C72.2718 63.1219 71.7302 62.9964 71.3916 62.7038C71.0635 62.4112 70.7718 61.8677 70.6104 61.0316L64.1624 34.1294L57.7561 60.9898C57.5478 61.8259 57.303 62.3694 56.9749 62.662C56.6363 62.9546 56.053 63.0801 55.3082 63.0801L51.7353 63.0853ZM105.152 64.2088C102.991 64.2088 100.829 63.958 98.7511 63.4615C96.673 62.9599 95.0532 62.4164 93.9699 61.7893C93.3032 61.4183 92.8501 61.0002 92.6834 60.624C92.521 60.2551 92.4359 59.8566 92.4334 59.4534V57.3265C92.4334 56.4538 92.7667 56.0357 93.3865 56.0357C93.6365 56.0357 93.8865 56.0775 94.1365 56.1612C94.3865 56.2448 94.7615 56.412 95.1782 56.5792C96.5897 57.2063 98.1262 57.7028 99.7512 58.0372C101.413 58.3717 103.032 58.5389 104.699 58.5389C107.314 58.5389 109.355 58.079 110.767 57.1593C111.443 56.7491 112 56.1666 112.379 55.4709C112.759 54.7752 112.948 53.9911 112.928 53.1982C112.944 52.6611 112.852 52.1264 112.66 51.625C112.468 51.1235 112.178 50.6653 111.809 50.277C111.059 49.4879 109.642 48.7772 107.605 48.1083L101.579 46.227C98.5428 45.2707 96.298 43.8545 94.9282 41.9785C93.5876 40.2471 92.8551 38.1195 92.8449 35.927C92.8449 34.1764 93.2251 32.6348 93.9699 31.297C94.7199 29.9645 95.7147 28.7939 96.9647 27.8794C98.2147 26.9179 99.621 26.2071 101.288 25.7107C102.954 25.209 104.699 25 106.527 25C107.439 25 108.397 25.0418 109.314 25.1672C110.267 25.2926 111.137 25.4599 112.012 25.6271C112.845 25.8361 113.637 26.0452 114.381 26.2908C115.131 26.5416 115.715 26.7924 116.131 27.0433C116.622 27.2912 117.05 27.6487 117.381 28.0884C117.65 28.4942 117.78 28.9766 117.751 29.4628V31.4224C117.751 32.3004 117.418 32.7602 116.793 32.7602C116.24 32.6966 115.704 32.5262 115.215 32.2586C112.703 31.1453 109.981 30.5909 107.236 30.6334C104.866 30.6334 102.991 31.0044 101.704 31.7987C100.413 32.593 99.7512 33.8002 99.7512 35.509C99.7512 36.6796 100.168 37.6829 101.001 38.472C101.829 39.2663 103.366 40.0606 105.569 40.7713L111.475 42.6421C114.465 43.6037 116.631 44.9415 117.918 46.6503C119.204 48.3591 119.829 50.3188 119.829 52.4875C119.829 54.2799 119.454 55.9103 118.751 57.3265C118.001 58.7479 117.001 59.9969 115.715 61.0002C114.423 62.0454 112.887 62.7926 111.1 63.3361C109.225 63.9162 107.277 64.2088 105.152 64.2088V64.2088ZM113.012 84.4847C99.3345 94.6227 79.4594 100 62.376 100C38.4279 100 16.8549 91.1162 0.552712 76.3482C-0.733753 75.1829 0.427711 73.5943 1.96939 74.514C19.5945 84.7722 41.3394 90.9908 63.8291 90.9908C79.0063 90.9908 95.673 87.8188 111.017 81.3127C113.303 80.2676 115.256 82.8125 113.012 84.4847V84.4847ZM118.71 77.9735C116.96 75.7264 107.147 76.8917 102.699 77.4352C101.371 77.6024 101.163 76.4318 102.371 75.5539C110.184 70.0512 123.033 71.6346 124.527 73.4688C126.022 75.3501 124.111 88.2368 116.793 94.4084C115.673 95.37 114.59 94.8683 115.09 93.6194C116.756 89.491 120.454 80.1892 118.71 77.9735V77.9735Z" fill="currentColor"/>
</svg>
