<svg width="125" height="125" viewBox="0 0 125 125" fill="none" xmlns="http://www.w3.org/2000/svg">
<path d="M116.557 121.578C117.899 121.58 119.221 121.261 120.415 120.649C121.608 120.038 122.639 119.15 123.421 118.061C124.203 116.971 124.714 115.711 124.912 114.384C125.109 113.057 124.988 111.703 124.557 110.432V110.443L90.3646 9.16667C89.8012 7.49366 88.7273 6.03949 87.294 5.00892C85.8607 3.97835 84.1403 3.42328 82.375 3.42188H42.625C40.8597 3.42328 39.1393 3.97835 37.706 5.00892C36.2727 6.03949 35.1988 7.49366 34.6354 9.16667L0.447927 110.438C0.0184176 111.708 -0.102276 113.062 0.0958461 114.388C0.293968 115.713 0.805203 116.973 1.58719 118.062C2.36918 119.151 3.39941 120.038 4.59252 120.649C5.78562 121.261 7.10726 121.579 8.44793 121.578H33.1406C34.9068 121.578 36.6284 121.023 38.0627 119.993C39.497 118.962 40.5718 117.507 41.1354 115.833L46.224 100.771L71.9896 119.911C73.4479 120.995 75.2083 121.578 77.0208 121.578M60.9583 56.3125L79.8333 112.245C79.9762 112.667 80.0166 113.118 79.9511 113.559C79.8856 114 79.7161 114.419 79.4566 114.782C79.1972 115.145 78.8551 115.441 78.4588 115.645C78.0624 115.85 77.6231 115.957 77.1771 115.958L77.0208 115.953C76.4171 115.954 75.829 115.76 75.3438 115.401L26.974 79.4635H52.25M85.1302 115.953C85.7344 114.255 85.8073 112.339 85.1667 110.443L50.9896 9.16667C50.9777 9.13187 50.9655 9.09715 50.9531 9.0625H82.3802C82.9682 9.06163 83.5417 9.24505 84.02 9.58698C84.4983 9.9289 84.8574 10.4121 85.0469 10.9687L119.224 112.245C119.462 112.951 119.411 113.722 119.081 114.39C118.751 115.058 118.169 115.568 117.464 115.807" fill="currentColor"/>
</svg>
