<svg width="125" height="125" viewBox="0 0 125 125" fill="none" xmlns="http://www.w3.org/2000/svg">
<path d="M109.412 25.5208L70.0833 2.09375C67.7372 0.697917 65.1212 0 62.5 0C59.8788 0 57.2628 0.697917 54.9115 2.09896L15.5833 25.5208C10.8911 28.3177 8 33.4844 8 39.0781V85.9271C8 91.5156 10.8911 96.6875 15.5885 99.4844L54.9167 122.906C57.2628 124.302 59.8788 125 62.5 125C65.1212 125 67.7372 124.302 70.0833 122.906L109.412 99.4844C114.104 96.6875 117 91.5208 117 85.9271V39.0781C117 33.4844 114.109 28.3177 109.412 25.5208ZM78.9538 98.6771L79.0213 102.042C79.0265 102.448 78.7618 102.911 78.4451 103.073L76.4572 104.219C76.1406 104.38 75.881 104.182 75.8759 103.776L75.8395 100.469C74.137 101.177 72.4138 101.349 71.3134 100.906C71.1058 100.823 71.0176 100.516 71.1006 100.167L71.8221 97.125C71.8792 96.8854 72.009 96.6458 72.1802 96.4948C72.2425 96.4375 72.3048 96.3906 72.3671 96.3594C72.4813 96.3021 72.5903 96.2865 72.6889 96.3281C73.8775 96.7292 75.3931 96.5417 76.8517 95.8021C78.7047 94.8594 79.9452 92.9635 79.9244 91.0781C79.9089 89.3698 78.985 88.6562 76.7427 88.6406C73.8879 88.6458 71.22 88.0833 71.1785 83.8646C71.1421 80.3906 72.9432 76.776 75.7928 74.4896L75.7565 71.0938C75.7513 70.6771 76.0056 70.2188 76.3326 70.0521L78.2531 68.8229C78.5697 68.6615 78.8292 68.8594 78.8344 69.276L78.8656 72.6771C80.2826 72.1094 81.5179 71.9583 82.6339 72.2188C82.8778 72.2813 82.9816 72.6146 82.883 73.0052L82.1356 76.0156C82.0785 76.2448 81.9487 76.474 81.7982 76.6198C81.7359 76.6823 81.6684 76.7292 81.601 76.7656C81.5023 76.8177 81.4037 76.8333 81.3051 76.8125C80.7964 76.6979 79.5819 76.4323 77.677 77.401C75.6786 78.4167 74.9779 80.1615 74.9935 81.4531C75.009 83 75.798 83.4688 78.5282 83.5156C82.1615 83.5781 83.7342 85.1719 83.7706 88.8438C83.8069 92.4323 81.8916 96.3073 78.9538 98.6771ZM99.5756 93.0156C99.5756 93.3281 99.534 93.6198 99.2745 93.7708L89.3296 99.8333C89.0701 99.9844 88.8624 99.8542 88.8624 99.5417V96.9688C88.8624 96.6563 89.0545 96.4844 89.314 96.3333L99.1084 90.4531C99.368 90.3021 99.5756 90.4323 99.5756 90.7448V93.0156ZM106.406 35.401L69.2009 58.4583C64.5606 61.1823 61.1401 64.2344 61.1401 69.849V115.854C61.1401 119.214 62.4896 121.391 64.5658 122.021C63.8859 122.141 63.1955 122.224 62.5 122.224C60.32 122.224 58.1763 121.63 56.287 120.505L16.9588 97.0833C13.1126 94.7917 10.725 90.5156 10.725 85.9271V39.0781C10.725 34.4896 13.1126 30.2135 16.9588 27.9219L56.287 4.49479C58.1711 3.36979 60.32 2.77604 62.5 2.77604C64.6748 2.77604 66.8237 3.36979 68.713 4.49479L108.041 27.9219C111.28 29.8542 113.47 33.1979 114.083 36.9427C112.775 34.151 109.837 33.3906 106.406 35.401Z" fill="currentColor"/>
</svg>
