<svg width="125" height="125" viewBox="0 0 125 125" fill="none" xmlns="http://www.w3.org/2000/svg">
<path d="M62.5 0C35.2083 0 16.3979 12.9661 16.3979 62.5C16.3979 112.034 35.2083 125 62.5 125C89.7917 125 108.602 112.034 108.602 62.5C108.602 12.9661 89.7917 0 62.5 0ZM58.4516 8.75833L90.8203 41.1276L69.4479 62.5L90.8203 83.8724L58.4516 116.242V73.5677L40.6495 91.3802L34.1797 84.9L56.5182 62.5L34.1797 40.1L40.6495 33.6203L58.4516 51.4323V8.75833ZM67.5557 30.8635V51.5339L77.8911 41.199L67.5557 30.8635ZM67.5557 73.476V94.1365L77.8911 83.801L67.5557 73.476Z" fill="currentColor"/>
</svg>
