<svg width="125" height="125" viewBox="0 0 125 125" fill="none" xmlns="http://www.w3.org/2000/svg">
<path d="M86.4172 47.8969C86.4172 47.8969 84.5734 30.7198 67.5266 30.2406C50.474 29.7719 41.7182 43.126 41.7182 62.2198C41.7182 81.3089 51.3953 96.5802 67.9948 96.5802C84.5781 96.5802 86.4224 77.4917 86.4224 77.4917L118.215 79.3927C118.215 79.3927 120.09 96.6323 106.777 109.789C93.4854 122.935 77.1411 125.086 65.7552 124.997C54.349 124.909 38.5359 125.174 23.2542 109.529C7.95209 93.851 5.35834 78.6422 5.35834 63.6943C5.35834 48.7458 8.25417 28.9536 26.4365 13.9536C38.7708 3.75 51.2969 0 63.8229 0C116.126 0 119.642 48.2302 119.642 48.2302L86.4172 47.8969Z" fill="currentColor"/>
</svg>
