<svg width="125" height="125" viewBox="0 0 125 125" fill="none" xmlns="http://www.w3.org/2000/svg">
<path d="M0 80.2865C0 82.724 1.97917 84.7135 4.41667 84.7135H35.3385V2.99479L0 40.2083V80.2865ZM80.2917 124.984C82.724 124.984 84.6979 123.005 84.6979 120.563V89.6406H2.98437L40.2031 124.979L80.2917 124.984ZM125 44.724C125.001 44.1445 124.888 43.5705 124.667 43.0349C124.446 42.4994 124.121 42.0129 123.711 41.6034C123.301 41.1939 122.814 40.8695 122.278 40.6488C121.742 40.4282 121.168 40.3157 120.589 40.3177H89.6615V122.031L124.984 84.8021L125 44.724ZM44.7135 0.015625C43.5435 0.015625 42.4215 0.480402 41.5942 1.30771C40.7669 2.13502 40.3021 3.25709 40.3021 4.42708V35.3646H122.01L84.8021 0.015625H44.7135Z" fill="currentColor"/>
</svg>
