<svg width="125" height="125" viewBox="0 0 125 125" fill="none" xmlns="http://www.w3.org/2000/svg">
<path d="M120.591 43.394C120.982 43.1013 121.363 42.806 121.733 42.5081C124.653 51.1855 125.633 60.3981 124.603 69.4954C123.573 78.5928 120.558 87.3532 115.772 95.1581C110.986 102.963 104.545 109.622 96.904 114.666C89.2628 119.709 80.6076 123.013 71.5496 124.346C82.5283 113.862 90.7377 95.8109 91.7636 77.2005C92.8153 58.142 84.479 45.8369 68.7233 44.1608C44.8904 41.6273 20.143 65.3411 9.57365 95.7513C3.6335 86.2931 0.33607 75.4161 0.0243545 64.2515C-0.287361 53.087 2.39803 42.0429 7.80119 32.268C13.2043 22.4931 21.1279 14.3444 30.7477 8.66957C40.3674 2.99475 51.332 0.00109941 62.5009 8.03467e-07C66.0543 -0.000567317 69.6013 0.300148 73.1039 0.898916C70.8202 2.45477 68.8833 4.46657 67.4151 6.80767C65.947 9.14876 64.9794 11.7685 64.5733 14.5018C62.234 25.3147 65.5163 36.669 72.2879 38.1327C79.0596 39.5963 86.7586 30.6201 89.0953 19.8072C90.3832 14.9905 89.9385 9.87437 87.8389 5.35205C93.9939 8.08665 99.6668 11.7975 104.639 16.3411C103.685 16.9319 102.757 17.5628 101.856 18.2322C90.5641 26.6385 84.1293 40.1714 89.3026 47.1166C94.4759 54.0619 109.299 51.8003 120.591 43.394ZM39.9814 46.1892C42.6004 43.1169 40.2663 36.8193 35.523 32.778C30.7798 28.7368 25.7153 28.729 23.0962 31.7988C20.4772 34.8686 21.2984 39.858 26.0417 43.9018C30.785 47.9456 37.3675 49.259 39.9814 46.1892ZM55.1826 38.928C60.273 36.5913 60.8792 27.0063 57.1255 18.8332C53.3718 10.6601 46.9136 7.4996 41.8232 9.83626C36.7328 12.1729 34.9324 19.1285 38.6887 27.2965C42.4449 35.4644 50.0896 41.2646 55.1826 38.928ZM93.2687 92.938C107.309 83.2132 114.177 85.8736 114.174 82.2961C114.169 78.3559 103.335 70.8926 95.6856 70.1983C95.7772 72.3226 95.7608 74.5219 95.6364 76.7964C95.3265 82.2356 94.5342 87.6391 93.2687 92.938ZM33.3574 110.46C33.1642 112.974 33.2834 115.502 33.7123 117.986C27.9251 114.975 22.6434 111.08 18.0577 106.44C25.521 78.4466 46.8903 51.2356 67.4436 53.2355C76.0442 54.0748 81.9817 61.6288 81.075 78.045C80.0284 97.0492 66.3064 124.783 51.7968 123.983C45.0951 123.615 42.9993 116.774 43.5019 110.73C44.5977 97.6295 51.2657 94.0261 51.7035 88.7206C51.7244 88.0777 51.5851 87.4397 51.2981 86.864C51.0112 86.2882 50.5857 85.7929 50.0598 85.4224C49.5339 85.052 48.9242 84.818 48.2855 84.7417C47.6467 84.6654 46.9991 84.749 46.4007 84.9851C42.3621 86.2726 34.3288 96.2643 33.3574 110.46ZM71.6455 66.714C67.4747 66.8488 62.9749 74.2344 64.7702 78.2963C68.0679 83.594 74.9458 76.698 75.0598 71.0558C75.0883 69.7217 75.0002 66.7115 71.6455 66.714Z" fill="currentColor"/>
</svg>
