<svg width="125" height="125" viewBox="0 0 125 125" fill="none" xmlns="http://www.w3.org/2000/svg">
<path d="M62.5 1.41087e-06C42.7605 1.41087e-06 25.1615 9.15104 13.7084 23.4427L34.2969 59.1094C35.1249 52.2115 38.4521 45.8561 43.6491 41.2455C48.8461 36.6349 55.5526 34.0887 62.5 34.0885H118.182C112.945 23.8262 104.972 15.2114 95.1461 9.19566C85.3197 3.17996 74.0216 -0.00244627 62.5 1.41087e-06ZM10.0574 28.4896C3.47554 38.6102 -0.0189518 50.4274 7.73039e-05 62.5C7.73039e-05 93.8125 23.0209 119.745 53.0678 124.292L73.6563 88.6302C67.2694 91.3614 60.1027 91.6559 53.5133 89.4578C46.9239 87.2598 41.3692 82.7218 37.9011 76.7031L10.0574 28.4896ZM79.5469 39.7708C85.1096 43.933 88.9514 49.992 90.3434 56.7986C91.7355 63.6052 90.581 70.686 87.099 76.6979L87.1094 76.7031H87.099L59.2657 124.917C60.3386 124.969 61.4167 125 62.5 125C97.0156 125 125 97.0156 125 62.5C125 54.4792 123.49 46.8177 120.74 39.7708H79.5469ZM62.5 85.2292C56.4719 85.2292 50.6906 82.8345 46.4281 78.5719C42.1656 74.3094 39.7709 68.5282 39.7709 62.5C39.7709 56.4719 42.1656 50.6906 46.4281 46.4281C50.6906 42.1655 56.4719 39.7708 62.5 39.7708C68.5282 39.7708 74.3094 42.1655 78.572 46.4281C82.8345 50.6906 85.2292 56.4719 85.2292 62.5C85.2292 68.5282 82.8345 74.3094 78.572 78.5719C74.3094 82.8345 68.5282 85.2292 62.5 85.2292Z" fill="currentColor"/>
</svg>
