<svg width="125" height="125" viewBox="0 0 125 125" fill="none" xmlns="http://www.w3.org/2000/svg">
<path d="M87.5677 45.9063C87.5677 45.9063 85.224 46.8438 82.5 49.8438C79.7708 52.849 78.1875 56.224 79.3594 57.1198C79.8125 57.4635 80.8542 57.5313 82.7448 55.8177C84.4846 54.3053 85.8502 52.4102 86.7344 50.2813C87.9531 47.3125 87.5677 45.9427 87.5677 45.9063ZM102.479 51.3125C99.4531 49.7552 97.2396 47.8542 94.9375 46.6771C92.7396 45.5521 91.3177 45.0781 89.5417 45.3177C89.2947 45.3618 89.0511 45.4227 88.8125 45.5C88.8125 45.5 89.7292 48.625 86.0885 53.8698C82.401 59.1927 79.0573 59.1563 78.1042 57.6927C77.1094 56.151 78.3958 53.0052 80.5417 50.2083C82.7917 47.2813 86.7396 44.8542 86.7396 44.8542C86.7396 44.8542 85.4844 44.0833 82.3906 45.8438C79.3698 47.5417 74.1771 51.6094 69.3594 58.4635C64.5365 65.3177 63.5781 69.0885 62.8906 72.0573C62.2031 75.026 62.8281 78.2031 66.1198 78.2031C69.4115 78.2031 73.2448 73.1823 74.3281 71.4375C76.3385 68.1875 77.6458 63.2031 74.9115 63.8854C73.5625 64.224 72.474 65.7135 71.7865 67.151C71.3523 68.0739 71.0205 69.0414 70.7969 70.0365C69.8398 70.4299 68.9409 70.9521 68.125 71.5885C67.2187 72.2613 66.3719 73.0106 65.5938 73.8281C65.5938 73.8281 65.6042 71.4531 67.4948 67.6094C69.3906 63.7708 72.8594 62.0156 74.8281 61.849C76.599 61.7083 78.9063 63.2135 76.9531 68.7604C75 74.3073 69.2292 81.0521 63.1719 81.1354C57.5833 81.2135 53.9219 74.0781 61.7031 61.6302C70.3177 47.8646 80.4219 43.6458 83.6979 43.1771C86.9792 42.7083 88.0469 44.151 88.0469 44.151C90.0207 43.3422 92.1523 42.9913 94.2813 43.125C98.2917 43.3958 101.385 46.2292 105.479 48.224C104.411 49.2396 103.396 50.3073 102.484 51.3073M120.474 46.6719C117.698 48.4531 113.859 50.0677 110.167 49.724C109.234 50.6875 108.234 51.8073 107.234 53.026C113.63 54.2917 119.24 50.3229 122.219 46.9479C123.306 45.7368 124.24 44.3969 125 42.9583C123.643 44.3713 122.123 45.6143 120.474 46.6719ZM111.953 64.7083C112.002 64.6242 112.042 64.5352 112.073 64.4427C112.054 64.2956 111.986 64.1595 111.878 64.0571C111.771 63.9546 111.632 63.8922 111.484 63.8802C110.875 63.8542 110.042 63.9688 107.865 66.3802C106.056 68.3745 104.499 70.5838 103.229 72.9583C101.979 75.2396 101.474 76.9375 102.188 77.375C102.422 77.497 102.694 77.5249 102.948 77.4531C103.432 77.3385 103.984 76.8802 104.823 75.9167C105.214 75.4583 105.646 74.8125 106.167 74.099C107.609 72.1406 111.234 65.9583 111.953 64.7083ZM89.3021 67.3333C89.6667 66.3854 90.1302 64.5156 89.1667 63.7813C88.1302 63 85.4948 64.8281 85.4792 66.7031C85.4636 68.625 87.3385 69.4896 87.7865 69.6146C88.0469 69.6823 88.1302 69.6667 88.2552 69.4635C88.6531 68.7786 89.0029 68.0668 89.3021 67.3333ZM87.3073 70.8229C86.6537 70.5211 86.044 70.1321 85.4948 69.6667C84.9453 69.2047 84.4862 68.6449 84.1406 68.0156C84.099 67.9531 84.0625 68 84.0208 68.0573C83.9844 68.1094 83.8177 68.2604 82.4115 70.3177C81.0052 72.3802 78.849 76.651 80.7969 77.375C82.0521 77.8438 84.1354 75.651 85.276 74.1979C86.0483 73.1825 86.7479 72.1139 87.3698 71C87.4323 70.8802 87.3698 70.849 87.3073 70.8229ZM109.484 75.7552C108.953 76.6042 108.349 78.2344 110.094 77.2188C112.229 75.9896 115.271 71.3698 115.271 71.3698H116.651C115.396 73.3013 113.998 75.1362 112.469 76.8594C110.307 79.2552 107.667 81.4375 105.802 81.2188C103.635 80.9688 104.313 78.1146 104.313 78.1146C104.313 78.1146 101.208 81.4219 99.0521 81.1875C96.151 80.8646 97.0365 77.276 97.0365 77.276C97.0365 77.276 93.7552 81.3073 91.5156 81.1823C88.0104 80.974 88.8906 76.7083 89.8698 73.7031C90.3906 72.099 90.875 70.8385 90.875 70.8385C90.875 70.8385 90.5261 70.9271 89.7813 71.0365C89.3854 71.0938 88.6771 71.1354 88.6771 71.1354C88.6771 71.1354 87.2188 73.7135 86.0469 75.2604C84.8802 76.8073 79.9115 82.1458 76.9844 81.0781C74.2865 80.0885 75.1823 75.9531 76.7552 72.6667C79.0469 67.875 85.5052 60.9844 89.2344 61.8958C93.0938 62.8333 89.3229 69.875 89.3229 69.875C89.3229 69.875 89.3229 69.901 89.3594 69.9219C89.4375 69.9479 89.6406 69.974 90.1042 69.8802C90.586 69.7831 91.0583 69.6437 91.5156 69.4635C91.5156 69.4635 95.401 61.3333 99.6875 56.0104C103.974 50.6979 112.526 41.5313 115.885 43.75C116.698 44.2969 116.333 46.1719 115.229 48.4479C114.731 48.6096 114.225 48.7452 113.714 48.8542C114.453 47.5104 114.943 46.3802 115.089 45.5885C115.594 42.8385 109.177 48.6354 104.594 54.8594C101.831 58.6134 99.3772 62.5846 97.2552 66.7344C98.0831 66.2296 98.8733 65.6657 99.6198 65.0469C101.666 63.3519 103.61 61.538 105.443 59.6146C107.206 57.8087 108.86 55.899 110.396 53.8958C110.884 53.8721 111.371 53.8216 111.854 53.7448C110.179 56.0181 108.352 58.1758 106.385 60.2031C104.563 62.0521 102.583 64.0417 100.859 65.4896C99.3236 66.7941 97.7038 67.9963 96.0104 69.0885C96.0104 69.0885 92 77.1771 94.1823 77.6927C95.4636 78.0052 97.9948 74.099 97.9948 74.099C97.9948 74.099 101.302 69.0625 103.292 66.7865C106.01 63.6979 108.344 61.9115 110.688 61.8802C112.047 61.8542 112.849 63.3021 112.849 63.3021L113.49 62.3125H117.432C117.432 62.3125 110.068 74.8021 109.479 75.7448M120.474 46.6823C117.698 48.4583 113.859 50.0729 110.167 49.7292C109.229 50.6927 108.234 51.8125 107.229 53.0313C113.63 54.2969 119.234 50.3333 122.219 46.9531C123.306 45.7404 124.24 44.3988 125 42.9583C123.643 44.3713 122.123 45.6143 120.474 46.6719M65.1094 52.8073H61.3594L59.2396 56.2344H62.9896L65.1094 52.8073ZM47.349 64.6667C48.9479 62.4792 53.349 54.8177 53.349 54.8177C53.3305 54.6715 53.2626 54.5359 53.1565 54.4336C53.0504 54.3313 52.9125 54.2683 52.7656 54.2552C52.1563 54.224 51.1406 54.4323 49.1198 56.9583C47.1042 59.4844 45.5365 61.4896 44.3958 63.5833C43.1458 65.8646 42.5938 67.474 43.3177 67.9115C43.5499 68.0279 43.8165 68.0556 44.0677 67.9896C44.5365 67.875 45.151 67.401 45.9896 66.4375C46.467 65.865 46.9222 65.2743 47.3542 64.6667M27.2344 54.3021C26.1979 53.5208 23.5625 55.349 23.5469 57.2188C23.5313 59.1406 25.9219 59.7292 26.2292 59.7396C26.3192 59.7477 26.4096 59.7296 26.4896 59.6875C26.5447 59.6546 26.5884 59.6055 26.6146 59.5469C26.8968 58.996 27.1506 58.431 27.375 57.8542C27.7396 56.901 28.1979 55.0365 27.2344 54.3021ZM25.6719 60.9167C24.9574 60.6925 24.2748 60.3774 23.6406 59.9792C23.0246 59.5781 22.5238 59.0234 22.1875 58.3698C22.1511 58.3073 22.1094 58.3542 22.0729 58.4115C22.0365 58.4635 21.8281 58.7292 20.4167 60.7969C19.0104 62.8698 16.9167 67.099 18.875 67.8281C20.125 68.2969 22.2292 66.0885 23.375 64.6406C24.2312 63.504 25.0224 62.3198 25.7448 61.0938C25.7917 60.9688 25.7448 60.9375 25.6719 60.9167ZM56.2969 62.1875H57.6667C57.6667 62.1875 50.7865 72.1458 46.8958 71.6823C44.7292 71.4271 45.3698 68.75 45.3698 68.75C45.3698 68.75 42.3229 72.3177 39.5208 71.5938C36.9844 70.9427 38.625 66.7188 38.625 66.7188C38.3333 66.8333 32.8386 73.026 28.974 71.5417C24.9323 69.9792 27.0313 64.7917 27.8021 63.2344C28.4531 61.9167 29.1719 60.6354 29.1719 60.6354C29.1719 60.6354 28.5521 60.8125 28.1563 60.901L27.1875 61.1094C27.1875 61.1094 25.2761 64.2135 24.1094 65.7656C22.9375 67.3125 17.974 72.6406 15.0469 71.5833C12.1198 70.5208 12.8438 66.4271 14.4896 63.1719C17.1563 57.901 23.4792 51.4219 27.2917 52.401C31.1406 53.3854 27.9531 59.6302 27.9531 59.6302C27.9531 59.6302 28.7188 59.7292 30.5573 58.474C33.1979 56.6719 36.6823 51.8229 40.4583 52.3958C42.2396 52.6615 43.8958 54.4792 41.6302 57.9375C40.9063 59.0469 39.6927 60.0365 38.7656 59.0573C38.1875 58.4427 38.6927 57.3385 39.3021 56.5729C39.5385 56.2631 39.8473 56.0161 40.2015 55.8535C40.5557 55.691 40.9443 55.6179 41.3333 55.6406C41.3333 55.6406 41.9583 54.2188 40.3698 54.2396C39.0833 54.2656 35.8333 57.2604 34 60.2813C32.3177 63.0573 29.7656 67.7865 32.3229 68.8177C34.6719 69.7656 39.1406 64.4635 41.2083 61.6823C43.2761 58.9063 47.9896 52.6094 51.9479 52.3594C53.3073 52.2708 54.1198 53.5104 54.1198 53.5104L54.5781 52.7865H58.5313C58.5313 52.7865 51.0833 65.2188 50.5 66.1563C50.0417 66.8906 49.4375 68.5521 51.1094 67.6198C52.7865 66.6927 56.2969 62.1875 56.2969 62.1875ZM54.1406 82.1042C51.229 80.088 47.7422 79.0701 44.2031 79.2031C43.2463 79.2295 42.3092 79.4809 41.4677 79.937C40.6261 80.393 39.9039 81.0409 39.3594 81.8281C37.849 79.1979 34.8698 77.5833 30.2604 77.6198C22.8125 77.7031 15.4219 81.1406 9.57293 81.1354C3.96355 81.1354 -0.1302 77.6094 0.00521635 71.3438C0.250008 60.3594 9.53647 50.4635 16.4636 46.0104C20.4583 43.4583 23.8021 42.6927 25.9844 42.9375C27.5781 43.1146 29.4948 44.9583 28.2865 47.6719C26.5104 51.6354 24.0573 51.3125 24.1458 49.4167C24.1979 48.1823 25.0208 47.4063 25.6354 46.974C26.0811 46.7372 26.5787 46.6155 27.0833 46.6198C27.4375 46.3229 27.6927 44.151 24.849 44.8646C22.0052 45.5781 18.5469 48.3854 15.2656 52.0052C11.9844 55.6302 6.88022 62.4792 5.6198 69.6719C5.03126 73.0052 5.41668 79.0885 13.3281 79.0208C20.0313 78.9688 29.9167 74.5469 39 74.6406C42.1626 74.6282 45.2687 75.4781 47.9844 77.099C50.3333 78.5469 53.1511 80.6615 54.1511 82.1042" fill="currentColor"/>
</svg>
