<svg width="125" height="125" viewBox="0 0 125 125" fill="none" xmlns="http://www.w3.org/2000/svg">
<path d="M116.56 31.6289L116.863 31.4268C116.257 30.3153 115.348 29.3048 114.439 28.7995L65.6628 0.707357C64.855 0.202102 63.7441 0 62.5323 0C61.3205 0 60.2096 0.303153 59.4017 0.707357L10.9286 28.9006C9.21183 29.9111 8 32.4373 8 34.3573V90.6427C8 91.7542 8.20197 92.9669 8.90887 94.0784L8.7069 94.1795C9.21183 94.9879 9.91873 95.6952 10.6256 96.0994L59.3007 124.293C60.1086 124.798 61.2195 125 62.4313 125C63.6431 125 64.754 124.697 65.5619 124.293L114.035 96.0994C115.752 95.0889 116.964 92.5627 116.964 90.6427V34.2563C117.065 33.4479 116.964 32.5384 116.56 31.6289ZM80.7097 64.4705V60.4285H85.759V55.3759H90.8083V60.4285H95.8576V64.4705H90.8083V69.523H85.759V64.4705H80.7097ZM84.0422 50.3234C79.8008 42.7445 71.722 37.692 62.5323 37.692C48.8992 37.692 37.7908 48.8076 37.7908 62.4495C37.7908 76.0913 48.8992 87.207 62.5323 87.207C71.722 87.207 79.8008 82.1544 84.0422 74.6766L97.0694 82.3565C90.2024 94.2805 77.2762 102.365 62.5323 102.365C40.5174 102.365 22.6429 84.4786 22.6429 62.4495C22.6429 40.4204 40.5174 22.5344 62.5323 22.5344C77.3772 22.5344 90.3034 30.7195 97.1704 42.7445L84.0422 50.3234ZM114.035 64.4705H108.986V69.523H104.946V64.4705H98.8871V60.4285H104.946V55.3759H108.986V60.4285H114.035V64.4705Z" fill="currentColor"/>
</svg>
