<svg width="125" height="125" viewBox="0 0 125 125" fill="none" xmlns="http://www.w3.org/2000/svg">
<path d="M116.63 31.6289L116.933 31.4268C116.327 30.3153 115.417 29.3048 114.508 28.7995L65.7001 0.707357C64.8917 0.202102 63.7801 0 62.5675 0C61.3549 0 60.2433 0.303153 59.4349 0.707357L10.9305 28.9006C9.21261 29.9111 8 32.4373 8 34.3573V90.6427C8 91.7542 8.2021 92.9669 8.90946 94.0784L8.70736 94.1795C9.21261 94.9879 9.91997 95.6952 10.6273 96.0994L59.3339 124.293C60.1423 124.798 61.2538 125 62.4665 125C63.6791 125 64.7906 124.697 65.599 124.293L114.103 96.0994C115.821 95.0889 117.034 92.5627 117.034 90.6427V34.2563C117.135 33.4479 117.034 32.5384 116.63 31.6289ZM62.5675 102.365C40.5384 102.365 22.6524 84.4786 22.6524 62.4495C22.6524 40.4204 40.5384 22.5344 62.5675 22.5344C77.422 22.5344 90.3565 30.7195 97.228 42.7445L84.0913 50.3234C79.8472 42.7445 71.7631 37.692 62.5675 37.692C48.9256 37.692 37.81 48.8076 37.81 62.4495C37.81 76.0913 48.9256 87.207 62.5675 87.207C71.7631 87.207 79.8472 82.1544 84.0913 74.6766L97.1269 82.3565C90.2554 94.2805 77.3209 102.365 62.5675 102.365ZM114.103 60.4285H110.87L109.96 64.4705H114.103V69.523H109.051L107.838 75.5861H102.887L104.099 69.523H100.259L99.0469 75.5861H94.1964L95.4091 69.523H92.8828V64.4705H96.4196L97.329 60.4285H92.8828V55.3759H98.2385L99.4511 49.3129H104.403L103.19 55.3759H107.03L108.243 49.3129H113.093L111.88 55.3759H114.103V60.4285ZM101.27 64.4705H105.11L106.019 60.4285H102.179L101.27 64.4705Z" fill="currentColor"/>
</svg>
