<svg width="125" height="125" viewBox="0 0 125 125" fill="none" xmlns="http://www.w3.org/2000/svg">
<path d="M7 0L17.1023 112.466L62.4327 125L107.89 112.421L118 0H7ZM97.0127 25.7666L93.6499 63.2328L93.66 63.435L93.6459 63.9003V63.8963L91.2567 90.0933L90.9935 92.4207L62.5 100.236V100.237L62.4779 100.256L34.0336 92.3968L32.1076 70.738H46.056L47.0456 81.7512L62.504 85.9058L62.5 85.9138V85.9118L78.0157 81.6984L79.6554 63.7638H47.2204L46.9421 60.7321L46.3081 53.6294L45.9756 49.8155H80.8881L82.1581 35.8671H28.983L28.7047 32.8374L28.0717 25.7327L27.7382 21.9188H97.3452L97.0127 25.7666Z" fill="currentColor"/>
</svg>
