<svg width="125" height="125" viewBox="0 0 125 125" fill="none" xmlns="http://www.w3.org/2000/svg">
<path d="M21.3802 21.3859C21.3802 21.3859 47.6979 8.23561 60.8542 1.65264C63.2487 0.472298 65.9001 -0.0915963 68.5677 0.0121056C72.5573 0.256884 77.3021 4.11605 77.3021 4.11605L125 51.8165V102.798H102.797V125H50.9844L4.10937 78.1276C1.57812 75.5236 0 71.8519 0 68.2583C0 66.597 0.9375 63.9982 1.64583 62.5035L21.3802 21.3859ZM24.9167 24.9222V86.3094C24.9271 89.1374 25.026 91.6425 27.5104 94.1632L53.1458 119.792H97.5885V97.59L24.9167 24.9222ZM87.7031 21.3911C83.0208 16.7247 78.2813 12.1208 73.4323 7.62627C71.8594 6.23572 70.4792 5.1889 67.8594 5.22015C65.9323 5.29306 63.3281 6.23572 63.3281 6.23572L33.026 21.3859L87.7031 21.3911Z" fill="currentColor"/>
</svg>
