<svg width="125" height="125" viewBox="0 0 125 125" fill="none" xmlns="http://www.w3.org/2000/svg">
<path d="M105.818 22.7594C97.7137 19.0394 89.1612 16.3867 80.3745 14.8677C80.2947 14.8528 80.2122 14.8635 80.1388 14.8982C80.0654 14.9329 80.0048 14.9898 79.9656 15.0609C78.8667 17.0156 77.6495 19.5651 76.7974 21.5687C67.1896 20.1302 57.6307 20.1302 48.2203 21.5687C47.3682 19.5203 46.1068 17.0156 45.0031 15.0609C44.9622 14.9914 44.9014 14.9359 44.8284 14.9015C44.7555 14.8671 44.6739 14.8555 44.5943 14.8682C35.8067 16.3837 27.2536 19.0362 19.1505 22.7589C19.0812 22.7885 19.0228 22.8389 18.9833 22.9031C2.77812 47.1135 -1.66147 70.7286 0.516657 94.051C0.522816 94.1081 0.540371 94.1634 0.568284 94.2136C0.596197 94.2638 0.633899 94.3079 0.679157 94.3432C11.3708 102.195 21.7276 106.962 31.8922 110.121C31.9712 110.145 32.0556 110.144 32.1339 110.118C32.2123 110.092 32.281 110.043 32.3307 109.978C34.7349 106.694 36.8781 103.232 38.7161 99.5912C38.7414 99.5413 38.7558 99.4867 38.7584 99.4308C38.7611 99.375 38.7519 99.3193 38.7314 99.2673C38.7109 99.2152 38.6797 99.1682 38.6397 99.1291C38.5997 99.09 38.5519 99.0599 38.4995 99.0406C35.0995 97.7511 31.8625 96.1787 28.7484 94.3932C28.6916 94.3599 28.6439 94.3131 28.6095 94.2569C28.5751 94.2007 28.5551 94.137 28.5512 94.0712C28.5473 94.0055 28.5596 93.9398 28.5871 93.88C28.6146 93.8201 28.6564 93.768 28.7088 93.7281C29.3641 93.237 30.0198 92.7266 30.6453 92.2104C30.7009 92.1646 30.7682 92.1352 30.8396 92.1255C30.911 92.1158 30.9837 92.1263 31.0495 92.1557C51.5068 101.496 73.6536 101.496 93.8693 92.1557C93.9351 92.1244 94.0085 92.1124 94.0809 92.1212C94.1532 92.1299 94.2217 92.1591 94.2781 92.2052C94.9042 92.7208 95.5594 93.237 96.2198 93.7281C96.2723 93.7676 96.3144 93.8194 96.3423 93.8789C96.3701 93.9384 96.3829 94.0039 96.3795 94.0696C96.3761 94.1352 96.3566 94.199 96.3228 94.2554C96.2889 94.3117 96.2418 94.3589 96.1854 94.3927C93.0702 96.2122 89.8069 97.7653 86.4302 99.0354C86.3778 99.0555 86.3302 99.0864 86.2905 99.1261C86.2508 99.1658 86.2199 99.2134 86.1999 99.2659C86.1799 99.3183 86.1712 99.3744 86.1744 99.4305C86.1775 99.4865 86.1925 99.5413 86.2182 99.5912C88.0953 103.227 90.2385 106.689 92.5984 109.972C92.6466 110.04 92.7149 110.091 92.7936 110.118C92.8724 110.144 92.9575 110.146 93.037 110.121C103.251 106.961 113.607 102.195 124.299 94.3432C124.345 94.3096 124.383 94.2666 124.411 94.2171C124.44 94.1675 124.457 94.1125 124.462 94.0557C127.068 67.0922 120.096 43.6708 105.98 22.9078C105.946 22.8404 105.888 22.788 105.818 22.7594ZM41.7708 79.85C35.612 79.85 30.537 74.1953 30.537 67.251C30.537 60.3073 35.5135 54.6526 41.7713 54.6526C48.0776 54.6526 53.1031 60.3568 53.0047 67.2516C53.0047 74.1953 48.0281 79.85 41.7708 79.85ZM83.3062 79.85C77.1474 79.85 72.0724 74.1953 72.0724 67.251C72.0724 60.3073 77.0484 54.6526 83.3062 54.6526C89.6125 54.6526 94.638 60.3568 94.5396 67.2516C94.5396 74.1953 89.6125 79.85 83.3062 79.85Z" fill="currentColor"/>
</svg>
