<svg width="125" height="125" viewBox="0 0 125 125" fill="none" xmlns="http://www.w3.org/2000/svg">
<path d="M72.8281 57.6979H83.8646C84.1206 57.6979 84.3662 57.5966 84.5478 57.416C84.7293 57.2355 84.832 56.9904 84.8333 56.7344V46.9063C84.8333 46.6493 84.7313 46.4029 84.5496 46.2212C84.3679 46.0396 84.1215 45.9375 83.8646 45.9375H72.8281C72.5726 45.9375 72.3275 46.039 72.1468 46.2197C71.9661 46.4004 71.8646 46.6455 71.8646 46.901V56.7344C71.8646 57.2656 72.2969 57.6979 72.8281 57.6979ZM57.4427 29.4167H68.474C68.7309 29.4167 68.9773 29.3146 69.159 29.1329C69.3406 28.9513 69.4427 28.7049 69.4427 28.4479V18.6146C69.4413 18.3586 69.3387 18.1135 69.1571 17.9329C68.9756 17.7524 68.73 17.651 68.474 17.651H57.4427C57.1872 17.651 56.9421 17.7526 56.7614 17.9333C56.5807 18.114 56.4792 18.359 56.4792 18.6146V28.4479C56.4792 28.9792 56.9063 29.4167 57.4427 29.4167ZM57.4427 43.5573H68.474C68.7305 43.5559 68.9761 43.4534 69.1575 43.272C69.3388 43.0907 69.4413 42.8451 69.4427 42.5885V32.7604C69.4413 32.5044 69.3387 32.2593 69.1571 32.0788C68.9756 31.8982 68.73 31.7969 68.474 31.7969H57.4427C57.1872 31.7969 56.9421 31.8984 56.7614 32.0791C56.5807 32.2598 56.4792 32.5049 56.4792 32.7604V42.5885C56.4792 43.1198 56.9063 43.5521 57.4427 43.5573ZM42.1823 43.5573H53.224C53.4791 43.5546 53.7228 43.4513 53.9022 43.2699C54.0817 43.0885 54.1823 42.8437 54.1823 42.5885V32.7604C54.1823 32.5049 54.0808 32.2598 53.9001 32.0791C53.7194 31.8984 53.4743 31.7969 53.2188 31.7969H42.1875C41.932 31.7969 41.6869 31.8984 41.5062 32.0791C41.3255 32.2598 41.224 32.5049 41.224 32.7604V42.5885C41.224 43.1198 41.6563 43.5521 42.1875 43.5573M26.75 43.5573H37.7865C38.0425 43.5559 38.2876 43.4532 38.4681 43.2717C38.6487 43.0902 38.75 42.8446 38.75 42.5885V32.7604C38.75 32.5049 38.6485 32.2598 38.4678 32.0791C38.2871 31.8984 38.042 31.7969 37.7865 31.7969H26.75C26.494 31.7969 26.2484 31.8982 26.0668 32.0788C25.8853 32.2593 25.7826 32.5044 25.7812 32.7604V42.5885C25.7812 43.1198 26.2187 43.5521 26.75 43.5573ZM57.4427 57.6979H68.474C68.73 57.6979 68.9756 57.5966 69.1571 57.416C69.3387 57.2355 69.4413 56.9904 69.4427 56.7344V46.9063C69.4427 46.6493 69.3406 46.4029 69.159 46.2212C68.9773 46.0396 68.7309 45.9375 68.474 45.9375H57.4427C57.1872 45.9375 56.9421 46.039 56.7614 46.2197C56.5807 46.4004 56.4792 46.6455 56.4792 46.901V56.7344C56.4792 57.2656 56.9063 57.6979 57.4427 57.6979ZM42.1823 57.6979H53.224C53.4786 57.6965 53.7223 57.5944 53.9019 57.4139C54.0815 57.2333 54.1823 56.989 54.1823 56.7344V46.9063C54.183 46.7797 54.1587 46.6543 54.1109 46.5371C54.0632 46.42 53.9928 46.3134 53.9038 46.2234C53.8148 46.1334 53.7089 46.0619 53.5923 46.0128C53.4757 45.9638 53.3505 45.9382 53.224 45.9375H42.1823C41.9276 45.9389 41.6839 46.041 41.5043 46.2216C41.3248 46.4021 41.224 46.6464 41.224 46.901V56.7344C41.224 57.2656 41.6563 57.6979 42.1875 57.6979M26.75 57.6979H37.7865C38.042 57.6979 38.2871 57.5964 38.4678 57.4157C38.6485 57.235 38.75 56.9899 38.75 56.7344V46.9063C38.7507 46.7797 38.7264 46.6543 38.6787 46.5371C38.6309 46.42 38.5605 46.3134 38.4715 46.2234C38.3825 46.1334 38.2766 46.0619 38.16 46.0128C38.0434 45.9638 37.9182 45.9382 37.7917 45.9375H26.75C26.4931 45.9375 26.2467 46.0396 26.065 46.2212C25.8833 46.4029 25.7812 46.6493 25.7812 46.9063V56.7344C25.7812 57.2656 26.2187 57.6979 26.75 57.6979ZM11.5417 57.6979H22.5833C22.838 57.6965 23.0817 57.5944 23.2613 57.4139C23.4409 57.2333 23.5417 56.989 23.5417 56.7344V46.9063C23.5424 46.7797 23.5181 46.6543 23.4703 46.5371C23.4225 46.42 23.3521 46.3134 23.2631 46.2234C23.1741 46.1334 23.0683 46.0619 22.9517 46.0128C22.835 45.9638 22.7099 45.9382 22.5833 45.9375H11.5417C11.287 45.9389 11.0433 46.041 10.8637 46.2216C10.6841 46.4021 10.5833 46.6464 10.5833 46.901V56.7344C10.5833 57.2656 11.0052 57.6979 11.5417 57.6979ZM123.766 51.5104C123.427 51.2448 120.266 48.8542 113.589 48.8542C111.828 48.8594 110.068 49.0104 108.328 49.3073C107.036 40.4531 99.7188 36.1302 99.3906 35.9427L97.599 34.9063L96.4219 36.6094C94.9427 38.8906 93.8698 41.4115 93.2344 44.0573C92.0365 49.1094 92.7656 53.8594 95.3333 57.9167C92.2344 59.6458 87.2604 60.0677 86.25 60.1042H3.91146C2.87768 60.1055 1.88648 60.5161 1.15451 61.2461C0.422541 61.9761 0.00933416 62.9662 0.00520546 64C-0.0912441 71.2127 1.13018 78.3824 3.60937 85.1563C6.44791 92.5938 10.6667 98.0729 16.1615 101.427C22.3073 105.193 32.3073 107.349 43.6354 107.349C48.7552 107.365 53.8594 106.901 58.8958 105.964C65.8898 104.679 72.6197 102.234 78.8073 98.7292C83.9115 95.776 88.4948 92.0208 92.401 87.6042C98.9219 80.2188 102.807 71.9948 105.698 64.6875H106.849C113.995 64.6875 118.385 61.8281 120.807 59.4323C122.417 57.9063 123.672 56.0469 124.49 53.9844L125 52.4844L123.766 51.5104Z" fill="currentColor"/>
</svg>
