<svg width="125" height="125" viewBox="0 0 125 125" fill="none" xmlns="http://www.w3.org/2000/svg">
<path d="M123.399 51.1134C119.097 48.6122 113.394 48.3121 108.592 49.7128C107.992 44.5103 104.59 40.0081 100.588 36.8066L98.9876 35.506L97.5869 37.1067C94.8856 40.2082 94.0852 45.4107 94.4854 49.4126C94.7855 52.314 95.686 55.3155 97.4868 57.7166C96.0862 58.517 94.5854 59.6175 93.1848 60.1178C90.3834 61.1182 87.282 62.1187 84.2805 62.1187H77.5773V48.012H64.5711V23H49.5639V35.0057H24.552V48.012H11.5457V62.0187H0.340387L0.140292 63.5194C-0.359947 69.9224 0.440435 76.1254 3.14173 82.0282L4.3423 84.4294C12.2461 97.8358 26.0527 103.438 41.1599 103.438C70.3739 103.438 94.4854 90.3322 105.491 62.819C112.894 63.2192 120.498 61.0182 124.1 53.9148L125 52.1139L123.399 51.1134ZM26.5529 38.0072H36.5577V49.0124H26.5529V38.0072ZM39.6592 82.2283C39.6592 83.9291 38.2585 85.3298 36.5577 85.3298C34.8569 85.3298 33.4562 83.9291 33.4562 82.2283C33.4562 80.5275 34.8569 79.1268 36.5577 79.1268C38.2585 79.2269 39.6592 80.5275 39.6592 82.2283ZM26.5529 51.0134H36.5577V62.0187H26.5529V51.0134ZM13.5467 51.0134H24.552V62.0187H13.5467V51.0134ZM41.26 101.237C25.4524 101.137 16.9483 95.8348 9.94498 88.8315C12.046 88.9315 14.0469 89.0316 15.8478 89.0316C17.4486 89.0316 19.0493 89.0316 20.5501 88.9315C24.4519 88.7314 27.8535 88.2312 30.6549 87.4308C32.956 92.7334 37.158 97.6357 44.6616 101.237H41.26ZM49.5639 62.0187H38.5587V51.0134H49.5639V62.0187ZM49.5639 49.0124H38.5587V38.0072H49.5639V49.0124ZM62.5701 62.0187H51.5649V51.0134H62.5701V62.0187ZM62.5701 49.0124H51.5649V38.0072H62.5701V49.0124ZM62.5701 36.0062H51.5649V25.001H62.5701V36.0062ZM75.5764 62.0187H64.5711V51.0134H75.5764V62.0187ZM37.3581 80.2274C37.158 80.1273 36.8578 80.0273 36.5577 80.0273C35.3571 80.0273 34.3567 81.0278 34.3567 82.2283C34.3567 83.4289 35.3571 84.4294 36.5577 84.4294C37.7583 84.4294 38.7588 83.4289 38.7588 82.2283C38.7588 81.9282 38.6587 81.628 38.5587 81.4279C38.3586 81.7281 38.1585 81.9282 37.7583 81.9282C37.258 81.9282 36.8578 81.528 36.8578 81.0278C36.9579 80.6276 37.158 80.3274 37.3581 80.2274Z" fill="currentColor"/>
</svg>
