<svg width="125" height="125" viewBox="0 0 125 125" fill="none" xmlns="http://www.w3.org/2000/svg">
<path d="M125 45.6771H112.146V85.0781H104.724V45.6771H91.901V39.2187H125V45.6771ZM89.3125 85.0781H64.2031V39.2187H88.3177V45.6771H71.625V58.6667H87.0052V65.0937H71.625V78.6562H89.3125V85.0781ZM54.375 85.0781H46.2604L24.8958 51.3698C24.3614 50.5308 23.9113 49.6411 23.5521 48.7135H23.3646C23.5313 49.6979 23.6146 51.7969 23.6146 55.0156V85.0781H16.4427V39.2187H25.0833L45.7344 72.1354C46.6042 73.4948 47.1667 74.4375 47.4167 74.9479H47.5417C47.3333 73.7344 47.2292 71.6719 47.2292 68.776V39.2135H54.375V85.0781ZM9.04688 81.4687C9.04688 82.0362 8.92977 82.598 8.70225 83.1222C8.47473 83.6464 8.14127 84.1226 7.72092 84.5236C7.30057 84.9246 6.80158 85.2425 6.25248 85.4592C5.70339 85.6759 5.11496 85.7871 4.52084 85.7865C3.92669 85.7865 3.33838 85.6746 2.78953 85.4573C2.24068 85.24 1.74206 84.9215 1.3222 84.52C0.902326 84.1185 0.569437 83.6419 0.342565 83.1174C0.115693 82.593 -0.00071341 82.031 3.28942e-06 81.4635C0.00144847 80.3193 0.478387 79.2224 1.32605 78.4138C2.17372 77.6052 3.32278 77.151 4.52084 77.151C5.11496 77.1504 5.70339 77.2616 6.25248 77.4783C6.80158 77.695 7.30057 78.0129 7.72092 78.4139C8.14127 78.8149 8.47473 79.2911 8.70225 79.8153C8.92977 80.3394 9.04688 80.9013 9.04688 81.4687Z" fill="currentColor"/>
</svg>
