<svg width="125" height="125" viewBox="0 0 125 125" fill="none" xmlns="http://www.w3.org/2000/svg">
<path fill-rule="evenodd" clip-rule="evenodd" d="M80.5267 77.3696C81.0036 76.1429 81.5442 74.9351 81.9475 73.6846C84.2255 66.6183 86.4816 59.546 88.7228 52.4677C89.584 49.7485 90.5279 47.0712 92.2225 44.7343C94.9028 41.0414 98.6364 39.1068 103.055 38.4307C104.788 38.1658 106.558 38.0434 108.312 38.0264C113.556 37.9767 118.802 38.0115 124.047 38.0165C124.326 38.0165 124.605 38.0454 125 38.0683C124.872 38.371 124.802 38.591 124.69 38.7891C122.744 42.268 120.835 45.7678 118.831 49.2119C115.341 55.2078 111.846 61.2018 108.246 67.132C105.937 70.9345 103.433 74.6195 100.593 78.0586C98.497 80.5955 96.2907 83.021 93.478 84.7993C91.5614 86.011 89.5143 86.7199 87.1905 86.708C78.9486 86.6632 70.7067 86.696 62.4648 86.6841C60.0145 86.6801 57.9167 85.7472 56.1365 84.0924C53.5846 81.7216 52.0613 78.7038 50.8147 75.5216C48.5407 69.7118 47.2673 63.6223 45.8057 57.5855C45.1207 54.7598 44.3421 51.9559 43.6003 49.1442C43.5525 48.9619 43.459 48.7917 43.3514 48.5298L42.7769 49.0695C39.563 52.2626 36.7324 55.7813 34.1995 59.5221C33.5095 60.5416 33.2775 61.8858 32.8922 63.0975C31.4744 67.5482 30.1821 72.0417 28.6468 76.4505C27.1762 80.6742 24.5398 84.0336 20.4188 86.019C18.0094 87.179 15.4366 87.8062 12.7633 87.866C8.80067 87.9536 4.83603 87.9635 0.872379 87.9994C-0.0754715 88.0083 -0.119279 87.9307 0.12764 87.0137C1.8272 80.7031 3.98077 74.5538 6.67896 68.6016C9.46078 62.4613 12.7374 56.6057 16.8654 51.258C19.6761 47.6168 22.7805 44.2574 26.6655 41.7174C28.6358 40.43 30.7307 39.4124 33.1142 39.1446C33.5065 39.0998 33.9038 39.0719 34.2981 39.0719C42.7391 39.0679 51.1802 39.1536 59.6202 39.0331C64.1474 38.9684 67.425 40.8801 69.8793 44.5242C71.4056 46.7904 72.4978 49.2646 73.4168 51.8205C75.2697 56.9761 76.4217 62.3219 77.723 67.6299C78.4677 70.6677 79.2971 73.6846 80.0916 76.7104C80.1513 76.9374 80.2479 77.1545 80.3286 77.3755L80.5267 77.3696Z" fill="currentColor"/>
</svg>
