<svg width="125" height="125" viewBox="0 0 125 125" fill="none" xmlns="http://www.w3.org/2000/svg">
<path d="M113.854 93.0208C114.34 93.0208 114.774 93.2292 115.156 93.6458C115.503 94.0972 115.677 94.5313 115.677 94.9479C115.677 95.3646 115.486 95.9375 115.104 96.6667L113.438 99.0625L111.198 101.823L108.906 104.427C108.177 105.295 107.517 106.024 106.927 106.615L105.781 107.813C103.767 109.653 101.441 111.458 98.8021 113.229C96.1632 115 93.3854 116.58 90.4688 117.969C87.4826 119.358 84.4618 120.469 81.4063 121.302C78.3507 122.135 75.4514 122.552 72.7083 122.552C69.5833 122.552 66.6493 122.066 63.9063 121.094C61.1285 120.122 58.559 118.767 56.1979 117.031C53.8368 115.295 51.7188 113.264 49.8437 110.938C48.0035 108.646 46.4062 106.146 45.0521 103.438C43.7326 100.764 42.7257 97.9861 42.0312 95.1042C41.3368 92.2222 40.9896 89.3229 40.9896 86.4063C40.9896 82.934 41.5451 79.5313 42.6562 76.1979C43.8021 72.8299 45.3125 69.7049 47.1875 66.8229C47.6736 70.1215 48.6285 73.1944 50.0521 76.0417C51.4757 78.8889 53.2465 81.4931 55.3646 83.8542C57.4479 86.2153 59.8438 88.316 62.5521 90.1563C65.2604 92.0313 68.1076 93.5938 71.0938 94.8438C74.0799 96.0938 77.1528 97.066 80.3125 97.7604C83.5069 98.4549 86.6319 98.8021 89.6875 98.8021C93.5764 98.8021 97.3611 98.3854 101.042 97.5521C104.722 96.7535 108.299 95.5035 111.771 93.8021L112.813 93.2813L113.854 93.0208ZM33.125 86.4063C33.125 90.2257 33.5938 93.9583 34.5313 97.6042C35.4688 101.285 36.8229 104.809 38.5938 108.177C40.3646 111.51 42.5174 114.583 45.0521 117.396C47.6215 120.243 50.5035 122.674 53.6979 124.688C48.5938 123.993 43.7326 122.708 39.1146 120.833C34.4965 118.924 30.191 116.545 26.1979 113.698C22.2049 110.816 18.5938 107.517 15.3646 103.802C12.1701 100.087 9.42708 96.0417 7.13542 91.6667C4.84375 87.2917 3.09028 82.6736 1.875 77.8125C0.625 72.9514 0 67.9514 0 62.8125C0 60 0.555556 57.4132 1.66667 55.0521C2.74306 52.691 4.18403 50.5556 5.98958 48.6458C7.82986 46.7361 9.91319 45.0694 12.2396 43.6458C14.5312 42.2569 16.875 41.1111 19.2708 40.2083C21.8403 39.2708 24.4444 38.5938 27.0833 38.1771C29.7917 37.7604 32.4826 37.5521 35.1563 37.5521C37.5868 37.5521 40.0521 37.7257 42.5521 38.0729C45.0521 38.4896 47.4826 39.0972 49.8437 39.8958C52.2049 40.6944 54.4965 41.684 56.7188 42.8646C58.9063 44.0799 60.9201 45.5208 62.7604 47.1875C61.5451 47.1875 60.3299 47.309 59.1146 47.5521C57.9688 47.7951 56.8403 48.1944 55.7292 48.75V48.6458C53.5417 49.6181 51.4583 50.9028 49.4792 52.5C47.5 54.0972 45.6771 55.9028 44.0104 57.9167C42.3438 59.9306 40.8333 62.1181 39.4792 64.4792C38.1597 66.8056 37.0313 69.2188 36.0938 71.7188C35.1563 74.184 34.4271 76.684 33.9063 79.2188C33.3854 81.7188 33.125 84.1146 33.125 86.4063ZM62.2917 0.3125C68.1944 0.3125 73.9757 0.989583 79.6354 2.34375C85.2951 3.66319 90.625 5.65972 95.625 8.33333C100.59 11.0069 105.139 14.3576 109.271 18.3854C113.368 22.4132 116.806 27.1007 119.583 32.4479C121.285 35.7118 122.604 39.1146 123.542 42.6562C124.514 46.1285 125 49.7396 125 53.4896C125 56.5799 124.601 59.5313 123.802 62.3438C122.969 65.1215 121.771 67.691 120.208 70.0521C118.646 72.4132 116.736 74.5313 114.479 76.4063C112.257 78.2465 109.74 79.7743 106.927 80.9896C105.052 81.8229 103.125 82.4479 101.146 82.8646C99.1319 83.316 97.1181 83.5417 95.1042 83.5417C93.6458 83.5417 91.9618 83.4896 90.0521 83.3854C88.1771 83.2813 86.2674 83.0729 84.3229 82.7604C82.4132 82.4132 80.5903 81.9271 78.8542 81.3021C77.1181 80.6424 75.6597 79.7743 74.4792 78.6979C74.0625 78.3854 73.6632 77.9687 73.2813 77.4479C72.934 76.8924 72.7604 76.3194 72.7604 75.7292C72.7604 75.2083 73.0382 74.6007 73.5938 73.9062C74.1493 73.2118 74.7569 72.3437 75.4167 71.3021C76.1111 70.3299 76.7361 69.1493 77.2917 67.7604C77.8472 66.3715 78.125 64.7222 78.125 62.8125C78.125 59.1319 77.4306 55.7292 76.0417 52.6042C74.6528 49.4444 72.8125 46.5972 70.5208 44.0625C68.2292 41.4931 65.5903 39.2708 62.6042 37.3958C59.6181 35.4861 56.5104 33.941 53.2812 32.7604C50.3646 31.7188 47.3785 30.9549 44.3229 30.4688C41.3021 29.9826 38.2465 29.7396 35.1563 29.7396C29.7743 29.7396 24.4618 30.5208 19.2188 32.0833C13.9757 33.6458 9.20139 36.059 4.89583 39.3229C7.36111 33.2813 10.5035 27.8472 14.3229 23.0208C18.1424 18.2292 22.5174 14.1493 27.4479 10.7813C32.3438 7.41319 37.7257 4.82639 43.5938 3.02083C49.4965 1.21528 55.7118 0.3125 62.2396 0.3125H62.2917Z" fill="currentColor"/>
</svg>
