<svg width="125" height="125" viewBox="0 0 125 125" fill="none" xmlns="http://www.w3.org/2000/svg">
<path d="M37.7969 47.5625L61.5417 33.8542C61.8332 33.6864 62.1637 33.5982 62.5 33.5982C62.8363 33.5982 63.1668 33.6864 63.4583 33.8542L87.2031 47.5625C87.4951 47.7317 87.7374 47.9748 87.9057 48.2674C88.0739 48.56 88.1621 48.8917 88.1614 49.2292V76.6406C88.1607 76.9771 88.0718 77.3076 87.9037 77.599C87.7355 77.8905 87.494 78.1329 87.2031 78.3021L63.4583 92.0104C63.1668 92.1781 62.8363 92.2664 62.5 92.2664C62.1637 92.2664 61.8332 92.1781 61.5417 92.0104L37.7969 78.3021C37.5049 78.1329 37.2626 77.8898 37.0943 77.5972C36.9261 77.3046 36.8379 76.9729 36.8385 76.6354V49.2292C36.8384 48.8918 36.9268 48.5603 37.095 48.2678C37.2632 47.9753 37.5052 47.7321 37.7969 47.5625ZM124.229 60.0521L95.8646 10.7031C94.8333 8.91666 92.9271 7.59895 90.8646 7.59895H34.1406C32.0781 7.59895 30.1719 8.91666 29.1406 10.7031L0.776034 59.9427C0.270469 60.8288 0.00457764 61.8314 0.00457764 62.8516C0.00457764 63.8717 0.270469 64.8743 0.776034 65.7604L29.1458 114.708C30.1719 116.49 32.0781 117.401 34.1406 117.401H90.875C92.9323 117.401 94.8333 116.516 95.8698 114.734L124.234 65.7083C124.74 64.8515 125.006 63.8749 125.006 62.8802C125.006 61.8855 124.74 60.9089 124.234 60.0521M100.745 83.7813C100.735 84.1415 100.632 84.4931 100.446 84.8017C100.26 85.1102 99.9965 85.3652 99.6823 85.5417L63.5417 106.385C63.2308 106.563 62.8789 106.657 62.5208 106.657C62.1628 106.657 61.8109 106.563 61.5 106.385L25.3385 85.5417C25.0233 85.3659 24.7592 85.1112 24.572 84.8026C24.3848 84.494 24.2811 84.142 24.2708 83.7813V42.0833C24.2708 41.3542 24.7031 40.6823 25.3333 40.3229L61.4583 19.4792C62.0833 19.1146 62.875 19.1146 63.5 19.4792L99.6615 40.3281C99.9776 40.5033 100.243 40.7577 100.431 41.0663C100.619 41.375 100.724 41.7272 100.734 42.0885L100.745 83.7813Z" fill="currentColor"/>
</svg>
