<svg width="125" height="125" viewBox="0 0 125 125" fill="none" xmlns="http://www.w3.org/2000/svg">
<path d="M125.37 97.8391C120.81 98.9991 117.99 97.8891 115.46 94.0891C109.78 85.5791 103.51 77.4591 97.46 69.1891C96.68 68.1191 95.87 67.0691 94.86 65.7391C87.7 75.3991 80.55 84.5991 73.84 94.1691C71.44 97.5891 68.92 99.0791 64.44 97.8691L91.36 61.7391L66.3 29.1091C70.61 28.2691 73.59 28.6991 76.23 32.5591C82.06 41.0791 88.49 49.1891 94.9 57.7691C101.35 49.2191 107.7 41.0991 113.7 32.6591C116.11 29.2391 118.7 27.9391 123.03 29.1991C119.75 33.5491 116.54 37.8291 113.31 42.0791C108.95 47.8091 104.67 53.6091 100.15 59.2191C98.54 61.2191 98.8 62.5191 100.24 64.4091C108.6 75.3991 116.86 86.4991 125.37 97.8391Z M0.0300001 61.1391C0.75 57.5291 1.23 53.8491 2.23 50.3091C8.23 28.8791 32.83 19.9691 49.73 33.2491C59.63 41.0391 62.09 52.0191 61.6 64.3991H5.8C4.96 86.6091 20.95 100.019 41.33 93.1791C48.48 90.7791 52.69 85.1791 54.8 78.1791C55.87 74.6691 57.64 74.1191 60.94 75.1191C59.25 83.8791 55.42 91.1991 47.42 95.7791C35.42 102.639 18.29 100.419 9.28 90.8891C3.96 85.2891 1.7 78.3191 0.7 70.7891C0.55 69.5891 0.24 68.4091 0 67.2191C0.02 65.1924 0.0300001 63.1658 0.0300001 61.1391ZM5.9 59.6491H56.33C56 43.5891 46 32.1791 32.33 32.0791C17.33 31.9591 6.55 43.0991 5.9 59.6491Z" fill="currentColor"/>
</svg>
