<svg width="125" height="125" viewBox="0 0 125 125" fill="none" xmlns="http://www.w3.org/2000/svg">
<path d="M47.401 123.391V81.8281H34.5156V62.7292H47.401V54.5C47.401 33.224 57.026 23.3646 77.9115 23.3646C80 23.3646 82.8854 23.5833 85.5573 23.901C87.5586 24.107 89.5439 24.4463 91.5 24.9167V42.2344C90.3691 42.1289 89.2346 42.0664 88.099 42.0469C86.8267 42.0139 85.554 41.9982 84.2812 42C80.599 42 77.724 42.5 75.5573 43.6094C74.1007 44.3402 72.8762 45.4619 72.0208 46.849C70.6771 49.0365 70.0729 52.0313 70.0729 55.974V62.7292H90.4844L88.474 73.6823L86.9792 81.8281H70.0729V124.771C101.021 121.031 125 94.6823 125 62.7292C125 28.2135 97.0156 0.229172 62.5 0.229172C27.9844 0.229172 0 28.2135 0 62.7292C0 92.0417 20.1771 116.635 47.401 123.391Z" fill="currentColor"/>
</svg>
