<svg width="125" height="125" viewBox="0 0 125 125" fill="none" xmlns="http://www.w3.org/2000/svg">
<path d="M62.6667 62.5C62.6667 56.9747 64.8616 51.6756 68.7686 47.7686C72.6756 43.8616 77.9747 41.6667 83.5 41.6667C89.0253 41.6667 94.3244 43.8616 98.2314 47.7686C102.138 51.6756 104.333 56.9747 104.333 62.5C104.333 68.0253 102.138 73.3244 98.2314 77.2314C94.3244 81.1384 89.0253 83.3333 83.5 83.3333C77.9747 83.3333 72.6756 81.1384 68.7686 77.2314C64.8616 73.3244 62.6667 68.0253 62.6667 62.5ZM21 104.167C21 98.6413 23.1949 93.3423 27.1019 89.4353C31.0089 85.5283 36.308 83.3333 41.8333 83.3333H62.6667V104.167C62.6667 109.692 60.4717 114.991 56.5647 118.898C52.6577 122.805 47.3587 125 41.8333 125C36.308 125 31.0089 122.805 27.1019 118.898C23.1949 114.991 21 109.692 21 104.167ZM62.6667 0V41.6667H83.5C89.0253 41.6667 94.3244 39.4717 98.2314 35.5647C102.138 31.6577 104.333 26.3587 104.333 20.8333C104.333 15.308 102.138 10.009 98.2314 6.10194C94.3244 2.19493 89.0253 0 83.5 0L62.6667 0ZM21 20.8333C21 26.3587 23.1949 31.6577 27.1019 35.5647C31.0089 39.4717 36.308 41.6667 41.8333 41.6667H62.6667V0H41.8333C36.308 0 31.0089 2.19493 27.1019 6.10194C23.1949 10.009 21 15.308 21 20.8333V20.8333ZM21 62.5C21 68.0253 23.1949 73.3244 27.1019 77.2314C31.0089 81.1384 36.308 83.3333 41.8333 83.3333H62.6667V41.6667H41.8333C36.308 41.6667 31.0089 43.8616 27.1019 47.7686C23.1949 51.6756 21 56.9747 21 62.5V62.5Z" fill="currentColor"/>
</svg>
