<svg width="125" height="125" viewBox="0 0 125 125" fill="none" xmlns="http://www.w3.org/2000/svg">
<path d="M82.5625 46.776H58.6667V0H82.5625C95.4583 0 105.948 10.4896 105.948 23.3854C105.948 36.2813 95.4583 46.776 82.5625 46.776ZM66.3281 39.1146H82.5625C91.2344 39.1146 98.2865 32.0573 98.2865 23.3906C98.2865 14.724 91.2292 7.66667 82.5625 7.66667H66.3281V39.1146ZM66.3281 46.776H42.4375C29.5417 46.776 19.0521 36.2865 19.0521 23.3906C19.0521 10.4948 29.5417 0 42.4375 0H66.3333V46.776H66.3281ZM42.4375 7.66146C33.7656 7.66146 26.7135 14.7187 26.7135 23.3854C26.7135 32.0521 33.7656 39.1146 42.4375 39.1146H58.6719V7.66146H42.4375ZM66.3281 85.8854H42.4375C29.5417 85.8854 19.0521 75.3958 19.0521 62.5C19.0521 49.6042 29.5417 39.1146 42.4375 39.1146H66.3333V85.8854H66.3281ZM42.4375 46.776C33.7656 46.776 26.7135 53.8333 26.7135 62.5C26.7135 71.1667 33.7708 78.224 42.4375 78.224H58.6719V46.776H42.4375ZM42.5625 125C29.599 125 19.0469 114.51 19.0469 101.615C19.0469 88.7188 29.5365 78.2292 42.4323 78.2292H66.3281V101.359C66.3281 114.396 55.6667 125 42.5625 125ZM42.4375 85.8854C38.2689 85.8909 34.2727 87.5493 31.3251 90.497C28.3774 93.4446 26.7191 97.4408 26.7135 101.609C26.7135 110.281 33.8229 117.333 42.5677 117.333C51.4479 117.333 58.6771 110.167 58.6771 101.354V85.8854H42.4375ZM82.5625 85.8854H82.0521C69.1563 85.8854 58.6667 75.3958 58.6667 62.5C58.6667 49.6042 69.1563 39.1146 82.0521 39.1146H82.5625C95.4583 39.1146 105.948 49.6042 105.948 62.5C105.948 75.3958 95.4583 85.8854 82.5625 85.8854ZM82.0573 46.776C73.3854 46.776 66.3333 53.8333 66.3333 62.5C66.3333 71.1667 73.3906 78.224 82.0573 78.224H82.5677C91.2396 78.224 98.2917 71.1667 98.2917 62.5C98.2917 53.8333 91.2292 46.776 82.5625 46.776H82.0573Z" fill="currentColor"/>
</svg>
