<svg width="125" height="125" viewBox="0 0 125 125" fill="none" xmlns="http://www.w3.org/2000/svg">
<path d="M20.9604 81.6308L33.1368 2.39927C33.225 1.81195 33.494 1.26773 33.9057 0.844075C34.3173 0.420423 34.8506 0.138934 35.4295 0.0396829C36.0085 -0.0595687 36.6036 0.0284749 37.1303 0.29128C37.6569 0.554085 38.0882 0.978256 38.3626 1.50341L51.4555 26.3531L20.9604 81.6308ZM107.431 100.855L95.8363 27.9417C95.751 27.4306 95.5286 26.9531 95.1933 26.5612C94.858 26.1693 94.4227 25.8782 93.9349 25.7197C93.4471 25.5611 92.9257 25.5412 92.4275 25.6621C91.9293 25.783 91.4735 26.04 91.1099 26.4052L18 100.855L58.4524 123.918C59.7 124.628 61.1069 125 62.5378 125C63.9688 125 65.3757 124.628 66.6232 123.918L107.431 100.855ZM74.5572 37.2284L65.1868 19.0925C64.9503 18.6364 64.5951 18.2544 64.1595 17.9879C63.7239 17.7214 63.2245 17.5806 62.7154 17.5806C62.2064 17.5806 61.707 17.7214 61.2714 17.9879C60.8358 18.2544 60.4806 18.6364 60.2441 19.0925L19.1069 93.6676L74.5572 37.2284Z" fill="currentColor"/>
</svg>
