<svg width="125" height="125" viewBox="0 0 125 125" fill="none" xmlns="http://www.w3.org/2000/svg">
<path d="M46.0009 37.9531C46.0427 37.9531 46.0218 37.9531 46.0009 37.9531ZM31.4 30.6615C31.4313 30.6615 31.4157 30.6615 31.4 30.6615ZM118.766 41.9167C116.132 35.5885 110.787 28.75 106.6 26.5885C110.01 33.2708 111.987 39.974 112.738 44.974L112.748 45.0781C105.896 28.0052 94.2674 21.1198 84.7664 6.13542C84.2919 5.36979 83.8069 4.61458 83.3428 3.8125C83.1009 3.40468 82.8747 2.9877 82.6649 2.5625C82.2739 1.80133 81.9729 0.997313 81.768 0.166667C81.7682 0.127797 81.7539 0.09025 81.7278 0.0613579C81.7018 0.0324658 81.6659 0.0143032 81.6272 0.0104167C81.5914 0.000142655 81.5535 0.000142655 81.5177 0.0104167L81.4864 0.015625C81.4678 0.0216173 81.4502 0.0303981 81.4343 0.0416667L81.4603 0C67.9805 7.89063 62.3905 21.7083 60.9565 30.5C56.7898 30.7343 52.7081 31.7726 48.9368 33.5573C48.5928 33.7267 48.3239 34.0176 48.1823 34.3736C48.0407 34.7296 48.0364 35.1254 48.1702 35.4844C48.4674 36.3281 49.4217 36.7344 50.2352 36.3698C53.5261 34.8208 57.0769 33.897 60.7062 33.6458L61.0555 33.6198C64.4982 33.4261 67.9488 33.817 71.2605 34.776L71.7559 34.9323C72.8482 35.2674 73.9206 35.6638 74.9681 36.1198C75.3853 36.3073 75.8025 36.5 76.2092 36.7031L76.7672 36.9896C77.42 37.3326 78.06 37.6991 78.6861 38.0885C83.0795 40.8029 86.7252 44.5695 89.2927 49.0469C86.0596 46.7708 80.2557 44.526 74.6761 45.5C96.4888 56.3854 90.6328 93.8958 60.4037 92.4792C57.7124 92.3692 55.0529 91.8565 52.514 90.9583C51.5531 90.618 50.6159 90.2143 49.7085 89.75C42.3038 85.9219 36.187 78.7031 35.4205 69.9271C35.4205 69.9271 38.2207 59.5104 55.4707 59.5104C57.3323 59.5104 62.6668 54.3125 62.7607 52.8073C62.7346 52.3125 52.1803 48.1198 48.0711 44.0729C45.8706 41.9063 44.8276 40.8646 43.8994 40.0781C43.3981 39.6559 42.8741 39.2612 42.3298 38.8958C40.9488 34.0657 40.8912 28.9538 42.163 24.0938C35.9315 26.9271 31.0871 31.401 27.562 35.3594H27.5308C25.132 32.3177 25.2989 22.2865 25.4345 20.1875C25.4032 20.0573 23.6459 21.1042 23.406 21.2604C21.2889 22.7708 19.3021 24.4688 17.4822 26.3333C15.412 28.4323 13.5191 30.7031 11.8243 33.1198C7.92392 38.6338 5.15558 44.8648 3.67911 51.4531C3.66346 51.5208 3.1055 53.9896 2.68833 57.0417C2.62054 57.5104 2.55275 57.9844 2.49539 58.4583C2.32565 59.6106 2.2056 60.7697 2.13558 61.9323L2.12515 62.1094L2.00521 64.125L2 64.4375C2 97.8906 29.1525 125 62.646 125C92.6405 125 117.54 103.25 122.421 74.6823C122.525 73.9063 122.604 73.1302 122.692 72.349C123.902 61.9635 122.562 51.0469 118.766 41.9115V41.9167Z" fill="currentColor"/>
</svg>
