<svg width="125" height="125" viewBox="0 0 125 125" fill="none" xmlns="http://www.w3.org/2000/svg">
<path d="M37.3542 106.042C32.5938 102.292 27.5104 98.6979 24.0417 93.6458C16.7396 84.7292 11.1146 74.4062 7.27084 63.5573C4.94793 56.5 4.14584 48.9323 1.15626 42.151C-1.97916 37.2344 1.69272 31.849 7.08334 30.276C9.47918 29.8229 13.7083 27.5573 8.60939 29.1771C4.03647 32.5312 3.59376 26.1302 8.28126 25.7292C11.4844 25.3021 12.6563 22.6823 11.5625 20.3281C8.12501 18.0885 19.8958 15.625 13.974 12.2865C7.81251 5.62499 22.6042 4.34895 18.9583 11.901C18.0886 17.7083 29.2917 10.8333 26.6927 17.5417C29.3333 20.7656 36.5886 18.2708 36.4063 22.7969C40.2604 23.0573 41.5781 26.2969 45.1927 26.5469C48.9427 28.2396 55.724 29.5677 56.9948 33.7865C53.2813 36.7344 44.6823 27.7187 44.2708 35.8594C45.3906 47.8906 45.1042 60.2812 49.5 71.7344C51.5833 78.6719 56.6354 84.1302 61.1875 89.5365C65.5469 94.8281 71.4531 98.5469 77.474 101.687C82.7552 104.177 88.4479 105.828 94.2083 106.865C96.5417 105.078 100.667 98.4427 104.302 101.24C104.474 104.385 97.0729 107.818 103.953 107.469C107.995 106.25 110.797 110.594 114.125 106.677C117.188 110.307 126.865 104.354 124.682 111.781C121.734 113.677 117.432 112.531 114.479 115.146C109.609 112.714 105.729 117.323 100.339 116.74C94.3461 117.775 88.274 118.281 82.1927 118.25C72.2344 117.469 62.0625 117.135 52.5886 113.667C47.2552 112.12 42.0469 109.078 37.3542 106.042ZM45.7656 109.687C50.974 111.937 56.0677 114.312 61.7761 115.031C70.8386 116.281 80.1979 118.229 89.2917 116.458C85.1771 114.599 80.9167 117.187 76.8177 115.13C71.9011 116.187 66.625 114.859 61.625 114.208C55.9375 111.677 49.8021 109.937 44.4844 106.646C37.8333 104.219 47.9219 109.76 49.7188 110.214C53.875 112.573 45.1511 109 43.9167 108.021C40.4375 106.068 39.9896 106.474 43.5729 108.458C44.2969 108.875 45.0104 109.323 45.7604 109.682L45.7656 109.687ZM35.849 102.677C40.9011 104.547 35.8281 99.125 33.5052 99.4375C32.4844 97.6614 29.5938 96.5364 31.6302 95.5833C27.9636 96.8542 27.7917 90.7396 26.0573 91.6094C22.1823 90.3854 24.5469 86.0365 19.9323 83.3802C19.5104 80.5677 15.3386 78.1302 14.0052 73.8906C13.4167 71.724 9.29168 65.4896 11.8281 71.2865C13.9844 76.8698 17.7813 81.651 20.9427 86.4271C23.3906 90.9739 26.2917 95.7292 30.7604 98.5625C32.2708 100.01 33.7188 102.224 35.849 102.677ZM21.3021 86.7031C22.224 88.3542 21.474 85.9427 21.3021 86.7031ZM41.8958 104.917C43.0156 104.417 40.2813 104.292 41.8958 104.917ZM44.6354 105.917C44.3542 104.536 43.3854 106.687 44.6354 105.917ZM48.0729 107.349C49.6979 105.786 45.5521 106.37 48.0729 107.349ZM53.9427 110.63C54.9375 109.161 50.7656 110.073 53.9427 110.63ZM42.6563 102.75C45.1927 101.109 39.375 102.729 42.6563 102.75ZM45.2292 104.031C45.1563 103.167 44.3125 104.422 45.2292 104.031ZM58.0938 112.062C60.1615 113.365 70.1771 114.927 63.9011 112.599C62.8594 112.818 52.2865 109.609 58.0886 112.062H58.0938ZM37.6719 96.1562C37.4636 95.2864 34.4636 95.1927 37.6719 96.1562ZM43.6615 99.6458C45.224 98.5521 40.4271 98.8125 43.6615 99.6458ZM48.6927 102.734C50.9323 101.891 45.0677 101.885 48.6927 102.734ZM35.2344 93.5C37.6615 95.3646 45.0261 93.7396 38.9531 92.3906C36.1927 90.9167 29.9583 89.9115 34.2031 93.276L35.2344 93.5ZM52.1094 103.802C53.1146 102.083 47.8646 102.812 52.1094 103.802ZM46.9844 99.7239C52.9219 101.406 41.9948 95.9739 45.5208 99.1094L46.3021 99.4635L46.9844 99.7239ZM57.2604 105.661C62.8854 105.714 52.1823 104.896 57.2604 105.661ZM33.0729 90.2448C32.8542 89.2031 31.6875 90.3385 33.0729 90.2448ZM66.7708 111C66.9167 109.109 64.9323 112.406 66.7708 111ZM42.6563 96.125C42.3229 95.1302 40.9063 96.0833 42.6563 96.125ZM33.6042 89.5937C36.8333 89.401 29.1875 88.1719 33.6042 89.5937ZM22.875 82.6562C22.474 81.1094 19.3646 79.875 22.875 82.6562ZM51.0365 100.547C50.7552 100.693 50.4427 99.8698 51.0365 100.547ZM68.5677 111.302C68.5156 110.276 67.6146 111.693 68.5677 111.302ZM49.4844 98.9427C49.7969 97.6146 46.7344 98.5417 49.4844 98.9427ZM36.4323 90.651C38.8281 90.3906 32.5781 89.0312 36.4323 90.651ZM58.5208 104.385C62.2604 102.901 54.875 103.656 58.5208 104.385ZM47.0313 96.5885C51.3386 97.1406 41.9011 93.6562 46.0886 96.276L47.0313 96.5885ZM62.0104 105.797C66.0365 103.391 64.7083 111.432 68.8386 106.474C72.9115 103.505 65.3229 110.156 70.349 107.01C73.974 104.578 79.3386 108.156 82.724 109.328C85.1615 109.208 87.5313 111.437 90.0313 110.083C94.8385 108.781 80.625 108.156 84.3542 105.865C79.9531 107.141 76.6979 104.333 74.5365 101.516C69.599 100.37 63.8906 97.8542 61.4271 93.4844C60.4271 91.8437 62.8854 93.7135 60.5625 91.0365C57.5938 88.3906 56.1042 85.3854 54.1042 82.1719C51.724 80.901 51.4479 77.1562 51.2031 82.0469C51.224 78.9583 48.3229 76.8802 47.6198 77.7448C47.6094 74.7708 50.7188 76.2604 48.5365 74.0625C48.0677 70.9792 46.5261 67.7604 46.0625 64.2865C45.3438 62.6094 45.9583 59.0208 43.599 62.8177C42.7396 66.8281 43.3125 57.8854 44.6511 60.8385C46.4063 57.8177 44.026 58.1823 43.9219 58.599C45.0677 56.0573 44.6511 52.4531 43.625 53.8281C44.2344 51.1354 44.5886 43.9219 42.7136 45.2031C43.849 42.3906 44.8698 32.3229 39.9323 36.1615C37.9323 36.1875 34.474 36.8906 32.8333 37.7031C37.9688 40.5312 32.3125 38.724 30.2292 38.276C29.9583 40.8906 27.8854 39.7604 25.3021 39.7865C29.4323 40.2969 23.2917 44.0052 20.9219 42.5677C17.849 44.0365 23.5781 47.7083 20.9844 48.8437C21.2969 50.5521 16.2708 48.2187 16.6615 52.1771C13.6771 50.9219 16.2552 56.8646 17.75 54.8542C22.8281 56.2292 21.3229 59.3646 21.4479 62.3385C20.625 64.0729 17.3646 58.2604 20.7188 58.5312C18.0781 54.224 17.7969 56.9687 15.5938 58.974C15.0729 59.1198 21.2136 61.8229 17.3646 63.1562C20.75 63.6771 20.8438 66.6458 21.5313 68.5208C23.5625 70.6406 23.1458 66.1771 25.5886 68.7292C24.0469 66.4583 17.4271 62.3333 22.7552 63.6562C22.7292 61.3646 21.7917 59.526 23.4271 59.5729C25.0417 56.6458 21.7344 66.7969 25.3802 63.0729C26.3854 62.6302 26.6302 60.1406 28.4531 63.3073C31.0833 65.901 29.4011 67.776 25.6875 65.4062C26.349 67.6614 30.6563 68.4635 29.849 71.9948C30.7083 75.0937 31.9063 73.9531 32.9531 73.776C33.7761 76.7865 34.2396 74.5729 34.2813 73.1354C38.0313 73.9427 37.1563 76.1562 38.3333 77.7187C40.9219 78.8854 34.625 69.7917 39.0729 74.9792C43.75 79.1979 40.8281 80.9687 36.625 80.2917C39.2813 80.0781 40.1406 83.8854 43.4636 83.75C46.4948 85.1927 48.5417 90.7292 43.3229 88.4219C41.5104 86.7917 35.0938 84.776 40.3386 87.8802C45.1771 90.1198 49.0104 91.4635 53.6771 94.2708C57.0104 96.6562 58.4583 99.3854 59.7188 99.9271C56.9167 101.266 51.2656 98.8542 55.4636 98.1146C52.8438 97.6406 49.9011 96.3177 52.4063 99.5729C54.5417 101.359 59.9583 101.167 60.9323 101.37C60.1042 103.182 58.6927 103.328 60.9636 103.469C58.4323 104.823 61.7761 105.026 62.0104 105.797ZM56.8333 91.1719C55.2917 89.5573 54.8906 86.5365 56.5573 89.1667C57.4115 89.5104 59.2917 94.0989 56.8333 91.1719ZM73.6979 101.885C74.6615 101.828 73.7292 102.615 73.6979 101.885ZM54.3958 87.2187C54.9531 89.0937 54.3438 84.7812 54.3958 87.2187ZM52.7188 84.9635C55.1667 86.026 50.7813 81.2135 52.7188 84.9635ZM32.4063 70.9427C33.5469 70.6302 32.9688 72.8906 32.4063 70.9427ZM48.5729 79.7031C49.3958 81.9115 49.2708 77.0781 48.5729 79.7031ZM37.1563 71.7604C38.8386 73.1146 36.349 70.3125 37.1563 71.7604ZM46.9583 74.9062C45.125 70.7917 48.2604 72.6562 47.3646 75.5833L46.9583 74.9062ZM30.0521 63.6302C29.2292 62.276 27.875 58.3177 28.3125 57.1094C28.7083 59.0781 32.5 65.5833 30.1719 59.8073C27.599 54.9635 33.2448 61.3802 33.8281 62.5885C34.0886 63.7865 32.2396 62.2604 33.4948 65.0781C31.2031 61.8646 32.1406 66.849 30.0521 63.6302ZM24.8281 60.0312C26.0261 62.1823 25.0365 56.8906 24.8281 60.0312ZM27.1719 60.8385C29.0781 64.1406 28.2969 58.4687 27.1719 60.8385ZM21.5261 56.4635C19.5781 54.5365 18.1719 52.75 21.6146 55.2656C22.9427 55.3177 18.6667 51.2135 21.9271 53.9635C25.3646 54.5885 23.6302 59.599 21.5261 56.4635ZM24.4948 56.3854C25.625 55.2656 25.0938 57.4896 24.4948 56.3854ZM26.3177 56.974C28.4011 58.3177 24.6094 53.7604 26.3177 56.974ZM22.6875 53.5C17.0313 48.4687 29.7969 56.1354 23.6094 54.4375L22.6875 53.5ZM38.8854 62.9167C36.4375 61.4479 38.2448 52.5833 39.0781 58.6458C41.4583 57.875 38.9479 61.7708 40.7188 61.7396C40.4427 64.2031 39.6458 65.0885 38.8958 62.9167H38.8854ZM44.875 66.4583C45.3906 68.2812 45.125 63.7865 44.875 66.4583ZM43.8333 65.4271C44.1146 64.2812 43.8698 66.7708 43.8333 65.4271ZM23.8021 51.849C20.1719 46.8333 34.3594 56.9167 26.1302 53.1198C25.2708 52.8958 24.2344 52.8073 23.8021 51.849ZM35.3438 57.9687C36.1094 58.6667 35 53.75 35.3438 57.9687ZM44.1042 63.5885C44.7813 61.1823 44.1563 65.1771 44.1042 63.5885ZM24.3542 49.9323C26.5156 49.474 33.3021 53.7292 27.0625 51.151C26.375 50.3802 24.8958 50.7344 24.3542 49.9323ZM42.8958 59.1771C43.125 54.8542 44.1875 56.599 42.9063 59.7917L42.8958 59.1771ZM25.9636 48.4323C26.8438 47.1406 23.6198 42.599 26.4271 46.8021C27.6354 47.7656 29.9271 48.4167 27.9011 48.8177C31.0781 51.625 27.1198 49.5781 25.9636 48.4323ZM41.9792 57.8281C42.5886 52.9115 42.5156 60.7083 41.9792 57.8281ZM24.125 43.8906C24.7969 43.6042 24.4792 44.7865 24.125 43.8906ZM28.3021 46.3802C30.2813 48.8958 29.375 44.1198 28.3021 46.3802ZM40.0886 52.9375C40.3125 54.1979 40.0781 52.0677 40.0886 52.9375ZM39.4063 51.4271C40.9271 53.5625 37.7708 47.3854 39.4063 51.4271ZM38.4011 48.7708C39.3386 50.875 38.125 47.1042 38.4011 48.7708ZM40.0365 46.1146C38.9115 44.1354 41.4531 37.401 41.7344 41.5833C40.5521 44.8385 41.3958 46.6615 42.2188 42.2917C43.7448 38.8542 41.8906 49.0781 40.0313 46.1198L40.0365 46.1146ZM41.7136 36.099C42.2031 35.5 41.8177 36.8229 41.7136 36.099ZM38.9063 91.375C38.9896 91.7396 38.2396 90.7969 38.9063 91.375ZM44.6875 94.2917C47.8906 95.125 47.875 93.7969 44.974 93.4062C43.4115 91.9479 38.4844 90.4115 42.8906 93.224C43.1875 93.9635 44.1146 93.9479 44.6823 94.2969L44.6875 94.2917ZM33.2761 86.7187C35.0469 88.0364 39.9427 90.4635 35.7969 87.2187C37.1979 85.5937 33.1198 84.7292 34.474 83.6458C31.0365 81.5417 31.7656 81.7292 34.1719 81.7917C30.0365 79.9479 34.7656 80.0833 34.5365 79.1354C32.9479 78.8229 26.6198 76.3229 30.349 79.3437C26.5677 77.4167 29.4479 80.0625 28.3073 79.7812C24.4375 78.7292 31.7448 82.724 27.6927 81.7344C29.9063 83.4896 33.6615 86.2344 28.6302 83.5937C27.9636 84.5469 32.224 85.9896 33.2761 86.7187ZM39.3177 90.1927C46.6615 92.5573 35.7188 87.2969 39.3177 90.1927ZM70.2552 108.932C70.3594 107.474 69.25 110.182 70.2552 108.932ZM73.4375 110.271C75.1302 108.63 73.5052 112.891 76.25 109.87C76.2761 107.708 76.1615 106.432 73.0938 109.057C72.25 109.526 71.875 111.521 73.4375 110.271ZM22.9583 78.5677C22.4375 76.5208 19.3125 76.5365 22.9583 78.5677ZM26.3542 80.7969C25.0938 78.7031 21.8542 78.901 26.3542 80.7969ZM45.6771 92.4479C47.5625 94.1146 54.3333 93.6771 47.9688 92.6562C47.0208 91.25 41.974 91.5937 45.6771 92.4479ZM72.224 108.849C75.1302 106.411 69.4115 109.932 72.224 108.849ZM78.2656 112.995C78.2813 112.214 77.0156 113.339 78.2656 112.995ZM78.2708 111.901C81.4844 108.495 75.1563 112.104 78.2708 111.901ZM14.6094 71.5781C11.8698 67.6719 12.9063 65.9115 10.2604 62.724C9.76043 60.276 5.72918 54.7396 8.1771 60.6094C10.4167 64.0417 11.0833 69.3542 14.6094 71.5781ZM77.2656 110.818C83.1771 106.995 74.8386 109.151 77.2656 110.818ZM81.7761 112.589C84.7448 110.047 79.9011 112.057 81.7761 112.589ZM21.9531 74.2448C22.8021 72.9844 19.7656 74.0833 21.9531 74.2448ZM80.8333 111.375C83.7031 109.526 80.1771 109.812 80.3125 111.542L80.8333 111.375ZM41.9271 86.8437C41.8229 85.5937 40.4115 86.9479 41.9271 86.8437ZM44.3229 88.2344C43.5677 86.6875 43.1563 88.4792 44.3229 88.2344ZM85.4375 112.63C89.1094 109.974 83.2083 112.12 84.6667 113.13L85.4375 112.63ZM84.0313 111.953C87.0208 109.443 80.8698 113.062 84.0313 111.953ZM91.2188 116.734C93.2292 115.391 88.7761 116.302 91.2188 116.734ZM23.8021 73.3333C26.4948 73.9375 34.5625 79.9687 29.8021 73.75C27.3646 73.0312 28.8281 67.0677 26.3386 68.125C28.0052 70.9115 27.7136 72.0989 24.2031 70.3437C19.8021 68.1927 21.7344 71.4062 22.5886 72.2917C21.4219 72.5625 24.1458 73.3125 23.8021 73.3333ZM11.5313 63.6458C12.0104 61.651 7.08855 52.6719 9.20834 59.1458C9.96876 60.5 9.88543 63.0729 11.5313 63.6458ZM34.0521 77.5312C33.9844 77.3646 32.6667 76.3698 34.0521 77.5312ZM37.4688 78.3229C37.4688 76.2135 33.6927 77.4687 37.4688 78.3229ZM67.0573 96.9844C66.4948 95.5365 64.8281 96.9531 67.0573 96.9844ZM68.4792 98.0208C68.2708 97.2135 67.6615 98.1771 68.4792 98.0208ZM80.2083 105.417C81.3333 104.583 78.8021 105.312 80.2083 105.417ZM17.6563 65.2083C20.8854 63.9583 14.1979 64.3229 17.6563 65.2083ZM64.4479 94.6979C64.4115 92.6094 62.3906 95.2187 64.4479 94.6979ZM16.375 62.2448C18.4531 61.5417 14.4636 61.776 16.375 62.2448ZM22.3958 65.1615C22.3594 64.4687 21.7604 65.4219 22.3958 65.1615ZM95.7813 110.161C98.4479 109.62 104.521 111.516 105.5 109.453C102.271 109.375 94.3021 107.172 93.9271 109.974L94.6354 110.094L95.7813 110.161ZM24.3073 65.6406C24.3542 63.5208 22.6563 65.5625 24.3073 65.6406ZM8.48959 54.6615C7.77084 50.625 5.75522 54.0469 8.48959 54.6615ZM12.2604 55.6094C12.3073 54.3073 8.8073 54.4427 12.2604 55.6094ZM14.4167 56.6667C13.9271 57.3021 13.7917 56.1615 14.4167 56.6667ZM27.9844 65.3646C28.6198 64.7812 26.474 64.9323 27.9844 65.3646ZM12.9844 54.2812C12.6198 51.2344 8.60939 53.8229 12.9844 54.2812ZM5.2448 49.2604C5.14064 47.8542 4.4948 49.7917 5.2448 49.2604ZM6.39064 48.3906C6.20834 46.724 5.40105 48.599 6.39064 48.3906ZM12.7448 52.1875C15.4427 51.1302 7.84897 50 12.2031 51.9792L12.7448 52.1875ZM97.8177 104.734C99.5365 103.156 95.6302 104.245 97.8177 104.734ZM108.099 110.062C108.786 108.021 106.359 110.323 108.099 110.062ZM13.4011 48.8542C13.6875 46.875 11.2656 49.2448 13.4011 48.8542ZM4.35939 42.8021C3.87501 40.0156 3.94272 35.125 8.58855 36.7812C2.38543 38.0104 12.8802 44.4896 11.5573 39.375C14.1615 39.5 16.6615 37.8333 15.2865 40.3646C20.4271 39.7917 23.9844 35.3437 28.9531 35.9635C32.8177 35.4531 37.0469 35.0677 41.2136 33.5104C44.6406 33.2604 47.9323 29.5729 46.0573 27.3906C41.3906 26.9948 36.5 27.5781 31.3333 28.6042C25.6146 29.7917 20.4167 32.0521 14.6406 33.026C9.01564 33.7812 15.7708 35.1094 14.1615 35.401C11.224 36.4219 17.6615 37.1094 13.7813 38.1823C11.3854 37.724 8.88543 36.901 9.91147 34.3802C4.52084 35.0729 -0.218739 37.3125 4.04168 42.7969H4.35418L4.35939 42.8021ZM17.349 36.1875C18.6146 31.5312 24.1198 40.0156 19.4219 36.8021C18.8594 36.3854 17.9375 36.0417 17.349 36.1771V36.1875ZM17.5938 33.9271C19.4167 32.5729 18.5625 34.6875 17.5938 33.9271ZM19.9115 33.9687C20.0781 31.8281 25.2136 35.1042 20.7604 34.7396L19.9115 33.9687ZM23.0781 32.6927C24.2344 31.3385 23.4115 33.8906 23.0781 32.6927ZM23.8906 32.151C25.8177 29.8385 34.8021 30.6771 28.224 31.9271C26.4636 30.599 25.1094 32.7083 23.8906 32.151ZM35.6094 30.3437C41.4375 32.5937 35.3229 24.0208 35.6094 30.3437ZM38.9427 30.3229C40.1563 27.1354 43.6615 29.0469 39.5052 29.6823C39.5938 30.0208 39.3802 31.3281 38.9427 30.3229ZM12.0938 47.224C15.724 45 8.23439 45.2969 12.0938 47.224ZM14.7761 47.974C16.0521 46.6198 12.0104 47.4219 14.7761 47.974ZM6.85939 42.3489C8.93751 40.7604 4.40626 41.7448 6.85939 42.3489ZM114.161 109.484C114.224 107.635 112.578 110.318 114.161 109.484ZM103.26 102.036C103.573 99.9114 101.854 102.229 103.26 102.036ZM117.167 110.203C120.068 110.203 125.958 109.302 119.641 109.302C118.651 109.458 113.87 109.427 117.167 110.203ZM17.1354 46.6614C19.4792 46.5052 20.8125 44.0729 16.6823 44.2135C10.2761 43.5521 22.3281 46.401 15.8594 45.5885C14.9896 46.1615 17.0886 46.8229 17.1354 46.6667V46.6614ZM19.2083 47.7135C18.9583 46.2031 18.4792 48.5156 19.2083 47.7135ZM21.6563 41.1667C22.6823 39.901 20.25 40.8281 21.6563 41.1667ZM13.8438 28.1042C18.0417 26.6771 23.7761 25.0781 25.7552 28.8073C23.7396 26.3802 24.9427 23.9948 26.849 27.5417C29.5365 31.1302 30.8854 25.9115 29.1302 24.7031C31.125 27.1823 33.3958 28.349 30.4688 24.8594C33.6458 21.0365 24.099 25.3646 21.9271 25.3177C20.8854 25.7865 11.1354 27.8021 13.8438 28.1042ZM16.3021 23.401C18.6979 21.5937 24.5729 24.474 20.8021 21.6042C20.4375 21.2812 12.5417 23.7812 16.3021 23.401ZM25.0208 23.7604C27.8229 23.8281 23.8177 20 27.1511 21.7292C26.6042 19.9427 23.2656 19.6094 21.6302 18.8958C20.7136 20.5312 23.5104 23.7812 25.0208 23.7604ZM17.8333 15.8437C18.8021 14.5312 16.1354 16.5104 17.8333 15.8437ZM21.3958 16.6979C25.9063 16.099 20.25 14.7552 20.4896 16.6458L21.3958 16.6979ZM14.7448 11.4896C11.5677 7.34375 20.7136 12.1875 17.4896 7.84375C14.7708 5.68229 12.1615 10.2812 14.7448 11.4896ZM55.4948 33.4427C56.9531 30.8594 49.4792 29.9635 54.5156 32.5312C54.9844 32.6875 54.8802 33.625 55.4948 33.4427Z" fill="currentColor"/>
</svg>
