<svg width="125" height="125" viewBox="0 0 125 125" fill="none" xmlns="http://www.w3.org/2000/svg">
<path d="M63.4896 12.3958C52.6139 12.1438 41.9674 15.5428 33.2499 22.0503C24.5323 28.5578 18.2464 37.7984 15.3958 48.2969C15.1094 48.3646 15.6719 48.1927 15.3958 48.2969C-4.78646 61.5833 -5.03125 90.5365 14.1094 105.281L14.1406 105.245L14.1042 105.401C20.2181 110.017 27.6781 112.498 35.3385 112.464H62.2812L62.4375 112.62H89.4792C124.307 112.896 138.312 67.8021 109.453 48.2969C106.968 39.1324 101.861 30.8927 94.7604 24.5885L94.5364 24.8125L94.5677 24.5521C85.9648 16.9639 74.9579 12.6585 63.4896 12.3958ZM61.625 33.9896C68.1042 33.7813 74.7396 35.9063 79.7812 39.9792C82.8836 42.5686 85.3654 45.821 87.0438 49.4969C88.7222 53.1728 89.5544 57.1785 89.4792 61.2188V63.9167C107.865 63.5521 107.865 91.3229 89.4792 90.9636H62.4323L62.3906 91.0104V90.8021H35.3385C33.422 90.8021 31.5275 90.3937 29.7812 89.6042C27.7888 88.702 26.05 87.3301 24.7041 85.606C23.3581 83.882 22.4503 81.8573 22.0585 79.7054C21.6667 77.5536 21.8026 75.3389 22.4545 73.2511C23.1063 71.1633 24.2548 69.2647 25.8014 67.7181C27.348 66.1715 29.2466 65.023 31.3344 64.3711C33.4222 63.7192 35.6369 63.5834 37.7888 63.9752C39.9406 64.367 41.9653 65.2748 43.6893 66.6207C45.4134 67.9667 46.7853 69.7107 47.6875 71.7031L63.3802 56.0156C58.1657 49.2183 50.6476 44.56 42.2396 42.9167C42.3333 42.8646 42.4479 42.7813 42.5208 42.7969C44.9558 40.1253 47.9023 37.9697 51.1857 36.4578C54.469 34.9458 58.0224 34.1083 61.6354 33.9948L61.625 33.9896Z" fill="currentColor"/>
</svg>
