<svg width="125" height="125" viewBox="0 0 125 125" fill="none" xmlns="http://www.w3.org/2000/svg">
<path d="M78.847 62.6803C78.847 65.977 77.8694 69.1997 76.0378 71.9408C74.2063 74.6819 71.6031 76.8183 68.5573 78.0799C65.5116 79.3415 62.1601 79.6715 58.9268 79.0284C55.6934 78.3852 52.7234 76.7977 50.3923 74.4666C48.0612 72.1355 46.4737 69.1655 45.8305 65.9322C45.1874 62.6988 45.5175 59.3474 46.7791 56.3016C48.0407 53.2559 50.1771 50.6526 52.9182 48.8211C55.6593 46.9895 58.8819 46.012 62.1786 46.012C66.5993 46.012 70.839 47.7681 73.9649 50.894C77.0908 54.0199 78.847 58.2596 78.847 62.6803Z M123.891 58.3083L111.406 36.6373H85.9514L100.854 62.5122L81.6845 95.9119L76.9972 104.046L68.8417 118.129H89.5247C90.992 118.121 92.4314 117.728 93.6999 116.99C94.9684 116.253 96.0218 115.196 96.7554 113.926L123.891 66.716C124.61 65.4505 124.988 64.0201 124.988 62.5647C124.988 61.1094 124.61 59.679 123.891 58.4134 M43.3032 95.9119L24.1336 62.5121L11.3958 40.4628L1.09634 58.3082C0.377762 59.5738 0 61.0042 0 62.4596C0 63.9149 0.377762 65.3453 1.09634 66.6109L28.1903 113.946C28.9239 115.217 29.9773 116.274 31.2458 117.011C32.5143 117.749 33.9537 118.142 35.421 118.15H60.2869L73.0456 95.9119H43.3032Z M107.16 29.2385L96.8184 11.2039C96.0848 9.93314 95.0314 8.87652 93.7629 8.13903C92.4944 7.40154 91.055 7.00886 89.5878 7H35.3998C33.9326 7.00886 32.4932 7.40154 31.2247 8.13903C29.9562 8.87652 28.9028 9.93314 28.1692 11.2039L15.6206 33.085L28.3794 55.1764L43.3031 29.2385H107.16Z" fill="currentColor"/>
</svg>
