<svg width="125" height="125" viewBox="0 0 125 125" fill="none" xmlns="http://www.w3.org/2000/svg">
<path d="M122.637 56.9278L68.058 2.35544C64.9121 -0.785148 59.8183 -0.785148 56.662 2.35544L45.3546 13.6835L59.7298 28.0583C63.0892 26.9385 66.9122 27.6937 69.5684 30.3551C72.256 33.0374 72.9955 36.9072 71.8497 40.2509L85.6936 54.1049C89.053 52.9435 92.9176 53.6987 95.5895 56.3705C99.3448 60.1205 99.3448 66.1829 95.5895 69.9329C91.8447 73.6776 85.7926 73.6776 82.0477 69.9329C79.2404 67.1152 78.5373 62.9694 79.9435 59.5371L66.9799 46.6414V80.6255C67.8965 81.0734 68.7611 81.6827 69.5216 82.4379C73.2351 86.1931 73.2351 92.2451 69.5216 95.9795C65.7767 99.7346 59.6829 99.7346 55.9329 95.9795C52.188 92.2347 52.188 86.1931 55.9329 82.4484C56.8808 81.5109 57.9485 80.8025 59.0839 80.3338V46.0164C57.9537 45.5425 56.8756 44.8602 55.9589 43.9279C53.1203 41.0894 52.438 36.9384 53.8964 33.4645L39.7712 19.2719L2.34377 56.6726C-0.781258 59.8236 -0.781258 64.9225 2.34377 68.0735L56.9277 122.641C60.0735 125.786 65.1673 125.786 68.3132 122.641L122.637 68.3183C125.788 65.1777 125.788 60.0788 122.637 56.9278" fill="currentColor"/>
</svg>
