<svg width="125" height="125" viewBox="0 0 125 125" fill="none" xmlns="http://www.w3.org/2000/svg">
<path d="M62.5 1.54688C27.9688 1.54688 0 29.5313 0 64.0469C0 91.6667 17.9062 115.089 42.7344 123.344C45.8594 123.932 47.0052 122 47.0052 120.339C47.0052 118.854 46.9531 114.922 46.9271 109.714C29.5417 113.484 25.875 101.328 25.875 101.328C23.0313 94.1146 18.9219 92.1875 18.9219 92.1875C13.2604 88.3125 19.3594 88.3906 19.3594 88.3906C25.6354 88.8281 28.9323 94.8281 28.9323 94.8281C34.5052 104.385 43.5625 101.625 47.1354 100.026C47.6979 95.9844 49.3073 93.2292 51.0938 91.6667C37.2135 90.1042 22.625 84.7292 22.625 60.7813C22.625 53.9583 25.0469 48.3854 29.0573 44.0104C28.3542 42.4323 26.2448 36.0781 29.6042 27.4688C29.6042 27.4688 34.8385 25.7917 46.7917 33.875C51.7917 32.4844 57.1042 31.7969 62.4167 31.7656C67.7292 31.7969 73.0417 32.4844 78.0417 33.875C89.9167 25.7917 95.151 27.4688 95.151 27.4688C98.5104 36.0781 96.401 42.4323 95.776 44.0104C99.7604 48.3854 102.182 53.9583 102.182 60.7813C102.182 84.7917 87.5729 90.0781 73.6667 91.6146C75.8542 93.4896 77.8854 97.3229 77.8854 103.177C77.8854 111.542 77.8073 118.26 77.8073 120.292C77.8073 121.932 78.901 123.885 82.1042 123.26C107.109 115.063 125 91.625 125 64.0469C125 29.5313 97.0156 1.54688 62.5 1.54688Z" fill="currentColor"/>
</svg>
