<svg width="125" height="125" viewBox="0 0 125 125" fill="none" xmlns="http://www.w3.org/2000/svg">
<path d="M125 28.4219V100.865C125 105.573 121.188 109.385 116.479 109.385H96.5885V61.0937L62.5 86.6667L28.4115 61.0937V109.391H8.52084C7.40143 109.391 6.29299 109.17 5.25885 108.742C4.22472 108.313 3.28515 107.685 2.49385 106.893C1.70255 106.101 1.07502 105.161 0.647116 104.127C0.21921 103.093 -0.000682644 101.984 1.59194e-06 100.865V28.4219C1.59194e-06 17.8854 12.026 11.8698 20.4531 18.1927L28.4115 24.1667L62.5 49.7292L96.5885 24.1562L104.547 18.1927C112.969 11.875 125 17.8854 125 28.4219Z" fill="currentColor"/>
</svg>
