<svg width="125" height="125" viewBox="0 0 125 125" fill="none" xmlns="http://www.w3.org/2000/svg">
<path d="M9.4323 53.2865C9.18751 53.2865 9.13022 53.1667 9.25001 52.9792L10.5313 51.3385C10.6511 51.1563 10.9531 51.0365 11.1979 51.0365H32.9271C33.1667 51.0365 33.2292 51.2188 33.1094 51.401L32.0729 52.9792C31.9531 53.1667 31.6458 53.3438 31.4635 53.3438L9.4323 53.2865ZM0.244803 58.8854C1.11529e-05 58.8854 -0.0624888 58.7656 0.0625111 58.5833L1.33855 56.9375C1.45834 56.7552 1.76564 56.6354 2.01043 56.6354H29.7604C30.0052 56.6354 30.125 56.8177 30.0625 57L29.5781 58.4583C29.5156 58.7031 29.276 58.8229 29.0313 58.8229L0.244803 58.8854ZM14.974 64.4844C14.7292 64.4844 14.6667 64.3021 14.7917 64.1198L15.6406 62.599C15.7604 62.4167 16.0052 62.2344 16.25 62.2344H28.4219C28.6667 62.2344 28.7865 62.4167 28.7865 62.6615L28.6667 64.1198C28.6667 64.3646 28.4219 64.5469 28.2396 64.5469L14.974 64.4844ZM78.1458 52.1927C74.3125 53.1667 71.6927 53.8958 67.9219 54.8698C67.0052 55.1094 66.9479 55.1719 66.151 54.2604C65.2448 53.224 64.5729 52.5573 63.2969 51.9479C59.4583 50.0625 55.7448 50.6094 52.2813 52.8594C48.1406 55.5365 46.0104 59.4948 46.0729 64.4219C46.1302 69.2917 49.4792 73.3073 54.2865 73.9792C58.4271 74.526 61.8906 73.0677 64.6354 69.9688C65.1823 69.2917 65.6667 68.5625 66.2761 67.7083H54.5313C53.2552 67.7083 52.9479 66.9167 53.375 65.8854C54.1667 64 55.625 60.8333 56.4792 59.25C56.6096 58.9567 56.8232 58.7081 57.0935 58.5349C57.3638 58.3618 57.679 58.2718 58 58.276H80.151C80.0313 59.9219 80.0313 61.5625 79.7865 63.2083C79.156 67.5413 77.4396 71.6443 74.7969 75.1354C70.4167 80.9167 64.6927 84.5104 57.4531 85.4792C51.4896 86.2708 45.9479 85.1146 41.0833 81.4688C36.5781 78.0573 34.0208 73.5521 33.3542 67.9531C32.5625 61.3177 34.5104 55.3542 38.526 50.1198C42.849 44.4635 48.5677 40.8698 55.5677 39.599C61.2865 38.5573 66.7656 39.2344 71.6927 42.5729C74.9219 44.7083 77.2292 47.625 78.7552 51.1563C79.1198 51.7031 78.875 52.0104 78.1458 52.1979M98.2917 85.849C92.75 85.724 87.6979 84.1406 83.4375 80.4896C79.8933 77.5025 77.557 73.3279 76.8646 68.7448C75.7708 61.8698 77.6563 55.7813 81.7969 50.3646C86.2396 44.5208 91.5938 41.4792 98.8385 40.2083C105.047 39.1146 110.891 39.7135 116.182 43.3073C120.99 46.5885 123.974 51.0365 124.766 56.875C125.797 65.0938 123.427 71.7865 117.766 77.5104C113.75 81.5885 108.818 84.1406 103.156 85.2969C101.516 85.6094 99.875 85.6615 98.2917 85.849ZM112.771 61.2656C112.714 60.4688 112.714 59.8594 112.594 59.25C111.5 53.224 105.958 49.8229 100.177 51.1563C94.5156 52.4323 90.8646 56.026 89.526 61.7448C88.4323 66.4948 90.7448 71.3021 95.125 73.2552C98.474 74.7135 101.818 74.526 105.047 72.8906C109.854 70.3906 112.469 66.4948 112.776 61.2604L112.771 61.2656Z" fill="currentColor"/>
</svg>
