<svg width="125" height="125" viewBox="0 0 125 125" fill="none" xmlns="http://www.w3.org/2000/svg">
<path d="M95.3958 29.6042H125V95.3958H95.3958V29.6042ZM29.6042 125H95.3958V95.3958H29.6042V125ZM95.3958 29.6042V1.37581e-06H9.86979C8.57348 -0.000683236 7.28974 0.254139 6.09198 0.7499C4.89421 1.24566 3.8059 1.97264 2.88927 2.88927C1.97264 3.8059 1.24566 4.89421 0.7499 6.09198C0.254139 7.28974 -0.000683236 8.57348 1.37581e-06 9.86979V95.3958H29.6042V29.6042H95.3958ZM57.8594 62.1563V61.8177C59.276 61.0677 60.4635 60 61.4375 58.6042C62.4115 57.2083 62.8906 55.5052 62.8906 53.4896C62.8906 51.5156 62.375 49.7396 61.3281 48.151C60.2481 46.541 58.7501 45.2555 56.9948 44.4323C55.0464 43.5152 52.9136 43.0572 50.7604 43.0938C47.6354 43.0938 45.0625 43.9063 43.0469 45.526C41.0365 47.1458 39.6615 49.0208 38.9167 51.1406L44.5677 53.4948C45.0156 52.1979 45.7344 51.0937 46.7188 50.1979C47.7031 49.3021 49.0365 48.8594 50.7135 48.8594C52.4323 48.8594 53.849 49.3177 54.9635 50.2344C55.5095 50.6714 55.9456 51.2302 56.2368 51.866C56.528 52.5018 56.6663 53.197 56.6406 53.8958C56.6406 55.6146 56.0156 56.9635 54.7656 57.9479C53.5156 58.9375 51.9792 59.4271 50.151 59.4271H47.1979V65.0781H50.4948C52.6146 65.0781 54.3906 65.6458 55.8073 66.7812C57.224 67.9167 57.9271 69.3802 57.9271 71.1719C57.9271 72.9219 57.2552 74.3698 55.9115 75.5052C54.5677 76.6406 52.9688 77.2083 51.099 77.2083C49.2708 77.2083 47.7083 76.6719 46.4271 75.5885C45.1354 74.5052 44.2292 72.974 43.7135 71L38.0052 73.3542C38.9323 76.5625 40.6354 78.9896 43.0938 80.651C45.5521 82.3125 48.2188 83.1406 51.1042 83.1354C53.4371 83.1684 55.7447 82.649 57.8385 81.6198C59.8281 80.6146 61.401 79.2344 62.5365 77.4844C63.6719 75.7344 64.2396 73.7344 64.2396 71.5C64.2396 69.2656 63.6406 67.349 62.4479 65.7448C61.2772 64.1497 59.6896 62.908 57.8594 62.1563ZM68.7604 52.099L71.8958 56.8542L78.125 52.3177V82.2344H84.3073V43.9896H80L68.7604 52.099ZM115.13 1.37581e-06H98V27H125V9.86979C125.001 8.57348 124.746 7.28974 124.25 6.09198C123.754 4.89421 123.027 3.8059 122.111 2.88927C121.194 1.97264 120.106 1.24566 118.908 0.7499C117.71 0.254139 116.427 -0.000683236 115.13 1.37581e-06ZM98 122.396L122.396 98H98V122.396ZM1.37581e-06 115.13C1.37581e-06 120.583 4.41667 125 9.86979 125H27V98H1.37581e-06V115.13Z" fill="currentColor"/>
</svg>
