<svg width="125" height="125" viewBox="0 0 125 125" fill="none" xmlns="http://www.w3.org/2000/svg">
<path fill-rule="evenodd" clip-rule="evenodd" d="M35.0224 33.521C35.9137 42.8945 36.798 52.2152 37.7026 61.7451C39.1774 59.2119 40.2446 56.7822 41.8545 54.7921C43.3537 52.9381 45.2432 51.2273 47.2994 50.0424C49.9836 48.4951 53.5034 49.9521 54.3734 52.6965C54.6072 53.4326 54.0492 54.4195 53.8541 55.2917C53.1975 54.9455 52.3508 54.7546 51.9219 54.2246C50.0995 51.9736 49.0018 51.7076 46.9863 53.6529C43.2267 57.2838 41.1126 61.8324 40.3056 66.9446C40.1501 67.9336 40.769 69.0433 41.0303 70.0972C42.0578 69.7439 43.2511 69.6139 44.0815 68.9966C46.781 66.9893 48.454 64.2591 49.3769 60.9958C49.5771 60.2891 50.6626 59.8333 51.3415 59.2616C51.6668 59.9297 52.4088 60.7166 52.2532 61.2456C50.8232 66.1598 49.2712 71.0425 47.6429 75.8958C47.4782 76.3872 46.5747 76.6319 46.0126 76.9913C45.7859 76.3456 45.3093 75.6694 45.3855 75.0612C45.5562 73.6824 46.0004 72.337 46.3104 71.074L38.9517 74.4581C39.3634 79.1509 39.7903 84.4154 40.2964 89.6728C40.6847 93.6874 41.3423 94.7271 45.3001 95.4886C49.9186 96.377 54.6235 96.9446 59.3182 97.2898C66.2551 97.8005 73.1309 97.169 79.8798 95.3566C82.3923 94.6824 83.3945 93.0315 83.5744 90.5673C83.739 88.298 84.107 86.043 84.3621 83.7798C84.8632 79.3215 85.35 74.8622 85.8623 70.217C84.1679 71.2892 82.8355 72.4893 81.2773 72.998C80.143 73.3686 78.712 72.8264 77.412 72.6904C77.661 71.4984 77.6458 70.1551 78.221 69.1499C79.1582 67.5071 80.4815 66.0826 81.6402 64.5657L81.1411 63.9656C80.3107 64.4561 79.2791 64.7779 78.6886 65.4734C77.4872 66.8888 76.3112 68.4037 75.5073 70.0627C74.1616 72.8396 73.136 75.7709 71.9316 78.6179C71.4082 79.8525 70.9569 81.741 69.2036 81.0201C67.3284 80.2475 68.6476 78.5976 69.0877 77.4238C69.788 75.5516 70.713 73.7626 71.339 72.3858C69.5644 72.597 67.7654 72.8518 65.9583 73.0092C65.1939 73.0742 64.2853 72.6559 63.6602 72.9381C61.5817 73.8763 60.2644 73.4996 59.8325 71.2009C58.87 71.8253 58.0548 72.6711 57.0943 72.8985C55.9285 73.1757 54.347 73.3575 53.4932 72.7757C52.8092 72.3096 52.5602 70.5582 52.794 69.5307C53.2585 67.4878 54.1265 65.5242 54.9507 63.5819C55.461 62.3787 55.9743 60.4577 57.696 61.2943C59.3975 62.1198 57.8525 63.5128 57.4602 64.6307C56.8514 66.3588 56.2314 68.0838 55.6175 69.8099L56.5932 70.3988C57.5222 69.5926 58.6799 68.9357 59.3304 67.9468C60.3956 66.3303 61.0389 64.4418 62.0472 62.7828C62.4649 62.0954 63.3644 61.7015 64.0464 61.1745C64.1847 62.0497 64.516 62.9493 64.4062 63.7941C64.2975 64.648 63.6968 65.4287 63.4092 66.2735C62.9772 67.5386 62.6286 68.8321 62.1895 70.3033C64.266 70.3825 65.1553 69.5094 65.7418 67.9691C67.5977 63.1026 69.474 58.2412 71.5139 53.4499C71.8625 52.6295 73.0476 52.1665 73.8475 51.537C73.94 52.5259 74.3811 53.6468 74.067 54.4804C72.3951 58.8961 70.5178 63.2326 68.7533 67.6137C68.4555 68.3519 68.36 69.1712 68.172 69.9531C71.2811 68.557 73.876 67.0137 74.8232 63.7128C75.055 62.9107 76.0043 62.3147 76.6233 61.6233L78.0625 63.1463C78.4995 62.7787 78.9 62.3604 79.3746 62.0548C80.8687 61.0933 82.4777 60.2455 84.0531 61.735C85.6834 63.2752 84.4495 64.7759 83.5978 66.108C82.6708 67.5609 81.5355 68.8798 80.4906 70.2566C82.8405 68.7438 86.0493 68.0656 86.4762 64.7962C87.517 56.8106 88.4317 48.8088 89.3597 40.809C89.6351 38.4413 89.7825 36.0583 89.997 33.591C71.4885 38.0676 53.3774 38.095 35.0224 33.521ZM42.9665 95.8308C43.8579 98.1833 45.2117 100.494 45.5664 102.949C46.3155 108.175 46.5056 113.48 47.0361 118.742C47.1134 119.508 47.6104 120.561 48.2304 120.898C57.3576 125.853 66.5732 126.712 75.8854 121.293C77.2748 120.485 77.5319 119.418 77.7118 117.917C78.5829 110.626 76.6436 102.892 81.3098 96.0267C68.2431 99.2646 55.4905 99.3651 42.9665 95.8308ZM74.4655 34.8297C78.899 34.4023 83.2786 33.3626 87.6633 32.5036C88.4896 32.3422 89.2235 31.7137 90 31.3004C88.9765 30.4019 88.0912 29.9693 87.1663 29.8607C82.562 29.3175 77.9415 28.8992 73.3403 28.3296C72.6451 28.2433 71.4041 27.3863 71.4559 27.23C72.7986 23.189 72.7325 18.6149 75.7797 15.2095C79.6308 10.9045 83.5215 6.63705 87.3828 2.36759C84.5105 -0.719018 84.4718 -0.723079 81.8689 1.97872C80.3971 3.50577 79.0524 5.17701 77.4557 6.55989C71.5474 11.6751 67.3975 17.7336 66.5884 25.7212C66.4024 27.5539 65.3952 28.2159 63.4691 28.2443C57.1106 28.3367 50.7449 28.5113 44.4006 28.9286C41.2569 29.1347 38.1518 29.9409 35.0285 30.475L35 31.6416C36.9545 32.2437 38.8714 33.0346 40.8676 33.4174C51.991 35.5476 63.2191 35.9131 74.4655 34.8297ZM70.9122 32.0396C68.3946 34.0703 66.314 34.0703 64.3046 32.0396H70.9122Z" fill="currentColor"/>
</svg>
