<svg width="125" height="125" viewBox="0 0 125 125" fill="none" xmlns="http://www.w3.org/2000/svg">
<path d="M30.9167 24.4479C29.1667 24.4479 27.401 24.8542 25.6406 25.6042C23.8698 26.3594 22.1198 27.4063 20.3958 28.7552C18.5662 30.1858 16.8748 31.7848 15.3438 33.5313C13.7135 35.375 12.1667 37.4115 10.724 39.5938C9.28646 41.7813 7.94792 44.1094 6.66146 46.4688H6.65625V46.474C5.41146 48.9375 4.32292 51.474 3.375 54.0521C2.4375 56.6354 1.6875 59.224 1.09375 61.849C0.520833 64.4531 0.166667 66.9896 0.0520833 69.4792C0.0206868 69.6353 0.00325682 69.7939 0 69.9531L0 70.4479C0 71.8073 0.197917 73.2083 0.390625 74.4896V74.5L0.395833 74.5104C0.75 75.875 1.30729 77.1354 2.01042 78.2448C2.73142 79.3401 3.68672 80.2616 4.80729 80.9427C5.9375 81.6615 7.27604 82.0208 8.84896 82.0208C10.2188 82.0208 11.6406 81.7083 13.1042 81.0573C14.5573 80.4063 16.0052 79.5573 17.4479 78.5625C18.8438 77.5625 20.2396 76.4167 21.5833 75.125C22.6615 74.125 23.6458 73.0833 24.6198 72.0521L23.599 75.2188C23.1563 76.7448 22.6615 78.2188 22.2604 79.6615C21.8177 81.0885 21.4688 82.3698 21.1719 83.5052C20.875 84.6302 20.6719 85.3906 20.6719 85.8802V87C20.6719 88.2552 20.8021 89.1406 21.2135 89.6979C21.4182 89.959 21.6825 90.1672 21.9843 90.305C22.2861 90.4427 22.6166 90.5061 22.9479 90.4896C23.4501 90.4822 23.9356 90.3081 24.3281 89.9948C24.75 89.6823 25.1094 89.2813 25.4688 88.8281V88.8177L25.4792 88.8125C25.776 88.3594 26.0781 87.875 26.3333 87.3646C26.5938 86.8385 26.7396 86.375 26.8906 85.9635L27.2396 84.7083L27.9844 82.1302L28.974 78.6823C29.3698 77.3958 29.7135 76.1042 30.1563 74.7917L31.3281 70.8854C31.7031 69.6146 32.0573 68.4636 32.3854 67.4427C32.7135 66.4011 32.9896 65.5573 33.2187 64.875C33.3229 64.5365 33.4271 64.2708 33.5 64.0729L33.5729 63.9063L33.7813 64L33.875 63.75C34.2708 62.6146 34.6615 61.5261 35.0573 60.4896C35.4531 59.4479 35.849 58.4063 36.151 57.3802C36.9226 55.2248 37.3104 52.9508 37.2969 50.6615C37.3022 50.2056 37.2136 49.7535 37.0365 49.3333C36.9035 48.9715 36.6813 48.649 36.3906 48.3958C36.1269 48.1626 35.8186 47.9855 35.4844 47.875C35.1646 47.7719 34.8308 47.7192 34.4948 47.7188C33.7857 47.7293 33.0976 47.9605 32.526 48.3802C31.8542 48.8281 31.3542 49.5729 30.9792 50.5781L28.1146 59.7708C27.6338 60.7026 27.0819 61.5959 26.4635 62.4427C23.9336 66.0063 20.9383 69.2205 17.5573 71.9896C16.4792 72.875 15.4531 73.5573 14.4323 74.0938C13.6407 74.5593 12.7458 74.8206 11.8281 74.8542C11.2402 74.8721 10.6648 74.6821 10.2031 74.3177C9.72488 73.9462 9.35743 73.4509 9.14063 72.8854C8.87893 72.2388 8.70042 71.5615 8.60938 70.8698C8.51208 70.1412 8.46336 69.4069 8.46354 68.6719C8.46354 66.5208 8.80729 64.1198 9.49479 61.4115C10.1823 58.7031 11.1198 55.9948 12.3021 53.1875C13.4844 50.375 14.8646 47.6667 16.3958 45.0052C17.9219 42.3438 19.5469 39.9792 21.2188 37.9115C22.8854 35.849 24.5521 34.2344 26.2708 32.9635C27.974 31.6927 29.5 31.0781 30.9688 31.0781C31.8878 31.0646 32.7897 31.3277 33.5573 31.8333C34.349 32.3438 35.0677 33.2031 35.7448 34.4167C36.4427 35.7656 37.1458 36.8073 37.75 37.5677C38.375 38.349 39.099 38.75 39.875 38.75C40.2962 38.7541 40.7123 38.6581 41.089 38.4697C41.4657 38.2813 41.7923 38.0061 42.0417 37.6667C42.6406 36.9479 42.9271 35.9635 42.9271 34.7708C42.9271 34.2708 42.875 33.7292 42.7708 33.1719C42.6525 32.5473 42.4041 31.9546 42.0417 31.4323C40.4062 28.9844 38.651 27.2292 36.7813 26.099H36.7708C35.0007 25.0342 32.9824 24.464 30.9167 24.4479ZM88.0052 28.901C87.25 28.9125 86.512 29.1285 85.8698 29.526L85.8594 29.5313C85.0807 30.0801 84.4999 30.8656 84.2031 31.7708L74.3646 56.5521L72.1927 61.9948C71.3958 63.974 70.6562 65.9531 69.8646 67.974C69.5015 68.9112 69.1954 69.8696 68.9479 70.8438C68.5144 71.2319 68.068 71.6054 67.6094 71.9636C66.5313 72.7969 65.5104 73.4271 64.5417 73.8646H64.5313C63.5729 74.349 62.7656 74.5365 62.1198 74.5365C61.6927 74.5365 61.4063 74.4323 61.224 74.2604C61.0417 74.0886 60.9323 73.8229 60.9323 73.3958C60.9323 72.4323 61.0781 71.3646 61.3698 70.1927C61.6667 69.0469 62.0573 67.8438 62.5 66.6354C62.9245 65.4178 63.4006 64.2188 63.9271 63.0417L65.3646 59.6875C65.8125 58.6458 66.1615 57.6979 66.4583 56.9063C66.7228 56.2827 66.8795 55.6187 66.9219 54.9427C66.933 54.1224 66.6709 53.3217 66.1771 52.6667C65.9417 52.352 65.6346 52.098 65.2813 51.9259C64.928 51.7537 64.5387 51.6685 64.1458 51.6771C63.7677 51.6683 63.3928 51.7481 63.051 51.91C62.7092 52.0718 62.4099 52.3113 62.1771 52.6094C61.6201 53.2617 61.1732 54.0006 60.8542 54.7969C60.4374 55.7023 60.0875 56.6371 59.8073 57.5938C59.5156 58.5833 59.125 59.5104 58.7292 60.3802C58.1406 61.6823 57.4479 63.1094 56.5625 64.6823C55.6964 66.2295 54.7126 67.7078 53.6198 69.1042C52.5417 70.4583 51.3698 71.599 50.1042 72.5104C48.8542 73.4219 47.526 73.849 46.1979 73.849C45.7656 73.849 45.4792 73.6927 45.3281 73.3906C45.1422 73.0285 45.0491 72.6258 45.0573 72.2188C45.1094 71.1563 45.2969 70.0365 45.6406 68.8698C45.9844 67.7135 46.375 66.5625 46.8177 65.4323C47.2604 64.3385 47.7552 63.224 48.2917 62.1771C48.8385 61.1302 49.3333 60.1406 49.8229 59.2604V59.2552L51.1146 56.8073C51.4688 56.099 51.6719 55.5417 51.8177 55.0885L51.8229 55.0781C51.875 54.8698 51.9323 54.6042 51.9323 54.3177C51.9398 53.9277 51.8427 53.5428 51.651 53.2031V53.1979L51.6458 53.1927C51.4531 52.8796 51.1993 52.6084 50.8995 52.3955C50.5997 52.1825 50.2602 52.0321 49.901 51.9531C49.3848 51.7914 48.8374 51.7557 48.3046 51.849C47.7717 51.9423 47.269 52.162 46.8385 52.4896C46.151 52.9635 45.6354 53.6979 45.1771 54.7083C43.6708 57.8025 42.298 60.9599 41.0625 64.1719C40.0729 66.8021 39.3802 68.9323 38.8854 70.5729C38.5091 71.7646 38.2253 72.9835 38.0365 74.2188V74.224L37.9323 75.4271V75.4375C37.9323 76.5521 38.0833 77.5208 38.401 78.3021V78.3125C38.7552 79.0781 39.1719 79.6979 39.6979 80.1719C40.2379 80.6436 40.8796 80.984 41.5729 81.1667C42.2604 81.375 42.9792 81.474 43.7083 81.474C45.3281 81.474 46.8229 81.1719 48.1927 80.6667C49.5625 80.1615 50.8021 79.4583 51.9115 78.6042C53.0052 77.7552 53.9948 76.8021 54.8438 75.75C55.4688 75.0208 55.9375 74.2656 56.4063 73.526C56.1979 74.6719 56 75.8021 56 76.724C56 78.4427 56.3281 79.6927 57.0521 80.4583C57.4027 80.8245 57.8264 81.113 58.2957 81.305C58.7649 81.497 59.2693 81.5883 59.776 81.5729C60.8594 81.5729 62.0625 81.2761 63.3906 80.6875C64.7083 80.099 66.0469 79.3229 67.401 78.3646C67.7396 78.1302 68.0625 77.8802 68.3906 77.6302L68.4167 77.8177C68.5579 78.4698 68.8231 79.0886 69.1979 79.6406L69.2083 79.6511C69.625 80.1667 70.0938 80.5886 70.724 80.9011C71.3646 81.224 72.1458 81.375 73.0677 81.375C74.3854 81.375 75.7552 81.0677 77.1667 80.4636H77.1771C78.5729 79.8125 79.974 79.0104 81.3698 77.9635C82.7656 76.9167 84.2083 75.6719 85.599 74.3333L85.651 74.2865C85.4115 74.8385 85.1823 75.3906 84.9323 75.9479C83.7917 78.4688 82.6302 81.0104 81.4219 83.6094C80.2083 86.2135 78.9948 88.7865 77.8594 91.3594L77.8542 91.375L77.849 91.3854C77.6867 91.8747 77.506 92.3577 77.3073 92.8333C77.1198 93.3125 76.8646 93.8125 76.7083 94.3854C76.5156 94.9063 76.3177 95.4219 76.2135 95.9844C76.0573 96.5573 76.0052 97.1146 76.0052 97.625C76.0052 98.7083 76.3125 99.5365 76.901 99.9531C77.5114 100.367 78.2371 100.576 78.974 100.552C79.6094 100.552 80.1927 100.396 80.7188 100.135L80.724 100.13C81.2463 99.8345 81.7104 99.4462 82.0938 98.9844C82.4896 98.5156 82.8229 97.9844 83.125 97.3802C83.4323 96.7708 83.6823 96.1198 83.9271 95.4792L83.9375 95.4583V95.4375C83.9792 95.2448 84.1302 94.8073 84.375 94.1667L85.2188 91.8958L86.2083 89.2292L87.2448 86.5104L88.1302 84.2448C88.3802 83.599 88.5313 83.151 88.625 82.9167C88.724 82.7188 88.875 82.4167 89.0677 81.9271L89.7604 80.2969L90.599 78.3698L91.4948 76.3906L92.2344 74.6094L92.7708 73.4323L92.776 73.4271C93.2188 72.5417 93.7552 71.5625 94.349 70.4792C94.9896 69.401 95.6771 68.3646 96.4115 67.2865C97.2031 66.2448 97.9844 65.2136 98.8229 64.2344C99.6615 63.2604 100.542 62.4271 101.427 61.6406C102.328 60.9115 103.229 60.276 104.141 59.8438C104.945 59.4261 105.834 59.1981 106.74 59.1771C107.188 59.1771 107.484 59.2708 107.667 59.3802C107.739 59.449 107.796 59.5324 107.834 59.6249C107.872 59.7174 107.889 59.8168 107.885 59.9167C107.885 60.3333 107.661 60.9948 107.135 61.7552C106.594 62.5886 105.958 63.4792 105.172 64.4635C104.328 65.4531 103.49 66.4896 102.552 67.5729C101.615 68.6667 100.719 69.7552 99.875 70.8438C99.0984 71.8474 98.3819 72.8961 97.7292 73.9844V73.9896C97.2027 74.8343 96.8404 75.7709 96.6615 76.75V76.7865C96.6567 76.825 96.6498 76.8633 96.6406 76.9011C96.625 76.9531 96.6094 76.974 96.6094 77.0833V77.3802C96.6094 78.7188 97.0885 79.8021 98.0365 80.5365C98.9896 81.3281 100.333 81.6823 101.995 81.6823C103.813 81.6823 105.484 81.3281 107.047 80.6198C108.599 79.9219 110.198 78.974 111.839 77.724H111.844C113.484 76.4948 115.177 75.0313 117.005 73.3333C118.781 71.6406 120.854 69.7656 123.172 67.7083C123.78 67.2277 124.251 66.5954 124.536 65.875C124.844 65.1563 125 64.4427 125 63.7396C125.011 63.149 124.863 62.5664 124.573 62.0521C124.449 61.8176 124.263 61.6217 124.035 61.4858C123.807 61.3498 123.547 61.2791 123.281 61.2813C122.983 61.2886 122.691 61.3653 122.427 61.5052C122.151 61.6406 121.859 61.8177 121.542 62.0313C121 62.2031 121.63 62.3594 121.698 62.5938C118.896 65.099 116.469 67.2136 114.547 68.875C112.568 70.6042 110.906 71.9375 109.62 72.9792C108.667 73.75 107.668 74.4631 106.63 75.1146C105.943 75.5261 105.417 75.724 105.125 75.724C104.719 75.724 104.438 75.6198 104.313 75.5C104.238 75.4274 104.179 75.3397 104.14 75.2427C104.102 75.1458 104.084 75.0418 104.089 74.9375C104.089 74.901 104.141 74.75 104.271 74.5469C104.406 74.3385 104.609 74.0729 104.88 73.7552L106.953 71.3333C107.797 70.3906 108.641 69.349 109.578 68.2083C110.516 67.0625 111.401 65.8802 112.193 64.6563C113.026 63.4583 113.677 62.224 114.224 61.0104C114.75 59.7969 115.036 58.6406 115.036 57.5417C115.053 56.7661 114.863 56.0002 114.484 55.3229C114.127 54.7006 113.634 54.1666 113.042 53.7604C112.469 53.3438 111.802 53.0313 111.089 52.8177H111.083C109.283 52.3145 107.364 52.4488 105.651 53.1979C104.552 53.6563 103.507 54.2363 102.536 54.9271C101.507 55.6451 100.524 56.4279 99.5938 57.2708C98.9164 57.9091 98.2564 58.5656 97.6146 59.2396L97.8021 58.3229C97.8802 57.9427 97.9323 57.5885 97.9792 57.2448V57.2396C98.0313 56.8854 98.0469 56.6354 98.0469 56.4635C98.0862 55.7557 97.8512 55.0599 97.3906 54.5208V54.5156H97.3802C96.9271 54.0469 96.224 53.8438 95.2969 53.8438C94.6615 53.8438 94.0469 54.2083 93.526 54.8333C92.9885 55.5048 92.5289 56.2352 92.1563 57.0104C91.7545 57.8213 91.4031 58.6562 91.1042 59.5104L90.4115 61.4792V61.4844C90.1719 62.3125 89.9063 63.1563 89.6302 64.0104C89.5573 64.0313 89.4896 64.0521 89.4167 64.0833C89.1456 64.1764 88.9021 64.3357 88.7083 64.5469L88.724 64.5313C88.1094 65.125 87.4167 65.8177 86.6458 66.5573C85.8802 67.2969 85.0677 68.0365 84.2292 68.776C83.3854 69.4688 82.5313 70.2083 81.6771 70.8958C80.8333 71.5729 80.0104 72.1719 79.224 72.6927C78.4427 73.2188 77.7135 73.6302 77.0417 73.9479C76.5431 74.2113 75.9949 74.3674 75.4323 74.4063C75.1198 74.4063 74.9896 74.3333 74.9115 74.1875H74.9063C74.782 73.9373 74.7246 73.6592 74.7396 73.3802C74.7396 72.7917 74.8437 72.1146 75.0729 71.349C75.2917 70.5886 75.5208 69.9219 75.75 69.3438L75.8958 69.1875L77.8438 64.2292C78.5833 62.3281 79.375 60.3438 80.2656 58.2292L82.9375 51.6979C83.8229 49.474 84.7188 47.3229 85.5573 45.2708L88.0313 39.5313C88.7708 37.7813 89.4167 36.3073 89.9583 35.1146L89.9531 35.125C90.2604 34.5156 90.4583 33.9427 90.6563 33.4583V33.4479C90.835 32.9513 90.9318 32.4288 90.9427 31.901C90.9427 30.8802 90.625 30.0781 90.0052 29.5938C89.4394 29.1372 88.7322 28.8923 88.0052 28.901Z" fill="currentColor"/>
</svg>
