<svg width="125" height="125" viewBox="0 0 125 125" fill="none" xmlns="http://www.w3.org/2000/svg">
<path d="M107.344 0H17.6563C11.401 0 6.40625 5 6.40625 11.25V113.755C6.40625 119.995 11.401 125 17.6563 125H107.344C113.594 125 118.589 119.995 118.589 113.755V11.25C118.594 5 113.599 0 107.344 0ZM112.344 113.755C112.344 116.563 110.151 118.755 107.344 118.755H17.6563C14.8438 118.755 12.6563 116.563 12.6563 113.755V11.25C12.6563 8.4375 14.8438 6.24479 17.6563 6.24479H107.344C110.151 6.24479 112.344 8.4375 112.344 11.25V113.755ZM34.5313 106.245L48.5938 93.75L34.5313 81.25V106.245ZM85.1563 55.625C82.6615 53.125 77.974 50 70.1615 50C61.7187 50 52.9687 52.1927 46.724 54.375V18.75H34.224V72.8125L42.974 68.75C42.974 68.75 57.349 62.1875 69.849 62.1875C76.099 62.1875 77.6615 65.625 77.6615 68.75V106.25H90.1615V68.75C90.4688 67.8177 90.4688 60.9323 85.1563 55.625ZM68.5938 39.0625H81.0938C86.7188 32.5 89.5313 25.9323 90.4688 18.75H77.974C76.7187 25.9323 73.5938 32.5 68.5938 39.0625Z" fill="currentColor"/>
</svg>
