<svg width="125" height="125" viewBox="0 0 125 125" fill="none" xmlns="http://www.w3.org/2000/svg">
<path d="M100.892 0H24.007C17.3477 0 12 5.33844 12 11.9863V113.014C12 119.662 17.3477 125 24.007 125H100.993C107.652 125 113 119.662 113 113.014V11.9863C112.899 5.33844 107.551 0 100.892 0V0ZM35.2068 107.474V79.0693L49.4336 93.2716L35.2068 107.474V107.474ZM88.6833 107.776H75.4655L75.5664 107.575V57.8163C75.5664 57.8163 78.6943 45.9307 35.5095 62.6511C35.4086 62.8525 35.3077 16.6197 35.3077 16.6197L49.3327 16.5189V46.1322C49.3327 46.1322 88.6833 30.6205 88.6833 57.917V107.776ZM83.4366 34.2466H68.5035C73.8511 28.2031 78.7952 17.1233 78.7952 17.1233H94.2328C94.2328 17.1233 91.6094 24.1741 83.4366 34.2466Z" fill="currentColor"/>
</svg>
