<svg width="125" height="125" viewBox="0 0 125 125" fill="none" xmlns="http://www.w3.org/2000/svg">
<path d="M124.49 35.7812C122.771 19.0208 111.625 15.4948 101.813 13.8854C96.8854 13.0521 88.1146 12.3229 82.4583 12.1146C77.5313 11.8021 65.9583 11.6458 62.4844 11.6458C59.0625 11.6458 47.4323 11.8021 42.5104 12.1146C36.9063 12.3229 28.0833 13.0521 23.1563 13.8854C13.349 15.5469 2.18751 19.0625 0.479172 35.7812C0.0625055 40.349 -0.0416612 46.3177 0.0104221 52.6979C0.166672 63.276 1.05209 70.4375 1.57292 75.4219C1.93751 78.8437 3.33334 89.0677 5.15105 94.3594C7.64063 101.625 9.92188 103.75 12.5677 105.932C17.4479 109.875 25.4375 111.12 27.099 111.432C36.125 113.047 54.3906 113.349 62.4323 113.349C70.474 113.349 88.7344 113.089 97.7656 111.432C99.4792 111.12 107.469 109.922 112.297 105.932C114.943 103.75 117.224 101.625 119.714 94.3594C121.536 89.0677 122.984 78.8437 123.349 75.4219C123.87 70.4375 124.802 63.276 124.906 52.6979C125.115 46.3177 124.958 40.349 124.49 35.7812ZM118.365 63.9062C117.375 77.2917 116.188 85.2812 114.474 91.0937C112.964 96.1771 111.156 99.5469 108.406 101.99C103.891 106.089 97.6615 106.969 94.0313 107.49C86.1458 108.687 72.9115 109.052 62.4844 109.052C52.0573 109.052 38.8229 108.635 30.9375 107.49C27.3073 106.969 21.0781 106.089 16.5625 101.99C13.8646 99.5469 12 96.125 10.5469 91.0885C8.83334 85.3333 7.64063 77.2864 6.65626 63.901C6.08334 55.8646 6.18751 42.7865 7.07292 35.776C8.41667 25.3021 13.6094 20.0573 24.7135 18.0885C29.901 17.151 36.901 16.474 43.4948 16.1615C48.7865 15.7969 57.5573 15.6406 62.4323 15.6927C67.3073 15.6406 76.0781 15.849 81.3698 16.1615C88.0104 16.474 94.9635 17.151 100.151 18.0885C111.307 20.0573 116.5 25.3542 117.797 35.7812C118.833 42.7865 118.984 55.8646 118.365 63.9062ZM91.276 20.2083C88.4219 33.0312 87.2813 38.8958 84.9427 48.1771C82.7135 57.1094 80.9479 65.3542 77.9896 69.3489C74.9323 73.3958 70.8802 74.2812 68.1302 74.5885C66.6771 74.7448 65.6406 74.7969 62.5781 74.849C59.474 74.849 58.4323 74.7448 56.9792 74.5885C54.2292 74.276 50.1302 73.3958 47.125 69.3489C44.1146 65.3542 42.401 57.1094 40.1719 48.1823C37.724 38.9479 36.6406 33.026 33.7344 20.2135C33.7344 20.2135 30.8802 20.3177 29.5833 20.4219C27.8698 20.526 26.5208 20.6823 25.0677 20.8906C26.8542 48.8698 28.6719 78.5937 30.9323 104.901C35.0625 105.421 39.218 105.714 43.3802 105.781C45.099 99.1875 47.276 90.0521 49.6667 86.1614C51.6354 82.9948 54.6979 82.6354 56.4115 82.4271C59.1094 82.0625 61.3906 82.0104 62.4792 82.0104C63.5208 81.9583 65.7969 82.0104 68.5469 82.4271C70.2656 82.6875 73.3229 83 75.2917 86.1614C77.7396 90.0521 79.8594 99.1823 81.5729 105.776C81.5729 105.776 83.4375 105.724 87.6406 105.516C89.776 105.422 91.9115 105.214 94.026 104.891C96.4115 76.8177 98.1146 49.0156 99.8906 20.8906C98.4323 20.6823 97.0885 20.526 95.375 20.4219C94.1771 20.3177 91.276 20.2083 91.276 20.2083Z" fill="currentColor"/>
</svg>
