<svg width="125" height="125" viewBox="0 0 125 125" fill="none" xmlns="http://www.w3.org/2000/svg">
<path d="M118.75 38.4427C124.609 24.3802 125 12.6615 117.969 5.63021C110.156 -2.17708 91.4062 0.161459 71.4896 9.53646H69.1458C55.0833 9.53646 41.4167 14.6198 31.2604 23.599C22.6667 31.4115 16.4167 41.5677 13.6823 52.8958C15.6354 50.5521 26.5729 37.6615 39.0729 30.6302C39.4635 30.6302 42.5885 28.6771 42.5885 28.6771C42.1979 28.6771 36.3385 34.5365 35.1667 35.7083C7.8229 63.8333 -8.18751 106.406 4.31249 118.901C12.5104 127.104 27.3542 125.151 44.5417 115.776C51.9635 119.292 60.1667 120.854 69.1458 120.854C80.8646 120.854 91.8021 117.729 101.177 111.479C110.937 105.229 117.969 95.4687 122.271 84.1406H91.8021C87.8958 91.5625 78.9115 96.6406 69.5365 96.6406C56.2552 96.6406 45.3177 85.7031 44.9323 73.2031V72.0312H124.609V70.8594C124.609 68.9062 125 66.5625 125 65.0052C125 55.6302 122.656 46.6458 118.75 38.4427ZM12.901 116.562C6.65103 110.312 8.60936 98.2083 16.026 83.7552C19.5417 93.5208 25.401 102.115 32.8229 108.365C35.1667 110.318 37.901 112.271 40.6354 113.833C28.1354 120.469 17.9792 121.646 12.901 116.562ZM92.974 57.1979H45.3229V56.8073C46.1042 44.6979 57.4271 34.151 70.7083 34.151C83.2083 34.151 93.3646 43.9167 94.1458 56.8073V57.1979H92.974ZM116.797 35.3229C114.453 31.4167 111.328 27.5104 107.812 24.3854C102.366 19.3209 96.0017 15.3433 89.0625 12.6667C101.562 6.8125 112.109 6.03125 117.578 11.5C121.875 16.5781 121.484 25.1667 116.797 35.3229Z" fill="currentColor"/>
</svg>
