<svg width="125" height="125" viewBox="0 0 125 125" fill="none" xmlns="http://www.w3.org/2000/svg">
<path d="M62.5 0C45.5208 0 43.401 0.078125 36.7344 0.375C30.0781 0.6875 25.5469 1.73438 21.5625 3.28125C17.4531 4.875 13.9635 7.01562 10.4896 10.4896C7.01562 13.9635 4.86979 17.4479 3.28125 21.5625C1.73438 25.5469 0.682292 30.0781 0.375 36.7344C0.0625 43.401 0 45.5208 0 62.5C0 79.4792 0.078125 81.599 0.375 88.2656C0.6875 94.9167 1.73438 99.4531 3.28125 103.438C4.875 107.542 7.01562 111.036 10.4896 114.51C13.9635 117.979 17.4479 120.13 21.5625 121.719C25.5521 123.26 30.0833 124.318 36.7344 124.625C43.401 124.938 45.5208 125 62.5 125C79.4792 125 81.599 124.922 88.2656 124.625C94.9167 124.313 99.4531 123.26 103.438 121.719C107.542 120.125 111.036 117.979 114.51 114.51C117.979 111.036 120.13 107.557 121.719 103.438C123.26 99.4531 124.318 94.9167 124.625 88.2656C124.938 81.599 125 79.4792 125 62.5C125 45.5208 124.922 43.401 124.625 36.7344C124.313 30.0833 123.26 25.5417 121.719 21.5625C120.125 17.4531 117.979 13.9635 114.51 10.4896C111.036 7.01562 107.557 4.86979 103.438 3.28125C99.4531 1.73438 94.9167 0.682292 88.2656 0.375C81.599 0.0625 79.4792 0 62.5 0ZM62.5 11.25C79.1823 11.25 81.1719 11.3333 87.7604 11.6198C93.8542 11.9063 97.1615 12.9167 99.3594 13.7812C102.286 14.9115 104.359 16.2656 106.557 18.4479C108.74 20.6354 110.094 22.7135 111.224 25.6406C112.078 27.8385 113.099 31.1458 113.375 37.2396C113.672 43.8333 113.74 45.8125 113.74 62.5C113.74 79.1875 113.661 81.1719 113.354 87.7604C113.036 93.8542 112.021 97.1615 111.161 99.3594C109.995 102.286 108.667 104.359 106.479 106.557C104.297 108.74 102.187 110.094 99.2917 111.224C97.1042 112.078 93.7448 113.099 87.651 113.375C81.0156 113.672 79.0625 113.74 62.3438 113.74C45.6198 113.74 43.6667 113.661 37.0365 113.354C30.9375 113.036 27.5781 112.021 25.3906 111.161C22.4271 109.995 20.3906 108.667 18.2083 106.479C16.0156 104.297 14.6146 102.187 13.5208 99.2917C12.6615 97.1042 11.651 93.7448 11.3333 87.651C11.099 81.0885 11.0156 79.0625 11.0156 62.4219C11.0156 45.776 11.099 43.7448 11.3333 37.1042C11.651 31.0104 12.6615 27.6563 13.5208 25.4688C14.6146 22.5 16.0156 20.4688 18.2083 18.276C20.3906 16.0938 22.4271 14.6875 25.3906 13.599C27.5781 12.7344 30.8646 11.7188 36.9583 11.4063C43.599 11.1719 45.5521 11.0938 62.2656 11.0938L62.5 11.25ZM62.5 30.4062C44.7656 30.4062 30.4062 44.7813 30.4062 62.5C30.4062 80.2344 44.7813 94.5938 62.5 94.5938C80.2344 94.5938 94.5938 80.2188 94.5938 62.5C94.5938 44.7656 80.2188 30.4062 62.5 30.4062ZM62.5 83.3333C50.9896 83.3333 41.6667 74.0104 41.6667 62.5C41.6667 50.9896 50.9896 41.6667 62.5 41.6667C74.0104 41.6667 83.3333 50.9896 83.3333 62.5C83.3333 74.0104 74.0104 83.3333 62.5 83.3333ZM103.365 29.1406C103.365 33.2813 100 36.6406 95.8646 36.6406C91.724 36.6406 88.3646 33.276 88.3646 29.1406C88.3646 25.0052 91.7292 21.6458 95.8646 21.6458C99.9948 21.6406 103.365 25.0052 103.365 29.1406Z" fill="currentColor"/>
</svg>
