<svg width="125" height="125" viewBox="0 0 125 125" fill="none" xmlns="http://www.w3.org/2000/svg">
<path d="M46.6945 96.6683C46.6945 96.6683 41.9184 99.4496 50.0956 100.387C60.002 101.523 65.0646 101.361 75.9763 99.2881C75.9763 99.2881 78.8513 101.09 82.8566 102.653C58.3822 113.137 27.4755 102.038 46.6945 96.6683V96.6683ZM43.6997 82.9857C43.6997 82.9857 38.3454 86.9493 46.5227 87.7983C57.1062 88.8869 65.4605 88.9806 79.9243 86.1941C79.9243 86.1941 81.9243 88.2202 85.065 89.3296C55.4864 97.9808 22.5275 90.0067 43.6997 82.9857ZM68.9084 59.7666C74.9398 66.7094 67.3251 72.9595 67.3251 72.9595C67.3251 72.9595 82.6326 65.0532 75.6013 55.1572C69.0334 45.9278 63.9969 41.3444 91.263 25.5317C91.263 25.5265 48.4706 36.2141 68.9084 59.7666V59.7666ZM101.274 106.793C101.274 106.793 104.81 109.705 97.3829 111.955C83.2576 116.236 38.5902 117.523 26.189 112.127C21.7306 110.184 30.0953 107.491 32.7203 106.929C35.4652 106.335 37.0329 106.444 37.0329 106.444C32.0693 102.95 4.96989 113.304 23.2671 116.273C73.1637 124.361 114.216 112.627 101.274 106.793ZM48.9914 68.8032C48.9914 68.8032 26.2723 74.1991 40.9497 76.1575C47.1425 76.9856 59.4968 76.7981 71.0022 75.8346C80.4086 75.0429 89.8463 73.3502 89.8463 73.3502C89.8463 73.3502 86.5285 74.7669 84.1274 76.4075C61.0594 82.4753 16.4909 79.6524 29.3245 73.4491C40.1684 68.2095 48.9914 68.8032 48.9914 68.8032ZM89.7421 91.5848C113.196 79.3971 102.352 67.6834 94.7839 69.2668C92.9349 69.6522 92.1015 69.9855 92.1015 69.9855C92.1015 69.9855 92.789 68.9074 94.1068 68.4386C109.081 63.1729 120.597 83.9649 89.2734 92.1994C89.2734 92.1942 89.6379 91.8765 89.7421 91.5848ZM75.6013 0C75.6013 0 88.5911 12.9898 63.2834 32.9693C42.9914 48.9956 58.6583 58.1364 63.2781 68.574C51.4342 57.8812 42.7413 48.48 48.5696 39.7246C57.1322 26.865 80.8461 20.6358 75.6013 0V0ZM51.2936 124.606C73.8044 126.049 108.373 123.809 109.19 113.158C109.19 113.158 107.617 117.195 90.5859 120.403C71.3772 124.018 47.6737 123.596 33.6214 121.278C33.6214 121.273 36.5017 123.658 51.2936 124.606" fill="currentColor"/>
</svg>
