<svg width="125" height="125" viewBox="0 0 125 125" fill="none" xmlns="http://www.w3.org/2000/svg">
<path d="M0 0V125H125V0H0ZM66.119 106.513C64.274 110.262 60.752 112.725 56.671 113.914C50.4 115.354 44.402 114.533 39.94 111.855C36.954 110.023 34.622 107.203 33.039 103.954L42.559 98.124C42.642 98.159 42.892 98.611 43.226 99.195C44.44 101.229 45.487 102.669 47.545 103.68C49.567 104.37 54.006 104.811 55.72 101.253C56.767 99.443 56.434 93.625 56.434 87.188C56.433 77.073 56.48 67 56.48 57H68.189C68.189 68 68.249 78.418 68.189 89.152C68.214 95.732 68.785 101.598 66.119 106.513ZM114.693 103.205C110.623 117.127 87.931 117.579 78.863 108.381C76.947 106.216 75.746 105.085 74.603 102.586C79.422 99.814 79.422 99.814 84.111 97.101C86.658 101.016 89.013 103.169 93.25 104.05C98.998 104.752 104.781 102.777 103.484 96.672C102.151 91.686 91.714 90.473 84.611 85.141C77.4 80.298 75.71 68.53 81.636 61.806C83.611 59.319 86.979 57.463 90.513 56.571L94.201 56.094C101.282 55.951 105.708 57.821 108.957 61.449C109.861 62.365 110.599 63.353 111.979 65.494C108.207 67.898 108.219 67.875 102.816 71.373C101.662 68.887 99.747 67.327 97.723 66.649C94.581 65.697 90.619 66.732 89.797 70.052C89.512 71.075 89.571 72.027 90.024 73.717C91.297 76.62 95.569 77.882 99.401 79.643C110.432 84.117 114.157 88.914 115.073 94.624C115.955 99.54 114.86 102.729 114.693 103.205Z" fill="currentColor"/>
</svg>
