<svg width="125" height="125" viewBox="0 0 125 125" fill="none" xmlns="http://www.w3.org/2000/svg">
<path d="M116.522 61.5625C116.515 57.9773 115.308 54.495 113.089 51.659C110.87 48.823 107.763 46.7929 104.253 45.8854L120 0H41.9666L57.7556 46.0312C54.3471 47.0132 51.3524 49.0604 49.2203 51.8661C47.0882 54.6718 45.9337 58.0849 45.9297 61.5937C45.9297 67.026 48.6701 71.8385 52.8492 74.8021C51.1681 77.1444 49.2543 79.3149 47.1365 81.2812C43.2409 84.9481 38.6821 87.8581 33.6979 89.8593C29.3027 86.927 27.4003 81.7552 29.1183 77.1198C32.8572 75.972 36.0568 73.5395 38.1383 70.2623C40.2197 66.9851 41.0453 63.0799 40.4658 59.2532C39.8863 55.4266 37.9399 51.9314 34.9788 49.4001C32.0177 46.8688 28.2376 45.4687 24.3226 45.4531C19.9732 45.4586 15.8036 47.1686 12.7282 50.208C9.65275 53.2475 7.92252 57.3682 7.91694 61.6666C7.91694 66.0833 9.74564 70.1354 12.6758 73.0312C12.4228 73.5364 12.1646 74.0468 11.9064 74.5885C9.45579 79.5833 6.67321 85.2291 5.60867 91.5625C3.48484 104.229 6.96307 114.396 15.353 120.151C19.8938 123.316 25.3166 125.01 30.8732 125C40.5016 125 50.2775 120.224 59.7266 115.588C66.467 112.297 73.4234 108.859 80.2692 107.193C82.7988 106.578 85.4339 106.219 88.2164 105.818C93.8554 105.021 99.6788 104.193 104.912 101.182C107.9 99.4897 110.478 97.1717 112.465 94.3907C114.451 91.6098 115.798 88.4331 116.411 85.0833C117.328 79.9062 116.411 74.6979 114.071 70.1354C115.642 67.6354 116.522 64.7083 116.522 61.5573V61.5625ZM109.381 61.5625C109.381 66.5885 105.244 70.6771 100.158 70.6771C98.2432 70.6718 96.3771 70.0784 94.8181 68.9791C93.2592 67.8797 92.0845 66.3287 91.4565 64.5407C90.8285 62.7526 90.7784 60.8159 91.3129 58.9984C91.8475 57.1809 92.9404 55.5726 94.4403 54.3958L94.4772 54.3594C94.7724 54.1406 95.0991 53.9219 95.4258 53.7083C95.4258 53.7083 95.468 53.7083 95.468 53.6719C95.6156 53.5989 95.7579 53.4896 95.9054 53.4114C95.9423 53.4114 95.9792 53.3802 96.0161 53.3802C96.1636 53.3073 96.3481 53.2344 96.5273 53.1614C96.7117 53.0885 96.8962 53.0208 97.0437 52.9479C97.0806 52.9479 97.1123 52.9114 97.1491 52.9114C97.2967 52.875 97.4443 52.8021 97.5918 52.7656C97.6287 52.7656 97.6972 52.7291 97.7394 52.7291C97.9186 52.6927 98.0661 52.6562 98.2506 52.625H98.2875L98.8356 52.5104C98.8724 52.5104 98.941 52.5104 98.9831 52.4739C99.1307 52.4739 99.273 52.4375 99.4205 52.4375H99.605C99.7894 52.4375 99.9739 52.401 100.19 52.401H100.664C100.812 52.401 100.928 52.401 101.07 52.4375H101.144C101.434 52.4739 101.729 52.5104 102.024 52.5833C104.103 53.0236 105.967 54.1541 107.305 55.7868C108.644 57.4195 109.376 59.4559 109.381 61.5573V61.5625ZM52.1852 7.23958H109.787L96.5642 45.7812C96.0161 45.8854 95.468 46.0677 94.9199 46.25L81.007 18.2031L67.052 46.0677C66.5039 45.8906 65.9137 45.7812 65.3287 45.6719L52.1852 7.23437V7.23958ZM78.3667 58.4114C77.6931 55.0707 75.9619 52.0283 73.4234 49.7239L81.0018 34.5989L88.6538 50.0521C86.3877 52.2916 84.7382 55.1562 84.0795 58.4114H78.3615H78.3667ZM60.0218 52.6927C60.2009 52.6562 60.3485 52.6198 60.5329 52.5885H60.6384C60.7912 52.5469 60.9335 52.5469 61.081 52.5104H61.2286C61.3762 52.5104 61.4868 52.4739 61.6291 52.4739H63.0573C63.2049 52.4739 63.3155 52.5104 63.4262 52.5104C63.5 52.5104 63.5316 52.5104 63.6107 52.5469C63.7529 52.5833 63.8636 52.5833 64.0112 52.6198C64.0481 52.6198 64.0849 52.6198 64.1587 52.6562L64.6699 52.7604H64.7068C64.8544 52.8021 65.0019 52.8385 65.1442 52.9114C65.1811 52.9114 65.218 52.9479 65.2918 52.9479C65.4025 52.9844 65.55 53.0208 65.6607 53.0885C65.6976 53.0885 65.7345 53.125 65.7661 53.125C65.9137 53.1979 66.0612 53.2344 66.2088 53.3073H66.2457C66.4149 53.3704 66.5745 53.4563 66.72 53.5625H66.7569C66.9044 53.6354 67.052 53.7396 67.1995 53.8125C67.2364 53.8125 67.2364 53.8489 67.268 53.8489C67.4156 53.9219 67.5316 54.0312 67.6738 54.1041L67.7107 54.1406C68.1481 54.4635 68.5539 54.8281 68.9545 55.1875L68.9914 55.2239C70.6233 56.9228 71.5294 59.1783 71.521 61.5208C71.4401 63.8862 70.4324 66.128 68.7107 67.773C66.989 69.418 64.6879 70.3375 62.2931 70.3375C59.8984 70.3375 57.5973 69.418 55.8756 67.773C54.1539 66.128 53.1462 63.8862 53.0653 61.5208C53.0596 59.4926 53.7416 57.521 55.0026 55.9207C56.2635 54.3205 58.0306 53.184 60.0218 52.6927V52.6927ZM23.9853 52.4375C29.0761 52.4375 33.2131 56.5312 33.2131 61.5573C33.2131 66.5833 29.0761 70.6771 23.9905 70.6771C18.905 70.6771 14.7574 66.5885 14.7574 61.5625C14.7574 56.5364 18.8997 52.4375 23.9853 52.4375V52.4375ZM109.165 83.8177C108.748 86.1331 107.82 88.3291 106.446 90.2494C105.073 92.1697 103.287 93.7668 101.218 94.927C97.2229 97.2083 92.3165 97.9322 87.1519 98.6562C84.248 99.0239 81.3637 99.5297 78.509 100.172C70.8938 102.021 63.5738 105.641 56.4698 109.115C47.3842 113.562 38.8151 117.76 30.8732 117.76C26.8006 117.785 22.8254 116.531 19.5216 114.177C11.4637 108.677 11.8642 98.3645 12.8181 92.7187C13.6982 87.4323 16.1487 82.4791 18.4939 77.7343C18.6415 77.4479 18.7521 77.1927 18.8997 76.901C19.7007 77.1927 20.5439 77.4114 21.424 77.5573C20.0327 85.2291 23.9853 93.151 31.6795 97.0625L33.0708 97.7864L34.5675 97.2447C40.9759 95 46.9099 91.3437 52.1483 86.4583C55.0411 83.7925 57.5979 80.7917 59.7635 77.5208C60.6067 77.6614 61.4499 77.6979 62.2931 77.6979C65.9183 77.6896 69.4389 76.4963 72.3062 74.3041C75.1736 72.1119 77.2266 69.0439 78.1454 65.5781H84.2955C85.2083 69.0491 87.2612 72.1225 90.1321 74.316C93.003 76.5095 96.5295 77.699 100.158 77.6979C103.194 77.6979 106.008 76.8646 108.432 75.4583C109.381 78.1666 109.676 80.9948 109.165 83.8177Z" fill="currentColor"/>
</svg>
