<svg width="125" height="125" viewBox="0 0 125 125" fill="none" xmlns="http://www.w3.org/2000/svg">
<path d="M7.94272 30.5729C-3.13019 46.4792 -1.7552 67.1667 6.70835 84.0573C6.90106 84.4688 7.1146 84.8594 7.32293 85.25C7.44272 85.5208 7.57814 85.7708 7.72397 86.0313C7.79168 86.1719 7.88543 86.3229 7.96876 86.4583C8.10418 86.7292 8.25001 86.9896 8.39064 87.25L9.20835 88.6354C9.3646 88.8906 9.50522 89.1406 9.6771 89.3958C9.96876 89.8854 10.3021 90.3698 10.6042 90.8594C10.7396 91.0677 10.8646 91.2656 11.0156 91.4688C11.5207 92.2639 12.0594 93.0372 12.6302 93.7865C13.0365 94.3438 13.4427 94.8854 13.8802 95.4271C14.0208 95.625 14.1823 95.8229 14.3281 96.026L15.474 97.4271C15.6198 97.5833 15.7604 97.776 15.9115 97.9427C16.4219 98.5573 16.9636 99.1563 17.5052 99.7656L17.5313 99.7969C18.1926 100.631 18.934 101.399 19.7448 102.089C20.1615 102.521 20.5781 102.948 21.0208 103.365L21.5469 103.87C22.125 104.417 22.7083 104.958 23.3177 105.479C23.3281 105.479 23.3333 105.49 23.3438 105.495L23.6406 105.755C24.1719 106.219 24.7083 106.682 25.2552 107.109L25.9063 107.656C26.349 108.01 26.8125 108.349 27.2604 108.698L27.974 109.245C28.4583 109.609 28.974 109.969 29.4688 110.323C29.6511 110.453 29.8333 110.583 30.0208 110.703L30.1771 110.823L31.6354 111.786L32.2604 112.203C33.0313 112.693 33.7917 113.161 34.5521 113.62C34.7656 113.724 34.9896 113.849 35.1927 113.974C35.7552 114.297 36.3386 114.625 36.9063 114.927C37.2188 115.104 37.5417 115.255 37.8646 115.417C38.2552 115.635 38.6615 115.849 39.0833 116.068C39.1841 116.098 39.2817 116.139 39.375 116.188C39.5469 116.266 39.7083 116.349 39.875 116.432C40.5 116.745 41.1511 117.047 41.8281 117.344C41.9531 117.396 42.0886 117.448 42.224 117.521C42.974 117.849 43.7292 118.161 44.5052 118.469C44.6823 118.521 44.8698 118.609 45.0521 118.677C45.7552 118.943 46.4792 119.214 47.1927 119.469L47.4531 119.563C48.2552 119.833 49.0417 120.094 49.849 120.344C50.0365 120.396 50.2292 120.464 50.4271 120.516C51.2604 120.766 52.0625 121.062 52.8958 121.229C106.401 130.979 121.948 89.0573 121.948 89.0573C108.885 106.068 85.7083 110.552 63.75 105.563C62.9375 105.375 62.125 105.115 61.3021 104.875C60.3109 104.581 59.3263 104.265 58.349 103.927L58.0261 103.802C57.3177 103.563 56.6354 103.297 55.9427 103.031C55.7543 102.955 55.5632 102.885 55.3698 102.823C54.599 102.51 53.8594 102.193 53.1146 101.865C52.9531 101.813 52.8177 101.74 52.6563 101.677C52.0253 101.387 51.3968 101.092 50.7708 100.792C50.5833 100.709 50.3991 100.618 50.2188 100.521C49.7292 100.292 49.2396 100.026 48.7604 99.776C48.4314 99.6181 48.1066 99.4513 47.7865 99.276C47.1927 98.9635 46.6042 98.625 46.0156 98.3021C45.8386 98.1771 45.6354 98.0729 45.4323 97.9583C44.6626 97.502 43.9004 97.0331 43.1458 96.5521C42.9365 96.4236 42.7315 96.2881 42.5313 96.1458C41.9785 95.8034 41.4366 95.4439 40.9063 95.0677C40.724 94.9479 40.5573 94.8177 40.3698 94.6875C39.8507 94.3292 39.3385 93.9611 38.8333 93.5833C38.6146 93.4063 38.3802 93.2396 38.1458 93.0625C37.6875 92.6979 37.224 92.3594 36.7656 91.9792L36.1511 91.4844C35.5595 91.0103 34.9778 90.5241 34.4063 90.026C34.3472 89.9663 34.2827 89.9123 34.2136 89.8646L32.4063 88.2188L31.8854 87.7292C31.4583 87.2917 31.0208 86.875 30.5833 86.4479L30.0729 85.9271C29.5228 85.3796 28.9861 84.8187 28.4636 84.2448L28.3854 84.1615C27.8333 83.5573 27.2917 82.9375 26.7552 82.3125C26.6146 82.1563 26.4792 81.9792 26.3386 81.8073L25.1563 80.3646C24.5557 79.5929 23.9654 78.8133 23.3854 78.026C11.2083 61.4063 6.8021 38.4583 16.5469 19.6406M42.2917 17.1771C34.2708 28.6927 34.7188 44.099 40.9688 56.2813C42.0016 58.3311 43.1818 60.3033 44.5 62.1823C45.6979 63.901 47.0208 65.9375 48.6302 67.3281C49.1875 67.9635 49.7917 68.5781 50.4219 69.2031L50.8906 69.6719C51.4844 70.2448 52.099 70.8021 52.7136 71.3646L52.7969 71.4323C53.4993 72.0455 54.2184 72.6395 54.9531 73.2135C55.1302 73.3333 55.2813 73.474 55.4531 73.5938C56.1823 74.1563 56.9219 74.6979 57.6823 75.2396L57.7604 75.2865C58.0833 75.5208 58.4271 75.7344 58.7917 75.9635C58.9375 76.0573 59.1042 76.1823 59.2604 76.276C59.8125 76.6302 60.3542 76.9635 60.9167 77.3021C61.0052 77.3385 61.0834 77.3854 61.1667 77.4219C61.6354 77.7083 62.1458 77.9844 62.6354 78.2396C62.8073 78.3438 62.974 78.4219 63.1563 78.5208C63.5 78.6927 63.8438 78.875 64.1823 79.0521L64.349 79.125C65.0521 79.474 65.7708 79.7969 66.474 80.1146C66.6511 80.1875 66.8021 80.2448 66.9531 80.3177C67.5313 80.5677 68.1198 80.8073 68.7031 81.0313C68.9636 81.1198 69.2083 81.224 69.4531 81.3021C69.9844 81.5 70.5469 81.6823 71.0677 81.8646L71.7969 82.099C72.5625 82.3333 73.3333 82.6406 74.1354 82.776C115.438 89.6146 125 57.8021 125 57.8021C116.391 70.1979 99.7292 76.099 81.974 71.4896C81.1881 71.2866 80.4082 71.0608 79.6354 70.8125C79.3854 70.7396 79.1667 70.6615 78.9271 70.5885C78.3854 70.401 77.8281 70.224 77.3021 70.0208L76.5521 69.7396C75.9636 69.5052 75.3698 69.2865 74.8021 69.0365C74.625 68.9583 74.4636 68.9063 74.3281 68.8281C73.599 68.5 72.8646 68.1771 72.1511 67.8281L71.0781 67.2708L70.4583 66.9583C69.9914 66.7103 69.5311 66.4498 69.0781 66.1771C68.9671 66.1226 68.8593 66.0617 68.7552 65.9948C68.2031 65.651 67.625 65.3177 67.099 64.9635C66.9219 64.8646 66.7604 64.7448 66.5938 64.6406L65.5104 63.9323C64.7604 63.4115 64.0261 62.849 63.2813 62.3021C63.1146 62.151 62.9531 62.026 62.7917 61.8906C54.9844 55.7552 48.8281 47.3594 45.9063 37.8646C42.8333 27.9844 43.5104 16.9115 48.8229 7.91667M71.1771 7.15104C66.4427 14.099 65.9896 22.724 69.25 30.3802C72.7136 38.5208 79.7917 44.9115 88.0417 47.9323C88.3802 48.0625 88.7084 48.1719 89.0625 48.2969L89.5208 48.4375C90 48.5938 90.4844 48.7656 90.9792 48.875C113.797 53.276 119.974 37.1563 121.635 34.7917C116.203 42.5938 107.094 44.4635 95.9167 41.7448C95.0061 41.5172 94.1088 41.239 93.2292 40.9115C92.1338 40.5273 91.0594 40.0857 90.0104 39.5885C88.0249 38.6281 86.1376 37.4769 84.375 36.151C74.3646 28.5625 68.1615 14.0885 74.6927 2.29688" fill="currentColor"/>
</svg>
