<svg width="125" height="125" viewBox="0 0 125 125" fill="none" xmlns="http://www.w3.org/2000/svg">
<path d="M62.4963 1C60.5369 1.0002 58.9481 2.7651 58.9483 4.94218C58.9483 4.97559 58.9552 5.00752 58.9559 5.04073C58.953 5.33655 58.9387 5.69292 58.9483 5.95047C58.9951 7.20614 59.2688 8.16718 59.4335 9.32407C59.732 11.8002 59.9821 13.8527 59.8277 15.7604C59.6777 16.4798 59.1478 17.1377 58.6754 17.5951L58.592 19.0961C56.4628 19.2725 54.3193 19.5956 52.1784 20.0817C42.9659 22.1734 35.0341 26.9188 28.9953 33.3259C28.6035 33.0586 27.918 32.5668 27.7141 32.4161C27.0807 32.5017 26.4404 32.6971 25.6066 32.2115C24.0188 31.1427 22.5727 29.6674 20.8229 27.8902C20.0211 27.0401 19.4405 26.2306 18.4879 25.4112C18.2716 25.2251 17.9414 24.9734 17.6995 24.782C16.9547 24.1882 16.0763 23.8785 15.228 23.8495C14.1373 23.8121 13.0874 24.2386 12.4003 25.1004C11.1787 26.6325 11.5698 28.9741 13.2721 30.3313C13.2894 30.3451 13.3078 30.3558 13.3252 30.3692C13.5591 30.5589 13.8455 30.8018 14.0605 30.9606C15.0714 31.7069 15.9948 32.089 17.002 32.6815C19.124 33.9919 20.8831 35.0785 22.2785 36.3886C22.8233 36.9695 22.9186 37.9929 22.9911 38.4355L24.1283 39.4514C18.0407 48.6127 15.2233 59.9288 16.8883 71.4589L15.4024 71.891C15.0108 72.3967 14.4574 73.1925 13.8786 73.43C12.053 74.005 9.99845 74.2161 7.51803 74.4762C6.35349 74.573 5.34869 74.5152 4.11411 74.7491C3.84238 74.8006 3.46378 74.8992 3.16647 74.9689C3.15613 74.9711 3.14648 74.9742 3.13614 74.9765C3.11994 74.9803 3.09865 74.9881 3.08308 74.9917C0.991868 75.497 -0.35153 77.4191 0.0809548 79.3129C0.513542 81.2072 2.55619 82.3591 4.65995 81.9057C4.67514 81.9022 4.69719 81.9016 4.71302 81.8981C4.73677 81.8927 4.75768 81.8811 4.78125 81.8754C5.07451 81.811 5.44202 81.7394 5.69856 81.6707C6.91235 81.3457 7.79142 80.8682 8.88263 80.4501C11.2302 79.6081 13.1746 78.9047 15.0688 78.6306C15.86 78.5687 16.6935 79.1188 17.1081 79.3508L18.6547 79.0855C22.2136 90.1194 29.672 99.0378 39.1161 104.634L38.4717 106.18C38.704 106.781 38.9602 107.593 38.7872 108.187C38.0985 109.972 36.9189 111.857 35.5757 113.959C34.9254 114.929 34.2598 115.683 33.6729 116.794C33.5324 117.06 33.3536 117.468 33.218 117.749C32.3061 119.7 32.975 121.947 34.7267 122.791C36.4893 123.639 38.6772 122.744 39.6241 120.789C39.6255 120.786 39.6303 120.784 39.6316 120.782C39.6326 120.779 39.6307 120.776 39.6316 120.774C39.7665 120.497 39.9576 120.133 40.0713 119.872C40.574 118.72 40.7413 117.733 41.0948 116.62C42.0335 114.262 42.5493 111.787 43.8416 110.246C44.1955 109.823 44.7724 109.661 45.3705 109.501L46.1741 108.045C54.4074 111.206 63.6232 112.054 72.8293 109.963C74.9295 109.487 76.957 108.869 78.917 108.129C79.1428 108.529 79.5625 109.299 79.6751 109.493C80.2829 109.691 80.9464 109.793 81.487 110.593C82.4538 112.244 83.115 114.199 83.9205 116.559C84.2741 117.673 84.4488 118.66 84.9515 119.811C85.0661 120.074 85.2562 120.443 85.3912 120.721C86.3361 122.682 88.5309 123.58 90.2962 122.73C92.0476 121.886 92.7173 119.639 91.8049 117.689C91.6693 117.408 91.4829 116.999 91.3424 116.733C90.7555 115.622 90.09 114.876 89.4396 113.906C88.0962 111.804 86.9821 110.059 86.2934 108.273C86.0054 107.352 86.342 106.779 86.5663 106.18C86.432 106.026 86.1445 105.157 85.975 104.748C95.7898 98.9524 103.029 89.7015 106.429 79.0173C106.888 79.0894 107.686 79.2306 107.945 79.2826C108.479 78.9307 108.969 78.4715 109.931 78.5473C111.826 78.8212 113.77 79.5249 116.118 80.3667C117.209 80.7847 118.088 81.2699 119.302 81.5949C119.558 81.6635 119.926 81.7276 120.219 81.792C120.242 81.7978 120.263 81.8093 120.287 81.8147C120.303 81.8183 120.325 81.8188 120.34 81.8223C122.444 82.2752 124.487 81.1239 124.919 79.2295C125.351 77.3356 124.008 75.413 121.917 74.9083C121.613 74.8391 121.181 74.7217 120.886 74.6657C119.651 74.4319 118.647 74.4896 117.482 74.3928C115.002 74.1329 112.947 73.9215 111.122 73.3466C110.377 73.0578 109.848 72.1721 109.59 71.8076L108.157 71.3907C108.9 66.0161 108.7 60.4226 107.414 54.8259C106.117 49.1772 103.824 44.0108 100.766 39.459C101.133 39.1249 101.827 38.5102 102.024 38.3294C102.082 37.6928 102.032 37.0253 102.691 36.3204C104.087 35.0102 105.846 33.9238 107.968 32.6133C108.975 32.0207 109.906 31.6388 110.917 30.8923C111.145 30.7236 111.458 30.4563 111.698 30.2631C113.4 28.9055 113.791 26.5639 112.57 25.0321C111.348 23.5004 108.98 23.3561 107.278 24.7137C107.036 24.9056 106.707 25.1559 106.489 25.343C105.537 26.1624 104.949 26.9719 104.147 27.822C102.397 29.5992 100.951 31.0819 99.3632 32.1508C98.6752 32.5514 97.6675 32.4128 97.2102 32.3858L95.8607 33.3486C88.1659 25.2798 77.6892 20.121 66.4082 19.1189C66.3766 18.6461 66.3353 17.7916 66.3248 17.5344C65.8629 17.0925 65.305 16.7152 65.1648 15.7604C65.0105 13.8527 65.2682 11.8002 65.5666 9.32407C65.7314 8.16718 66.0051 7.20614 66.0518 5.95047C66.0625 5.66502 66.0454 5.25082 66.0443 4.94218C66.044 2.7651 64.4557 0.999801 62.4963 1ZM58.0538 28.5194L57 47.1311L56.9242 47.169C56.8535 48.834 55.4832 50.1635 53.8008 50.1635C53.1116 50.1635 52.4755 49.9422 51.9585 49.5646L51.9282 49.5798L36.6674 38.7615C41.3577 34.1495 47.3569 30.7412 54.2708 29.1714C55.5337 28.8847 56.7961 28.6719 58.0538 28.5194ZM66.9464 28.5194C75.0184 29.5122 82.4835 33.1673 88.2039 38.7691L73.0416 49.5191L72.9886 49.4964C71.6428 50.4793 69.7467 50.2354 68.6976 48.9202C68.2679 48.3814 68.0425 47.7479 68.0153 47.1084L68.0002 47.1008L66.9464 28.5194ZM31.1332 45.7134L45.0673 58.1768L45.0521 58.2526C46.3099 59.346 46.4953 61.2433 45.4464 62.5587C45.0167 63.0975 44.4415 63.4589 43.824 63.6276L43.8088 63.6882L25.9477 68.8434C25.0387 60.5308 26.9978 52.4503 31.1332 45.7134ZM93.7608 45.721C95.8312 49.0767 97.3989 52.8247 98.3322 56.888C99.2543 60.9025 99.4858 64.9099 99.1055 68.7827L81.1534 63.6124L81.1383 63.5366C79.5307 63.0973 78.5427 61.462 78.917 59.8219C79.0703 59.15 79.427 58.5816 79.9101 58.1616L79.9025 58.1237L93.7608 45.721ZM59.6382 59.1396H65.3468L68.8948 63.5745L67.6211 69.1087L62.4963 71.5726L57.3563 69.1011L56.0827 63.5669L59.6382 59.1396ZM77.939 74.317C78.1816 74.3047 78.4231 74.3266 78.6592 74.37L78.6896 74.3321L97.1647 77.4555C94.4609 85.052 89.287 91.6329 82.374 96.0369L75.2022 78.714L75.225 78.6837C74.5662 77.1529 75.2255 75.3578 76.7412 74.6278C77.1293 74.4409 77.5347 74.3374 77.939 74.317ZM46.9095 74.3928C48.3194 74.4125 49.584 75.3911 49.9116 76.8263C50.065 77.4982 49.9904 78.1639 49.7373 78.7519L49.7903 78.8201L42.6944 95.9686C36.0601 91.7114 30.7759 85.3371 27.9491 77.5162L46.2651 74.4079L46.2955 74.4458C46.5003 74.4081 46.7081 74.39 46.9095 74.3928ZM62.3826 81.9057C62.8737 81.8876 63.372 81.9884 63.8457 82.2165C64.4667 82.5155 64.9463 82.9863 65.2482 83.5508H65.3165L74.3456 99.8653C73.1738 100.258 71.9691 100.594 70.737 100.874C63.8316 102.441 56.9482 101.966 50.7152 99.8426L59.7216 83.5583H59.7368C60.2772 82.5481 61.3021 81.9454 62.3826 81.9057Z" fill="currentColor"/>
</svg>
