<svg width="125" height="125" viewBox="0 0 125 125" fill="none" xmlns="http://www.w3.org/2000/svg">
<path d="M115.99 100.964H9.01042C7.82715 100.964 6.65547 100.73 5.56228 100.278C4.46909 99.8248 3.47578 99.1611 2.63909 98.3244C1.8024 97.4878 1.13869 96.4944 0.685877 95.4013C0.233061 94.3081 0 93.1364 0 91.9531L0 33.0469C0 30.6572 0.949309 28.3653 2.63909 26.6755C4.32887 24.9858 6.62071 24.0365 9.01042 24.0365H115.99C117.173 24.0365 118.345 24.2695 119.438 24.7223C120.531 25.1751 121.524 25.8388 122.361 26.6755C123.198 27.5122 123.861 28.5055 124.314 29.5987C124.767 30.6919 125 31.8636 125 33.0469V91.9427C125.001 93.1264 124.768 94.2986 124.316 95.3924C123.863 96.4862 123.2 97.4802 122.363 98.3174C121.526 99.1546 120.532 99.8188 119.439 100.272C118.345 100.725 117.173 100.964 115.99 100.964ZM30.0469 82.9323V59.4948L42.0677 74.5208L54.0833 59.4948V82.9323H66.1042V42.0729H54.0833L42.0677 57.099L30.0469 42.0729H18.0208V82.9427L30.0469 82.9323ZM110.583 62.5H98.5573V42.0677H86.5417V62.5H74.5208L92.5469 83.5365L110.583 62.5Z" fill="currentColor"/>
</svg>
