<svg width="125" height="125" viewBox="0 0 125 125" fill="none" xmlns="http://www.w3.org/2000/svg">
<path d="M69.401 0C64.6771 5.8125 56.6823 11.9896 65.4011 25.0729C68.3073 28.3438 69.7656 35.2448 69.401 37.4271C69.401 37.4271 82.4844 29.8021 74.4896 15.9896C69.7656 8.72396 67.5833 2.54167 69.401 0ZM54.8698 13.4479C51.599 17.4427 46.5104 21.4427 52.3229 30.526C54.1458 32.3438 54.8698 37.0677 54.8698 38.5208C54.8698 38.5208 63.5833 33.4271 58.1354 23.9792C54.8646 19.2552 53.4167 14.901 54.8698 13.4479ZM28.3386 44.6979C27.3757 44.7007 26.4532 45.0847 25.7728 45.7661C25.0925 46.4474 24.7097 47.3705 24.7083 48.3333C24.7083 60.6875 26.5261 103.203 44.6927 123.917C45.4219 124.641 46.151 125 47.2396 125H77.7604C78.8542 125 79.5833 124.641 80.3073 123.917C98.474 103.563 100.292 61.0521 100.292 48.3333C100.29 47.3691 99.907 46.4447 99.2257 45.7624C98.5444 45.0801 97.6205 44.6955 96.6563 44.6927H62.5L28.3386 44.6979ZM38.875 55.9635H86.8438C88.6615 55.9635 90.474 57.4115 90.474 59.5938C90.474 69.7656 88.6615 98.474 76.3073 113.375C75.2135 114.104 74.4844 114.458 73.3958 114.458H51.9583C51.4815 114.472 51.0074 114.383 50.5685 114.196C50.1297 114.009 49.7367 113.729 49.4167 113.375C37.0625 98.8438 35.6042 69.7656 35.2396 59.5938C35.2396 57.7708 36.6979 55.9635 38.875 55.9635ZM84.6667 80.6719C84.6667 80.6719 84.2969 83.9375 75.5781 87.2083C63.5833 91.5677 42.5156 88.6667 42.5156 88.6667C44.3333 96.2969 47.2344 103.563 51.5938 109.016C51.9583 109.745 53.0521 110.104 53.776 110.104H71.9479C72.6771 110.104 73.4011 109.74 74.125 109.016C80.3021 101.75 83.2136 90.4844 84.6667 80.6719Z" fill="currentColor"/>
</svg>
