<svg width="125" height="125" viewBox="0 0 125 125" fill="none" xmlns="http://www.w3.org/2000/svg">
<path d="M89.5469 49.7656C82.9635 20.7031 67.401 11.151 65.7292 7.5C64.2708 5.44792 62.9687 2.53125 61.901 0C61.7135 2.57813 61.6146 3.56771 59.1771 6.16667C55.4115 9.11458 36.0625 25.3438 34.4896 58.3542C33.0208 89.1458 56.7292 107.495 59.9479 109.833L60.3125 110.094C60.9828 115.051 61.5558 120.021 62.0312 125H64.5365C65.1302 119.625 66.0156 114.292 67.1927 109.01C69.3646 107.469 70.3385 106.599 71.6198 105.401C77.6873 99.788 82.5093 92.9641 85.7741 85.3705C89.0388 77.7769 90.6737 69.5827 90.5729 61.3177C90.625 57.0781 90.0365 52.6615 89.5469 49.7656ZM61.7552 92.4479C61.7552 92.4479 61.7552 49.2656 63.1875 49.2708C64.2969 49.2708 65.7396 104.974 65.7396 104.974C63.7552 104.74 61.7552 95.8073 61.7552 92.4479Z" fill="currentColor"/>
</svg>
