<svg width="125" height="125" viewBox="0 0 125 125" fill="none" xmlns="http://www.w3.org/2000/svg">
<path d="M85.4427 28.651C84.8438 28.651 84.4375 28.724 84.0156 28.8229V28.8906H84.0885C84.3698 29.4323 84.849 29.8281 85.2031 30.3125C85.4844 30.8698 85.724 31.4271 86.0052 31.9792L86.0781 31.901C86.5677 31.5573 86.8073 31.0052 86.8073 30.1667C86.599 29.9219 86.5677 29.6771 86.3906 29.4375C86.1823 29.0885 85.7344 28.9167 85.4531 28.6406L85.4427 28.651ZM30.0521 97.3698H25.224C25.0882 89.6968 24.619 82.0333 23.8177 74.401H23.776L16.4323 97.3698H12.7604L5.46875 74.401H5.41667C4.84632 82.0453 4.50762 89.705 4.40104 97.3698H0C0.286458 87.1302 1 77.526 2.13542 68.5677H8.125L15.0781 89.7344H15.1198L22.1354 68.5677H27.8385C29.099 79.0625 29.8385 88.6719 30.0677 97.3698H30.0521ZM50.974 76.1198C49.0052 86.7708 46.4115 94.5208 43.2031 99.349C40.6927 103.078 37.9427 104.937 34.9583 104.937C34.1615 104.937 33.1875 104.698 32.0104 104.219V101.646C32.5833 101.734 33.2604 101.781 34.0208 101.781C35.4167 101.781 36.5365 101.391 37.3906 100.625C38.4167 99.6875 38.9271 98.6354 38.9271 97.474C38.9271 96.6667 38.526 95.026 37.7292 92.5573L32.4479 76.1198H37.1875L40.974 88.4115C41.8281 91.2031 42.1875 93.151 42.0417 94.2604C44.125 88.7187 45.5729 82.6615 46.3906 76.1198H50.974ZM115.167 97.3698H101.469V68.5677H106.078V93.8281H115.167V97.3698ZM97.875 98.0729L92.5833 95.4687C93.0521 95.0729 93.5052 94.6458 93.9115 94.1667C96.1667 91.5312 97.2865 87.6146 97.2865 82.4323C97.2865 72.901 93.5469 68.1302 86.0625 68.1302C82.3958 68.1302 79.5313 69.3385 77.4688 71.7604C75.2292 74.4062 74.1042 78.3021 74.1042 83.4531C74.1042 88.5156 75.0938 92.2344 77.0938 94.599C78.9167 96.7344 81.6615 97.8021 85.3385 97.8021C86.7135 97.8021 87.974 97.6302 89.1146 97.2917L96.0156 101.312L97.8906 98.0729H97.875ZM80.7292 91.6042C79.5573 89.7292 78.974 86.7083 78.974 82.5625C78.974 75.3073 81.1823 71.6771 85.5885 71.6771C87.8958 71.6771 89.599 72.5469 90.6771 74.2812C91.8438 76.1667 92.4271 79.1562 92.4271 83.2552C92.4271 90.5677 90.2188 94.2344 85.8125 94.2344C83.4948 94.2344 81.8021 93.3646 80.7188 91.6302L80.7292 91.6042ZM72.0938 89.3906C72.0938 91.8385 71.1979 93.849 69.4063 95.4115C67.6146 96.974 65.224 97.7552 62.1979 97.7552C59.3698 97.7552 56.6563 96.8594 54.0052 95.0729L55.2396 92.5937C57.5208 93.7396 59.5781 94.3021 61.4375 94.3021C63.1667 94.3021 64.526 93.9219 65.5156 93.1562C66.0102 92.7834 66.4096 92.2988 66.6812 91.7421C66.9527 91.1854 67.0887 90.5724 67.0781 89.9531C67.0781 88.2344 65.8802 86.776 63.7031 85.5521C61.6823 84.4427 57.6458 82.1302 57.6458 82.1302C55.4479 80.5312 54.3542 78.8177 54.3542 76C54.3542 73.6562 55.1719 71.7812 56.8021 70.349C58.4427 68.901 60.5521 68.1875 63.1563 68.1875C65.8229 68.1875 68.2604 68.8958 70.4479 70.3229L69.3385 72.8021C67.5906 72.0343 65.7058 71.6268 63.7969 71.6042C62.3229 71.6042 61.1823 71.9583 60.3906 72.6771C59.9889 73.0099 59.665 73.4267 59.4418 73.8983C59.2187 74.3698 59.1016 74.8846 59.099 75.4062C59.099 77.1146 60.3177 78.5833 62.5677 79.8333C64.6146 80.9531 68.75 83.3229 68.75 83.3229C71.0052 84.9115 72.125 86.6042 72.125 89.4062L72.0938 89.3906ZM120.958 58.9115C118.172 58.8385 116.01 59.1198 114.203 59.8906C113.682 60.099 112.849 60.099 112.776 60.7604C113.063 61.0365 113.104 61.4896 113.349 61.875C113.766 62.5729 114.484 63.5052 115.151 63.9948C115.88 64.5677 116.609 65.1198 117.375 65.6094C118.729 66.4427 120.266 66.9375 121.594 67.776C122.349 68.2656 123.12 68.8854 123.885 69.4062C124.266 69.6667 124.51 70.1354 125 70.3021V70.1979C124.76 69.8854 124.688 69.4323 124.453 69.0833C124.104 68.7344 123.755 68.4219 123.411 68.0781C122.389 66.7306 121.169 65.5453 119.792 64.5625C118.677 63.8021 116.24 62.7396 115.781 61.4635L115.714 61.3906C116.474 61.3229 117.38 61.0469 118.109 60.8385C119.292 60.526 120.375 60.5937 121.599 60.2865C122.151 60.1458 122.708 59.974 123.266 59.7969V59.4844C122.641 58.8594 122.172 58.0104 121.526 57.4271C119.723 55.8514 117.801 54.4182 115.776 53.1406C114.682 52.4427 113.297 51.9948 112.146 51.401C111.729 51.1927 111.031 51.0885 110.792 50.7396C110.167 49.9792 109.802 48.9687 109.359 48.0625C108.337 46.0786 107.386 44.0581 106.51 42.0052C105.885 40.6406 105.505 39.2813 104.74 38.0313C101.146 32.1094 97.2552 28.5208 91.2708 25.0104C89.9844 24.2813 88.4427 23.9688 86.8125 23.5833C85.9427 23.5417 85.0729 23.4792 84.2083 23.4427C83.6354 23.1979 83.0833 22.5365 82.5938 22.2188C80.6146 20.9688 75.4896 18.2604 74.0313 21.8437C73.0938 24.1042 75.4219 26.3333 76.2292 27.4792C76.8281 28.276 77.5833 29.1875 78 30.0833C78.2448 30.6875 78.3125 31.3073 78.5573 31.9375C79.1094 33.4688 79.6354 35.1771 80.3646 36.6094C80.7448 37.3385 81.1615 38.1042 81.651 38.7604C81.9323 39.1406 82.4115 39.3177 82.5208 39.9427C82.0313 40.651 82 41.6823 81.7188 42.5469C80.4688 46.4896 80.9583 51.3646 82.7292 54.2656C83.2865 55.1302 84.6146 57.0469 86.3906 56.3125C87.9531 55.6875 87.6094 53.7083 88.0573 51.9635C88.1615 51.5469 88.0938 51.2708 88.3073 50.9896V51.0677C88.7969 52.0469 89.2865 52.9792 89.7344 53.9583C90.8073 55.6667 92.6823 57.4375 94.25 58.6198C95.0833 59.2448 95.7448 60.3281 96.7865 60.7135V60.6094H96.7083C96.4844 60.3073 96.1875 60.1615 95.9063 59.9167C95.2459 59.2702 94.6364 58.5737 94.0833 57.8333C92.6159 55.8282 91.3147 53.7066 90.1927 51.4896C89.6198 50.3958 89.1406 49.2188 88.6823 48.1406C88.474 47.724 88.474 47.099 88.125 46.8906C87.6042 47.651 86.8385 48.3125 86.4583 49.25C85.7969 50.75 85.7292 52.5937 85.4792 54.5104C85.3385 54.5469 85.4063 54.5104 85.3385 54.5833C84.224 54.3125 83.8438 53.1563 83.4271 52.1875C82.3854 49.7135 82.2135 45.7396 83.1146 42.8906C83.3594 42.1615 84.401 39.8594 83.9844 39.1615C83.7656 38.5 83.0781 38.1198 82.6979 37.5833C82.2088 36.8851 81.7901 36.1402 81.4479 35.3594C80.6146 33.4115 80.1979 31.2552 79.2917 29.3073C78.875 28.4062 78.1458 27.4635 77.5521 26.6354C76.8906 25.6979 76.1615 25.0365 75.6354 23.9271C75.4635 23.5469 75.2188 22.9167 75.4948 22.5C75.5677 22.2188 75.7135 22.1094 75.9844 22.0313C76.4427 21.6563 77.7292 22.1458 78.1823 22.3542C79.4688 22.875 80.5521 23.3646 81.6302 24.0938C82.1198 24.4375 82.6458 25.099 83.2708 25.2708H84C85.1146 25.5156 86.3698 25.3438 87.4115 25.651C89.2604 26.2448 90.9271 27.1094 92.4219 28.0469C97.0278 30.9891 100.774 35.0966 103.281 39.9531C103.698 40.7552 103.88 41.4896 104.26 42.3229C104.99 44.0417 105.891 45.776 106.63 47.4375C107.359 49.0781 108.063 50.75 109.109 52.1094C109.63 52.8385 111.724 53.2188 112.661 53.599C113.354 53.9115 114.432 54.1979 115.057 54.5781C116.255 55.3073 117.422 56.1406 118.547 56.9427C119.12 57.3385 120.854 58.2083 120.958 58.9115Z" fill="currentColor"/>
</svg>
