<svg width="125" height="125" viewBox="0 0 125 125" fill="none" xmlns="http://www.w3.org/2000/svg">
<path d="M125 40.625L33.5521 79.5625C25.9688 82.7708 19.599 84.3802 14.4479 84.3802C8.61459 84.3802 4.38022 82.3385 1.75522 78.25C0.104174 75.625 -0.380201 72.2969 0.296882 68.2604C0.973965 64.224 2.77605 59.9271 5.69272 55.3542C8.12501 51.6562 12.1094 46.7969 17.6563 40.7708C15.7748 43.7326 14.3952 46.9847 13.5729 50.3958C12.1146 56.6198 13.4271 61.1875 17.5104 64.1042C19.4531 65.4635 22.125 66.1458 25.5313 66.1458C28.25 66.1458 31.3125 65.7083 34.7188 64.8333L125 40.625Z" fill="currentColor"/>
</svg>
