<svg width="125" height="125" viewBox="0 0 125 125" fill="none" xmlns="http://www.w3.org/2000/svg">
<path d="M91.9427 86.6146C91.9427 87.5981 92.3334 88.5413 93.0288 89.2368C93.7243 89.9322 94.6675 90.3229 95.651 90.3229C96.6345 90.3229 97.5778 89.9322 98.2732 89.2368C98.9687 88.5413 99.3594 87.5981 99.3594 86.6146C99.3594 85.6311 98.9687 84.6878 98.2732 83.9924C97.5778 83.2969 96.6345 82.9063 95.651 82.9063C94.6675 82.9063 93.7243 83.2969 93.0288 83.9924C92.3334 84.6878 91.9427 85.6311 91.9427 86.6146ZM42.724 108.688H82.1771C83.7396 108.688 84.9062 107.516 85.0104 105.958V79.0052C84.9062 77.5365 83.6406 76.2708 82.1771 76.3646H42.724C41.9878 76.3588 41.2787 76.642 40.749 77.1532C40.2192 77.6645 39.911 78.363 39.8906 79.099V105.953C39.8906 107.521 41.1615 108.688 42.724 108.688ZM110.698 90.3281C111.197 90.3288 111.691 90.2311 112.153 90.0406C112.614 89.8501 113.033 89.5705 113.386 89.2179C113.739 88.8653 114.019 88.4465 114.21 87.9855C114.402 87.5245 114.5 87.0303 114.5 86.5313C114.501 85.7791 114.279 85.0434 113.862 84.4175C113.445 83.7916 112.851 83.3034 112.157 83.0149C111.462 82.7263 110.697 82.6503 109.959 82.7964C109.221 82.9425 108.544 83.3042 108.011 83.8357C107.479 84.3672 107.116 85.0447 106.969 85.7824C106.822 86.5201 106.897 87.2848 107.185 87.9798C107.472 88.6749 107.96 89.269 108.585 89.687C109.21 90.105 109.946 90.3281 110.698 90.3281ZM103.182 90.2292C102.683 90.2108 102.184 90.2934 101.717 90.4721C101.25 90.6507 100.824 90.9218 100.464 91.2689C100.104 91.6161 99.8179 92.0323 99.6225 92.4926C99.4272 92.953 99.3267 93.448 99.327 93.948C99.3274 94.4481 99.4286 94.9429 99.6246 95.403C99.8206 95.863 100.107 96.2788 100.468 96.6255C100.828 96.9722 101.255 97.2426 101.722 97.4206C102.189 97.5986 102.688 97.6805 103.187 97.6615C104.149 97.6248 105.059 97.2169 105.726 96.5234C106.393 95.83 106.765 94.905 106.765 93.9428C106.764 92.9806 106.39 92.0562 105.722 91.3636C105.054 90.6711 104.144 90.2645 103.182 90.2292ZM99.4687 79.099C99.4687 80.0825 99.8594 81.0257 100.555 81.7211C101.25 82.4166 102.194 82.8073 103.177 82.8073C104.161 82.8073 105.104 82.4166 105.799 81.7211C106.495 81.0257 106.885 80.0825 106.885 79.099C106.885 78.1154 106.495 77.1722 105.799 76.4768C105.104 75.7813 104.161 75.3906 103.177 75.3906C102.194 75.3906 101.25 75.7813 100.555 76.4768C99.8594 77.1722 99.4687 78.1154 99.4687 79.099ZM13.2292 86.5208C13.2292 88.8 14.1346 90.9859 15.7462 92.5975C17.3578 94.2092 19.5437 95.1146 21.8229 95.1146C24.1021 95.1146 26.288 94.2092 27.8996 92.5975C29.5112 90.9859 30.4167 88.8 30.4167 86.5208C30.4167 84.2416 29.5112 82.0558 27.8996 80.4441C26.288 78.8325 24.1021 77.9271 21.8229 77.9271C19.5437 77.9271 17.3578 78.8325 15.7462 80.4441C14.1346 82.0558 13.2292 84.2416 13.2292 86.5208ZM110.792 3.81109e-07H14.2083C10.4391 -0.0110703 6.81965 1.47494 4.1456 4.13141C1.47155 6.78788 -0.0383029 10.3974 -0.0520935 14.1667V110.74C0.0468648 118.651 6.39582 125 14.2083 125H110.698C114.473 125.004 118.097 123.52 120.785 120.869C123.472 118.217 125.005 114.613 125.052 110.839V14.2552C124.953 6.34896 118.604 3.81109e-07 110.792 3.81109e-07ZM120.755 110.839C120.744 113.476 119.692 116.003 117.826 117.868C115.961 119.733 113.435 120.786 110.797 120.797H14.2083C11.5697 120.787 9.04178 119.735 7.17548 117.87C5.30918 116.005 4.25576 113.477 4.24478 110.839V66.7969H120.75L120.755 110.839ZM120.755 60.349H4.24478V14.2552C4.25439 11.6157 5.3072 9.08698 7.17365 7.22053C9.0401 5.35408 11.5688 4.30127 14.2083 4.29167H110.792C116.255 4.29167 120.75 8.78646 120.75 14.2552L120.755 60.349ZM90.6719 16.2083H34.0312C32.4687 16.2083 31.1979 17.5781 31.1979 19.1406V47.6562C31.1979 49.2187 32.375 50.5885 34.0312 50.5885H90.6719C91.0516 50.5859 91.427 50.5075 91.776 50.358C92.1251 50.2085 92.4408 49.9908 92.7046 49.7177C92.9685 49.4446 93.1752 49.1216 93.3127 48.7677C93.4502 48.4137 93.5156 48.0358 93.5052 47.6562V19.0417C93.5059 18.6694 93.4331 18.3007 93.2909 17.9566C93.1488 17.6125 92.9401 17.2999 92.6769 17.0367C92.4136 16.7734 92.101 16.5648 91.757 16.4226C91.4129 16.2805 91.0441 16.2076 90.6719 16.2083Z" fill="currentColor"/>
</svg>
