<svg width="125" height="125" viewBox="0 0 125 125" fill="none" xmlns="http://www.w3.org/2000/svg">
<path d="M35.5 78.7813L59.9948 92.9219V64.625L35.4896 50.4948V78.7865L35.5 78.7813ZM24.9531 84.8646L60.0052 105.083V124.979L7.71353 94.8229V34.4583L24.9531 44.4063V84.8646ZM62.5 32.0052L38.0104 46.1615L62.5 60.3073L87 46.1563L62.5 32.0052ZM62.5 19.8594L91.974 36.9115L109.214 26.9635L62.5 0L10.2864 30.1563L27.5 40.0781L62.5 19.8594ZM100.036 84.8594V64.3021L89.5 70.3802V78.7865L65.0052 92.9271V92.9531V64.6406L117.281 34.4792V94.8281L65 125V105.12L100.036 84.875V84.8594Z" fill="currentColor"/>
</svg>
