<svg width="125" height="125" viewBox="0 0 125 125" fill="none" xmlns="http://www.w3.org/2000/svg">
<path d="M73.8333 125H92.9688C110.552 125 125 110.552 125 92.9688V32.0313C125 14.4531 110.552 0 92.9688 0H73.4375C73.0521 0 72.6563 0.385417 72.6563 0.78125V124.219C72.651 124.615 73.0469 125 73.8333 125ZM97.6563 56.2552C104.693 56.2552 110.151 62.1146 110.151 68.7448C110.151 75.7865 104.292 81.2448 97.6563 81.2448C90.625 81.2448 85.1563 75.7813 85.1563 68.7448C84.7656 61.7188 90.625 56.2552 97.6563 56.2552ZM59.375 0H32.0313C14.4531 0 0 14.4531 0 32.0313V92.9688C0 110.552 14.4531 125 32.0313 125H59.375C59.7604 125 60.1563 124.615 60.1563 124.224V0.78125C60.1615 0.385417 59.7656 0 59.375 0ZM50.3958 114.849H32.0313C19.9167 114.849 10.151 105.083 10.151 92.9688V32.0313C10.151 19.9167 19.9167 10.151 32.0313 10.151H50L50.3958 114.849ZM19.5313 37.4948C19.5313 44.1354 24.6094 49.2135 31.25 49.2135C37.8906 49.2135 42.9688 44.1354 42.9688 37.4948C42.9688 30.8646 37.8906 25.776 31.25 25.776C24.6094 25.776 19.5313 30.8646 19.5313 37.4948Z" fill="currentColor"/>
</svg>
