<svg width="125" height="125" viewBox="0 0 125 125" fill="none" xmlns="http://www.w3.org/2000/svg">
<path d="M114.297 27.6973L68.5981 1.22809C65.7191 -0.409365 61.9477 -0.409365 59.0459 1.22809L12.9899 27.6973C10.0198 29.404 8 32.6117 8 36.0427V88.9108C8 92.3418 10.0622 95.5505 13.0334 97.2666L25.1758 104.18C31.0011 107.046 32.615 107.046 35.2653 107.046C43.893 107.046 48.3736 101.837 48.3736 92.7511V40.5571C48.3746 39.82 48.8353 38.7232 48.1096 38.7232H42.2894C41.5523 38.7232 40.0926 39.82 40.0926 40.5561V92.7501C40.0926 96.7776 36.3492 100.785 29.531 97.3813L16.9818 90.1316C16.5449 89.8939 16.282 89.4152 16.282 88.9108V36.0427C16.282 35.5445 16.7613 35.0441 17.2044 34.7888L63.1465 8.3651C63.5761 8.12217 64.1838 8.12217 64.6114 8.3651L110.124 34.7826C110.56 35.0441 110.49 35.5289 110.49 36.0427V88.9108C110.49 89.4152 110.586 89.9063 110.156 90.1492L64.4675 116.588C64.0762 116.823 63.5668 116.823 63.1372 116.588L51.4213 109.612C51.0683 109.407 50.6428 109.334 50.3033 109.523C47.0474 111.366 46.4428 111.611 43.3888 112.668C42.6362 112.93 41.5264 113.384 43.8112 114.662L59.1308 123.712C60.5967 124.56 62.2645 125 63.9416 125C65.6415 125 67.3051 124.56 68.772 123.712L114.298 97.2666C117.27 95.5381 118.772 92.3418 118.772 88.9108V36.0427C118.771 32.6117 117.269 29.4122 114.297 27.6973V27.6973ZM78.1141 80.5332C65.9738 80.5332 63.3008 77.1891 62.4094 71.1613C62.3038 70.5121 61.7531 69.7357 61.0905 69.7357H55.1586C54.4246 69.7357 53.8334 70.6248 53.8334 71.3546C53.8334 79.0726 58.0365 88.4239 78.1141 88.4239C92.6469 88.4239 100.981 82.7848 100.981 72.8049C100.981 62.9099 94.2857 60.3131 80.1908 58.4503C65.9438 56.5699 64.4965 55.6199 64.4965 52.2871C64.4965 49.5394 65.7222 45.8747 76.2714 45.8747C85.6962 45.8747 89.1705 47.8947 90.6002 54.2388C90.7234 54.8353 91.269 55.2632 91.8849 55.2632H97.8418C98.2082 55.2632 98.5571 55.1154 98.8139 54.8539C99.0633 54.5727 99.1938 54.2202 99.1617 53.8418C98.2372 42.9161 90.9698 37.8249 76.2703 37.8249C63.1931 37.8249 55.3936 43.3389 55.3936 52.5817C55.3936 62.607 63.1548 65.3774 75.7072 66.6169C90.7234 68.0869 91.8912 70.2784 91.8912 73.2277C91.8912 78.351 87.7729 80.5332 78.1141 80.5332Z" fill="currentColor"/>
</svg>
