<svg width="125" height="125" viewBox="0 0 125 125" fill="none" xmlns="http://www.w3.org/2000/svg">
<path d="M62.5 125C28.0365 125 0 96.9635 0 62.5C0 28.0365 28.0365 0 62.5 0C96.9635 0 125 28.0365 125 62.5C125 96.9635 96.9635 125 62.5 125ZM62.5 5.77604C31.224 5.77604 5.78125 31.224 5.78125 62.5C5.78125 93.776 31.224 119.219 62.5 119.219C93.776 119.219 119.219 93.776 119.219 62.5C119.219 31.224 93.776 5.77604 62.5 5.77604ZM32.1979 31.1979C34.0313 22.3542 40.026 14.3802 48.0833 10.3854C46.6823 11.8073 44.9844 12.901 43.6875 14.4479C38.375 20.1771 35.9792 28.4688 37.4427 36.0938C39.2917 47.7344 50.2292 57.2396 62.0885 57.0729C71.2812 57.4844 80.2396 52.1927 84.7344 44.2188C94.3594 44.5469 103.719 49.5156 109.214 57.4896C112.026 61.651 114.224 66.5312 114.375 71.6094C112.594 64.8646 108.115 58.8698 102.005 55.4896C96.0937 52.1615 88.8333 51.3125 82.3594 53.276C74.2344 55.6094 67.5208 62.25 65.2083 70.4271C63.2448 76.9375 64.0833 84.1146 67.1719 90.0729C62.875 97.5156 55.1146 102.828 46.6927 104.427C40.2135 105.786 33.4063 104.734 27.375 102.01C32.7708 103.583 38.6302 103.859 43.9948 101.953C51.1875 99.5729 57.1302 93.7917 59.7448 86.6667C62.6406 78.9062 61.5417 69.6823 56.6667 63.0208C53.0208 57.776 47.276 54.0781 41.0313 52.7656C39.0521 52.4115 37.0521 52.2552 35.0521 52.0677C31.8698 45.6563 30.7083 38.2135 32.3021 31.2552L32.1979 31.1979Z" fill="currentColor"/>
</svg>
