<svg width="125" height="125" viewBox="0 0 125 125" fill="none" xmlns="http://www.w3.org/2000/svg">
<path d="M10.2135 70.4792C8.63542 70.4792 7.21875 70.2083 5.95313 69.6615C4.6875 69.1146 3.61979 68.3594 2.74479 67.3854C1.86979 66.4115 1.19271 65.2604 0.71875 63.9271C0.239583 62.5937 0 61.151 0 59.5938C0 58.0365 0.239583 56.5937 0.713542 55.2604C1.1875 53.9271 1.86458 52.776 2.73958 51.8021C3.61979 50.8281 4.6875 50.0677 5.95313 49.5208C7.21875 48.974 8.64063 48.7031 10.2135 48.7031C11.7917 48.7031 13.2083 48.974 14.474 49.5208C15.7396 50.0677 16.8073 50.8229 17.6823 51.7969C18.5573 52.7708 19.2344 53.9219 19.7083 55.2552C20.1823 56.5885 20.4219 58.0312 20.4219 59.5885C20.4219 61.1458 20.1823 62.5885 19.7083 63.9219C19.2292 65.2552 18.5573 66.4062 17.6823 67.3802C16.8073 68.3542 15.7344 69.1146 14.474 69.6562C13.2083 70.2031 11.7917 70.4792 10.2135 70.4792ZM10.2135 68.1719C11.4375 68.1719 12.5208 67.9531 13.4531 67.5156C14.3854 67.0781 15.1771 66.4792 15.8177 65.7187C16.4583 64.9583 16.9427 64.0573 17.2604 63.0052C17.5833 61.9531 17.7396 60.8177 17.7396 59.5885C17.7396 58.3646 17.5781 57.224 17.2604 56.1719C16.9375 55.1198 16.4583 54.2135 15.8177 53.4427C15.1771 52.6719 14.3854 52.0729 13.4531 51.6354C12.5208 51.1979 11.4427 50.9844 10.2135 50.9844C8.98958 50.9844 7.90625 51.2031 6.97396 51.6406C6.04167 52.0781 5.25 52.6823 4.60938 53.4479C3.96875 54.2187 3.48438 55.125 3.16667 56.1771C2.84375 57.2292 2.6875 58.3646 2.6875 59.5938C2.6875 60.8177 2.84896 61.9583 3.16667 63.0104C3.48958 64.0625 3.96875 64.9635 4.60938 65.724C5.25 66.4844 6.04167 67.0833 6.97396 67.5208C7.91146 67.9531 8.98958 68.1719 10.2135 68.1719ZM23.2031 54.9531H25.5677V57.0833H25.625C26.1875 56.3073 26.8594 55.6979 27.6406 55.2604C28.4167 54.8229 29.3646 54.6042 30.474 54.6042C31.4271 54.6042 32.3021 54.7865 33.099 55.1458C33.8958 55.5052 34.5781 56.0208 35.1406 56.6927C35.7031 57.3646 36.1458 58.1979 36.4688 59.1875C36.7917 60.1823 36.9479 61.2969 36.9479 62.5417C36.9479 63.75 36.7969 64.8437 36.4948 65.8229C36.1927 66.8073 35.7604 67.6406 35.1979 68.3333C34.6354 69.026 33.9427 69.5521 33.125 69.9219C32.3073 70.2917 31.3906 70.474 30.3802 70.474C29.349 70.474 28.4531 70.3073 27.6927 69.9792C26.9323 69.651 26.2448 69.0729 25.6198 68.2552H25.5677V76.3646H23.2031V54.9531ZM30.2083 68.4948C30.9271 68.4948 31.5625 68.3437 32.1042 68.0417C32.651 67.7396 33.099 67.3281 33.4635 66.8021C33.8229 66.276 34.0885 65.6562 34.2656 64.9323C34.4427 64.2135 34.526 63.4271 34.526 62.5677C34.526 61.7292 34.4375 60.9479 34.2656 60.2187C34.0885 59.4896 33.8229 58.8594 33.4635 58.3229C33.1042 57.7865 32.6563 57.3698 32.1198 57.0677C31.5833 56.7656 30.9583 56.6146 30.2396 56.6146C29.4219 56.6146 28.7083 56.7708 28.0938 57.0833C27.4792 57.3958 26.9792 57.8229 26.5885 58.3698C26.1979 58.9167 25.9062 59.5469 25.7135 60.2656C25.5208 60.9844 25.4219 61.7552 25.4219 62.5729C25.4219 63.3906 25.5104 64.1615 25.6823 64.8802C25.8594 65.599 26.1354 66.2292 26.5156 66.7604C26.8958 67.2969 27.3854 67.7187 27.9896 68.0312C28.5938 68.3385 29.3333 68.4948 30.2083 68.4948ZM46.026 70.4479C44.8802 70.4479 43.8542 70.2396 42.9479 69.8229C42.0417 69.4062 41.2813 68.8333 40.6563 68.1146C40.0313 67.3958 39.5573 66.5521 39.224 65.5885C38.8906 64.625 38.7292 63.599 38.7292 62.5104C38.7292 61.4219 38.901 60.3958 39.2396 59.4323C39.5781 58.4687 40.0677 57.6302 40.6979 56.9062C41.3281 56.1875 42.0833 55.6198 42.9583 55.1979C43.8333 54.7812 44.8073 54.5729 45.875 54.5729C47.0052 54.5729 48 54.7812 48.8646 55.1979C49.7292 55.6146 50.4531 56.1979 51.0365 56.9479C51.6198 57.6979 52.0625 58.5937 52.3646 59.6354C52.6667 60.6771 52.8177 61.8177 52.8177 63.0625H41.151C41.1875 63.8229 41.3281 64.5312 41.5573 65.1927C41.7917 65.8542 42.1094 66.4271 42.5208 66.9167C42.9271 67.401 43.4271 67.7813 44.0104 68.0573C44.5938 68.3281 45.2656 68.4635 46.026 68.4635C47.1354 68.4635 48.0417 68.2083 48.7396 67.6927C49.4375 67.1771 49.9271 66.4062 50.1979 65.375H52.5052C52.1563 67.0104 51.4167 68.2656 50.2865 69.1406C49.1563 70.0104 47.7344 70.4479 46.026 70.4479ZM45.8802 56.4427C45.1823 56.4427 44.5573 56.5625 44.0104 56.8073C43.4635 57.0521 43.0052 57.3906 42.625 57.8281C42.2448 58.2656 41.9323 58.7812 41.6927 59.375C41.4479 59.9687 41.2865 60.6042 41.2135 61.2865H50.2917C50.2135 59.7708 49.8021 58.5833 49.0521 57.724C48.2969 56.8698 47.2396 56.4427 45.8802 56.4427ZM57.9167 56.9375H57.974C58.5208 56.2187 59.1771 55.651 59.9427 55.2292C60.7135 54.8125 61.651 54.6042 62.7604 54.6042C64.3385 54.6042 65.5781 55.0156 66.4792 55.8437C67.3854 56.6719 67.8385 57.8698 67.8385 59.4479V70.0417H65.474V59.651C65.474 58.6562 65.1719 57.901 64.5677 57.375C63.9635 56.849 63.1302 56.5885 62.0573 56.5885C61.4531 56.5885 60.901 56.6927 60.3958 56.8958C59.8906 57.099 59.4531 57.3802 59.0833 57.7448C58.7135 58.1042 58.4271 58.5417 58.224 59.0573C58.0208 59.5729 57.9167 60.1406 57.9167 60.7656V70.0469H55.5521V54.9583H57.9167V56.9375ZM80.2552 70.4687C77.3958 70.4687 75.1927 69.8646 73.6354 68.6615C72.0781 67.4583 71.2604 65.7396 71.1875 63.5104H75.3542C75.5104 64.7812 75.9583 65.6875 76.7031 66.224C77.4479 66.7604 78.5729 67.0312 80.0781 67.0312C80.625 67.0312 81.1458 66.9844 81.6354 66.8854C82.125 66.7865 82.5573 66.6302 82.9271 66.4167C83.2969 66.2031 83.599 65.9219 83.8229 65.5781C84.0469 65.2344 84.1615 64.8177 84.1615 64.3281C84.1615 63.8177 84.0365 63.401 83.7969 63.0677C83.5521 62.7344 83.2031 62.4583 82.7552 62.2292C82.3073 62.0052 81.7604 61.8073 81.125 61.6406C80.4896 61.474 79.7708 61.3021 78.9688 61.125C78.0313 60.9115 77.125 60.6719 76.2552 60.4062C75.3854 60.1406 74.6198 59.7865 73.9635 59.3333C73.3073 58.8854 72.7813 58.3073 72.3802 57.6042C71.9792 56.901 71.776 56 71.776 54.9062C71.776 53.8698 71.974 52.9583 72.3802 52.1771C72.7813 51.3958 73.3385 50.7396 74.0521 50.2083C74.7656 49.6823 75.6146 49.2812 76.5885 49.0208C77.5677 48.7552 78.6406 48.625 79.8177 48.625C82.1823 48.625 84.0885 49.1823 85.526 50.2969C86.9635 51.4115 87.7604 53.0365 87.9167 55.1667H83.8385C83.7188 54.1094 83.2917 53.3177 82.5469 52.7917C81.8021 52.2656 80.8854 52 79.7865 52C78.6302 52 77.7135 52.224 77.026 52.6771C76.3385 53.125 76 53.724 76 54.4687C76 54.901 76.0938 55.2552 76.2813 55.5417C76.4688 55.8281 76.75 56.0729 77.1302 56.2917C77.5104 56.5052 77.9844 56.6927 78.5521 56.849C79.1198 57.0052 79.7917 57.1719 80.5781 57.349C81.6563 57.5833 82.6667 57.8437 83.6146 58.125C84.5625 58.4115 85.3958 58.7865 86.1094 59.2552C86.8229 59.724 87.3854 60.3229 87.7969 61.0469C88.2083 61.7708 88.4115 62.7031 88.4115 63.8333C88.4115 64.8906 88.2083 65.8333 87.7969 66.6667C87.3854 67.5 86.8177 68.1927 86.0938 68.75C85.3698 69.3073 84.5104 69.7344 83.5104 70.026C82.5156 70.3177 81.4323 70.4687 80.2552 70.4687ZM99.8333 70.4687C96.974 70.4687 94.7708 69.8646 93.2135 68.6615C91.6562 67.4583 90.8385 65.7396 90.7656 63.5104H94.9323C95.0885 64.7812 95.5365 65.6875 96.2813 66.224C97.026 66.7604 98.151 67.0312 99.6563 67.0312C100.203 67.0312 100.724 66.9844 101.214 66.8854C101.703 66.7865 102.135 66.6302 102.505 66.4167C102.875 66.2031 103.177 65.9219 103.401 65.5781C103.625 65.2344 103.74 64.8177 103.74 64.3281C103.74 63.8177 103.615 63.401 103.375 63.0677C103.13 62.7344 102.781 62.4583 102.333 62.2292C101.885 62.0052 101.339 61.8073 100.703 61.6406C100.068 61.474 99.349 61.3021 98.5469 61.125C97.6094 60.9115 96.7031 60.6719 95.8333 60.4062C94.9635 60.1406 94.1979 59.7865 93.5417 59.3333C92.8854 58.8854 92.3594 58.3073 91.9583 57.6042C91.5573 56.901 91.3542 56 91.3542 54.9062C91.3542 53.8698 91.5521 52.9583 91.9583 52.1771C92.3594 51.3958 92.9167 50.7396 93.6302 50.2083C94.3437 49.6823 95.1927 49.2812 96.1667 49.0208C97.1458 48.7552 98.2188 48.625 99.3958 48.625C101.76 48.625 103.667 49.1823 105.104 50.2969C106.542 51.4115 107.339 53.0365 107.495 55.1667H103.417C103.297 54.1094 102.87 53.3177 102.125 52.7917C101.38 52.2656 100.464 52 99.3646 52C98.2083 52 97.2917 52.224 96.6042 52.6771C95.9167 53.125 95.5781 53.724 95.5781 54.4687C95.5781 54.901 95.6719 55.2552 95.8594 55.5417C96.0469 55.8281 96.3281 56.0729 96.7083 56.2917C97.0885 56.5052 97.5625 56.6927 98.1302 56.849C98.6979 57.0052 99.3698 57.1719 100.156 57.349C101.234 57.5833 102.245 57.8437 103.193 58.125C104.141 58.4115 104.974 58.7865 105.688 59.2552C106.401 59.724 106.964 60.3229 107.375 61.0469C107.786 61.7708 107.99 62.7031 107.99 63.8333C107.99 64.8906 107.786 65.8333 107.375 66.6667C106.964 67.5 106.396 68.1927 105.672 68.75C104.948 69.3073 104.089 69.7344 103.089 70.026C102.094 70.3177 101.005 70.4687 99.8333 70.4687ZM110.885 49.0104H115.141V66.4427H125V69.9948H110.885V49.0104Z" fill="currentColor"/>
</svg>
