<svg width="125" height="125" viewBox="0 0 125 125" fill="none" xmlns="http://www.w3.org/2000/svg">
<path d="M60.6146 0C59.8437 0 59.5364 3.58854 59.3021 15.2344C59 30.1302 58.9375 30.5938 56.6458 35.6198C54.7708 39.75 48.1927 49.5573 46.0364 51.4531C44.0937 53.1615 39.875 59.5781 37.8073 63.9583C34.1094 71.7917 34.375 82.2917 37.5989 90.2448C40.2969 96.4635 44.1719 101.474 50.4114 106.818C55.3073 111.01 56.8177 111.604 57.5729 109.651C57.8281 108.984 56.7292 106.672 55.0573 104.349C53.4271 102.078 50.6667 97.2552 48.9219 93.625C41.7239 78.3854 45.276 65.724 53.6198 51.724C58.2552 44.4688 60.9271 37.9635 61.8437 31.6615C62.9896 23.7708 62.0677 0 60.6146 0ZM56.6719 6.32813C55.7031 6.32813 55.4844 7.68229 55.4844 13.7344C55.4844 17.8073 55.0677 22.349 54.5625 23.8281C52.9375 28.5885 48.5521 32.875 36.4271 41.5573C27.6562 47.8333 20.3021 55.3698 17.4687 60.9948C8.79166 78.1771 16.4531 99.0729 35.2812 109.604C43.6823 114.302 50.7292 116.13 50.7292 113.604C50.7292 112.948 50.4479 112.417 50.0989 112.417C49.75 112.417 46.8073 110.688 43.5677 108.573C29.5573 99.4323 23.0104 88.1198 24.0521 74.8125C24.8333 64.8646 28.5989 58.7708 43.8229 42.8594C56.9583 29.1302 57.8333 27.3906 57.8489 15.2344C57.8542 7.83854 57.6614 6.32813 56.6719 6.32813ZM64.526 9.61979C63.9896 9.70833 63.7969 14.3333 63.7864 24.7396L63.7656 39.9792L59.8906 54.625C55.5677 67.8542 54.9219 81.3594 58.0937 94.8594C61 106.328 62.2396 108.599 66.2552 109.74C68.0417 110.25 70.8906 111.589 72.5885 112.719C76.4219 115.271 79.8542 114.984 86.7292 111.51C96.7292 106.458 103.443 99.9375 107.911 90.9219C111.792 82.3385 112.37 71.599 108.266 63.0573C104.62 55.6927 98.4635 49.7552 85.5677 41.1979C74.3073 33.7188 71.9375 31.7188 69.1614 27.3854C67.4844 24.7656 67.2396 23.6146 67.5573 19.8646C67.7656 17.4271 68.2135 14.7708 68.5573 13.9583C69.0833 12.7135 68.9167 12.5625 67.5052 13.0104C66.151 13.4375 65.7344 13.151 65.3177 11.5208C65 10.2448 64.7344 9.58333 64.526 9.61979ZM68.2448 33.5052C68.4219 33.4688 68.9479 34.0938 69.5573 35.099C70.3073 36.3333 74.8802 40.3073 79.7239 43.9375C94.7656 55.3385 107.172 66.7396 101.01 86.6458C98.901 92.6146 95.8542 97.4271 90.7864 102.781C87.9531 105.776 84.1927 108.458 82.8177 108.458C82.5729 108.458 84.1302 106.219 86.276 103.49C93.2396 94.6354 96.5469 84.125 95.5989 73.9375C94.7239 64.5833 87.4896 53.2344 76.0521 43.2604C71.3021 39.1146 68.1458 35.2604 68.1771 33.6458C68.1771 33.5625 68.2031 33.5156 68.2448 33.5052ZM62.5729 114.193C61.4896 114.161 61.026 116.01 61.026 120.031C61.026 124.927 61.1198 125.177 62.8073 124.938C64.3802 124.719 64.6146 124.156 64.8229 120.255C64.9896 117.063 64.7239 115.557 63.8698 114.844C63.3646 114.427 62.9323 114.203 62.5729 114.193ZM57.0937 115.651C56.4479 115.641 55.9167 116.38 55.3906 117.891C54.9479 119.167 54.0729 120.396 53.4479 120.635C51.7708 121.281 52.0729 123.5 53.8385 123.5C54.6823 123.5 55.9323 122.932 56.6198 122.25C58.9167 119.948 59.6354 117.958 58.6094 116.719C58.0312 116.021 57.5364 115.661 57.0989 115.651H57.0937ZM67.8958 115.979C66.2708 115.979 66.4375 119.156 68.1719 121.365C69.7812 123.406 72.901 124.318 72.901 122.74C72.901 121.427 68.8646 115.979 67.8958 115.979Z" fill="currentColor"/>
</svg>
