<svg width="125" height="125" viewBox="0 0 125 125" fill="none" xmlns="http://www.w3.org/2000/svg">
<path d="M36.5104 53.1615H31.5938L28.9115 66.9531H33.276C36.1719 66.9531 38.3281 66.4063 39.7448 65.3177C41.1615 64.224 42.1146 62.4062 42.6094 59.8542C43.0885 57.4062 42.8698 55.6771 41.9635 54.6719C41.0521 53.6667 39.2396 53.1615 36.5104 53.1615ZM62.5 29.625C27.9844 29.625 0 44.3437 0 62.5C0 80.6563 27.9844 95.3802 62.5 95.3802C97.0156 95.3802 125 80.6563 125 62.5C125 44.3437 97.0156 29.625 62.5 29.625ZM45.5208 68.4323C44.1615 69.7344 42.526 70.7135 40.7448 71.3021C38.9948 71.8646 36.7604 72.1563 34.0521 72.1563H27.901L26.1979 80.9115H19.0208L25.4271 47.9635H39.2292C43.3802 47.9635 46.4063 49.0521 48.3125 51.2344C50.2188 53.4115 50.7917 56.4531 50.0313 60.3594C49.74 61.9051 49.2037 63.3943 48.4427 64.7708C47.6979 66.099 46.724 67.3229 45.5208 68.4323ZM66.4792 72.1563L69.3073 57.5781C69.6354 55.9219 69.5104 54.7865 68.9531 54.1875C68.3958 53.5833 67.2031 53.2812 65.375 53.2812H59.6875L56.0208 72.1615H48.8958L55.3021 39.2083H62.4219L60.7188 47.9687H67.0625C71.0573 47.9687 73.8073 48.6667 75.3229 50.0573C76.8385 51.4479 77.2917 53.7031 76.6927 56.8229L73.7135 72.1563H66.4792ZM106.047 60.3594C105.76 61.9064 105.224 63.3963 104.458 64.7708C103.714 66.099 102.74 67.3229 101.536 68.4323C100.176 69.7304 98.5451 70.7106 96.7604 71.3021C95.0104 71.8646 92.776 72.1563 90.0625 72.1563H83.9167L82.2135 80.9167H75.0365L81.4427 47.9687H95.2396C99.3906 47.9687 102.417 49.0573 104.323 51.2396C106.229 53.4115 106.807 56.4531 106.047 60.3594ZM92.5313 53.1615H87.6198L84.9323 66.9531H89.2969C92.1979 66.9531 94.3542 66.4063 95.7656 65.3177C97.1823 64.224 98.1354 62.4062 98.6354 59.8542C99.1146 57.4062 98.8906 55.6771 97.9844 54.6719C97.0781 53.6667 95.2552 53.1615 92.5313 53.1615Z" fill="currentColor"/>
</svg>
