<svg width="125" height="125" viewBox="0 0 125 125" fill="none" xmlns="http://www.w3.org/2000/svg">
<path d="M122.705 76.6813C122.634 76.463 122.535 76.2546 122.412 76.0609C121.688 74.6901 119.929 74.2807 117.165 74.8521C108.554 76.6286 105.22 75.5354 104.011 74.7526C111.001 64.0849 116.745 51.2005 119.85 39.1813C121.264 33.7089 124.007 20.8287 120.486 14.5375C120.262 14.1069 119.998 13.6973 119.701 13.3135C112.985 4.7323 103.129 0.129174 91.1974 0.00261148C83.4125 -0.0796802 76.7677 1.80522 74.9677 2.49949C74.0761 2.33309 73.1801 2.19137 72.2807 2.07449C70.026 1.66621 67.7416 1.44358 65.4505 1.40886C59.2932 1.31303 53.9724 2.7849 49.5661 5.78699C45.101 4.11459 24.6245 -2.78072 11.9521 6.1974C4.87448 11.2115 1.60729 20.1734 2.24063 32.8349C2.45365 37.0953 4.88073 50.1995 8.71094 62.7495C11.1057 70.5958 13.6 76.8219 16.1766 81.4057C19.0568 86.5839 22.0406 89.7042 25.1052 90.726C27.4354 91.5026 31.0047 91.4766 34.7828 86.9349C38.9557 81.9167 43.0656 77.4255 44.9109 75.4406C47.1771 76.6672 49.6318 77.3286 52.1505 77.4052C52.151 77.4124 52.1517 77.4195 52.1526 77.4266C51.714 77.9491 51.2848 78.4794 50.8651 79.0172C49.1 81.2578 48.7328 81.724 43.0516 82.8937C41.4359 83.2271 37.1432 84.112 37.0807 87.1203C37.0677 87.7578 37.2521 88.3229 37.5594 88.8224C38.7411 91.026 42.3594 91.9979 42.8458 92.1198C49.7964 93.8568 55.8896 92.599 60.4052 88.5849C60.3167 100.205 60.8089 111.592 62.2042 115.082C63.3563 117.961 66.1719 125.001 75.0646 125C76.3693 125 77.8057 124.848 79.3854 124.51C88.6661 122.52 92.6964 118.418 94.2552 109.375C95.038 104.84 96.3469 94.3995 97.0615 88.0146C97.1495 87.6484 97.2474 87.3859 97.3583 87.3052C97.362 87.3026 97.7214 87.0599 99.5833 87.4651C99.6595 87.4816 99.7365 87.4934 99.8141 87.5005L101.136 87.6167L101.214 87.6219C105.624 87.8219 111.169 86.8792 114.397 85.3781C117.751 83.8219 123.802 80.0016 122.705 76.6813ZM12.349 61.8568C8.47656 49.1703 6.21406 36.4135 6.0349 32.8365C5.46927 21.5271 8.20729 13.6547 14.1719 9.43699C23.738 2.67345 39.3792 6.62032 45.9844 8.7599C45.9677 8.77657 45.95 8.79167 45.9333 8.80886C35.3927 19.4547 35.6427 37.6422 35.6688 38.7542C35.6677 39.1828 35.7031 39.7901 35.7531 40.6255C35.9344 43.6844 36.2719 49.3776 35.3703 55.8255C34.5323 61.8172 36.3792 67.6818 40.437 71.9151C40.8568 72.3531 41.2953 72.7646 41.7484 73.1516C39.9422 75.0859 36.0172 79.363 31.8396 84.3891C28.8828 87.9438 26.8411 87.2625 26.1698 87.0385C24.1286 86.3578 21.9354 83.9807 19.7214 80.1516C17.2234 75.7818 14.7031 69.5698 12.349 61.8568ZM43.6365 88.3521C42.7453 88.1292 41.9328 87.7625 41.3854 87.4292C41.8484 87.224 42.6219 86.9594 43.9026 86.6953C50.5865 85.3198 51.6188 84.3484 53.8729 81.4859C54.3896 80.8297 54.975 80.0865 55.7859 79.1807C55.9604 78.9851 56.0912 78.7547 56.1698 78.5047C57.0594 77.7167 57.5885 77.9323 58.4453 78.2875C59.2578 78.624 60.0484 79.6417 60.3698 80.7625C60.5214 81.2917 60.6922 82.2964 60.1344 83.0771C55.4245 89.6698 48.5635 89.5844 43.6365 88.3521ZM54.5427 67.5813L54.2693 68.3156C53.5766 70.1729 52.9323 71.8995 52.5328 73.5396C49.0568 73.5286 45.6745 72.0437 43.1031 69.3604C39.8328 65.9484 38.3474 61.2021 39.0276 56.3375C39.9797 49.5255 39.6281 43.5938 39.4391 40.4073C39.413 39.9609 39.3896 39.5703 39.3755 39.262C40.9156 37.8969 48.0521 34.0734 53.1406 35.2391C55.463 35.7714 56.8781 37.3521 57.4661 40.0724C60.5109 54.1547 57.8693 60.024 55.7464 64.7406C55.3089 65.7125 54.8958 66.6307 54.5427 67.5813ZM92.8953 91.3964C92.8073 92.3172 92.7089 93.3547 92.5734 94.5L91.813 96.7828C91.7527 96.9638 91.7207 97.153 91.7182 97.3438C91.6875 99.8162 91.437 100.723 91.1193 101.871C90.7891 103.065 90.4146 104.419 90.1849 107.379C89.612 114.745 85.6109 118.977 77.5953 120.694C69.7021 122.388 68.3021 118.107 67.0682 114.331C66.9419 113.935 66.8084 113.542 66.6677 113.151C65.5458 110.1 65.6724 105.797 65.8479 99.8432C65.9339 96.9203 65.7182 89.9406 64.1281 86.0609C64.151 84.5339 64.1833 82.9833 64.2271 81.4161C64.2324 81.2176 64.2055 81.0196 64.1474 80.8297C64.097 80.4636 64.0206 80.1016 63.9188 79.7464C63.2802 77.5156 61.7245 75.6495 59.8578 74.876C59.1161 74.5687 57.7547 74.0052 56.1193 74.4234C56.4682 72.9859 57.0729 71.3635 57.7287 69.6063L58.0042 68.8667C58.3141 68.0333 58.7021 67.1703 59.1135 66.2563C61.3349 61.3208 64.3771 54.562 61.075 39.2917C59.8385 33.5724 55.7083 30.7797 49.4479 31.4281C45.6943 31.8167 42.2609 33.3313 40.5479 34.1995C40.2045 34.3735 39.8645 34.5543 39.5281 34.7417C40.0063 28.9792 41.8125 18.2099 48.5682 11.3964C49.0701 10.8907 49.5973 10.4109 50.1479 9.95886C50.4213 9.90555 50.679 9.79086 50.9016 9.62344C54.8203 6.65157 59.7271 5.19324 65.4953 5.28751C67.626 5.3224 69.6708 5.46407 71.6109 5.70938C81.7099 7.55522 88.5063 13.2448 92.6313 18.1193C96.8724 23.1313 99.1688 28.1792 100.085 30.9021C93.1938 30.201 88.5052 31.5625 86.1286 34.9594C80.9589 42.3495 88.9568 56.6932 92.801 63.5865C93.5057 64.85 94.1146 65.9417 94.3057 66.4057C95.5573 69.4396 97.1781 71.4646 98.3615 72.9432C98.724 73.3964 99.076 73.8359 99.3432 74.2193C97.2557 74.8208 93.5057 76.2115 93.8474 83.162C93.7833 83.976 93.6271 85.4896 93.413 87.4057C93.1729 88.4875 93.0474 89.8031 92.8953 91.3964ZM97.5333 82.9531C97.3224 78.6219 98.9349 78.1693 100.641 77.6901C100.877 77.6254 101.112 77.5549 101.344 77.4786C101.564 77.6737 101.798 77.8529 102.043 78.0151C105.014 79.976 110.284 80.2094 117.704 78.7151C116.654 79.6365 115.001 80.7953 112.739 81.8458C110.604 82.837 107.032 83.5802 103.638 83.7396C99.8896 83.9146 97.9823 83.3193 97.5333 82.9531ZM100.499 34.6656C100.469 36.4927 100.217 38.151 99.9505 39.8828C99.6641 41.7453 99.3672 43.6714 99.2922 46.0089C99.2182 48.2839 99.5026 50.649 99.7776 52.9365C100.333 57.5563 100.903 62.313 98.6969 67.0063C98.3308 66.3572 98.0045 65.6866 97.7198 64.9979C97.4453 64.3333 96.8505 63.2656 96.0266 61.7885C92.8203 56.038 85.3109 42.5719 89.1552 37.0771C91.1318 34.2505 96.1385 34.1287 100.499 34.6656ZM101.689 71.1953C101.542 71.008 101.394 70.8216 101.245 70.6359L101.06 70.4047C104.842 64.1573 104.103 57.9766 103.444 52.4958C103.174 50.2469 102.919 48.1229 102.983 46.1281C103.051 44.013 103.33 42.1995 103.601 40.4453C103.933 38.2839 104.271 36.0479 104.178 33.4115C104.248 33.1349 104.276 32.8083 104.24 32.4208C104.002 29.8922 101.115 22.3271 95.2323 15.4781C92.0677 11.7943 87.474 7.68022 81.2276 4.85574C83.9625 4.30053 87.6484 3.79584 91.7714 3.88751C102.456 4.12501 110.91 8.12449 116.897 15.775C117.025 15.9411 117.141 16.1154 117.245 16.2969C121.011 23.3573 115.806 48.9797 101.689 71.1953ZM55.7693 39.3401C55.6391 40.2745 54.1604 41.5406 52.5344 41.5406C52.3934 41.5407 52.2526 41.531 52.113 41.5115C51.1375 41.376 50.1521 40.7615 49.4781 39.8677C49.2396 39.5526 48.8516 38.9406 48.9287 38.3865C48.9573 38.1776 49.0646 37.8734 49.4104 37.6115C50.026 37.1458 51.2427 36.9729 52.5854 37.1599C54.2328 37.3896 55.9323 38.1693 55.7693 39.3401ZM97.074 37.1974C97.1318 37.6099 96.8188 38.2443 96.2766 38.813C95.9208 39.1865 95.1724 39.8344 94.1521 39.9755C94.0227 39.9935 93.8921 40.0026 93.7615 40.0026C92.2328 40.0026 90.9417 38.7818 90.8411 38.0667C90.7161 37.1474 92.2167 36.449 93.7635 36.2333C95.3104 36.0177 96.9464 36.2792 97.074 37.1974Z" fill="currentColor"/>
</svg>
