<svg width="125" height="125" viewBox="0 0 125 125" fill="none" xmlns="http://www.w3.org/2000/svg">
<path fill-rule="evenodd" clip-rule="evenodd" d="M122.919 75.6789C122.458 72.686 119.952 70.7259 117.037 70.5936C115.982 70.5454 114.91 70.6562 113.858 70.7905C112.587 70.9526 111.332 71.2398 110.064 71.4295C109.187 71.5608 108.299 71.6213 107.424 71.7116L107.402 71.5977C109.036 68.5022 110.739 65.4406 112.285 62.301C113.47 59.8927 114.484 57.3972 115.532 54.9222C117.266 50.8215 118.652 46.5937 119.799 42.2971C120.898 38.1831 121.839 34.0239 122.134 29.7561C122.253 28.0514 122.335 26.3395 122.326 24.6328C122.317 23.2717 122.171 21.9086 122.035 20.5516C121.882 18.9967 121.413 17.5228 120.765 16.1042C119.91 14.2354 118.585 12.702 117.191 11.2456C116.074 10.0794 114.846 9.01677 113.628 7.95519C111.892 6.44026 109.94 5.23098 107.912 4.15709C105.609 2.93653 103.187 1.98162 100.663 1.33646C99.1363 0.945679 97.5749 0.655411 96.0289 0.345655C95.4727 0.23283 94.9154 0 94.3592 0H83.8878C83.5094 0 83.1342 0.195905 82.7528 0.238984C80.2456 0.518995 77.7681 0.99286 75.3622 1.74058C74.4624 2.02059 73.6403 1.84418 72.7855 1.7652C72.1301 1.70468 71.4859 1.52827 70.8305 1.49544C68.3335 1.37031 65.8335 1.18671 63.3376 1.21338C60.946 1.238 58.5789 1.63289 56.264 2.2924C54.3263 2.84422 52.4306 3.51809 50.6944 4.53967C49.9511 4.97661 49.3621 4.89456 48.5932 4.67198C46.0093 3.92426 43.4071 3.22167 40.7823 2.6319C39.1463 2.26471 37.4643 2.08214 35.7936 1.90674C34.1923 1.73956 32.5788 1.63904 30.9694 1.60519C29.3968 1.57135 27.813 1.57237 26.2475 1.71186C23.7536 1.93444 21.3068 2.44318 18.9285 3.26372C16.2874 4.17453 13.8661 5.49458 11.6831 7.22798C9.4673 8.98703 7.6902 11.1348 6.26075 13.5872C4.75461 16.175 3.72189 18.9454 3.07976 21.8552C2.73211 23.4317 2.51227 25.0523 2.27403 26.6534C2.19939 27.1519 3.0225 27.6503 2 28.1468V35.1153C3.0225 35.5789 2.21268 36.0414 2.27198 36.5061C2.41411 37.623 2.53988 38.7492 2.72802 39.858C3.02557 41.613 3.37833 43.3628 3.73825 45.1064C4.24029 47.5424 4.76279 49.9764 5.31903 52.4001C5.72394 54.1642 6.18508 55.9181 6.6677 57.6628C7.40492 60.3276 8.1309 62.9974 8.96423 65.6324C9.73826 68.0807 10.6248 70.4941 11.5041 72.9075C12.7219 76.2461 14.18 79.477 15.9285 82.5736C17.4407 85.2547 19.1688 87.7656 21.4868 89.8313C23.0144 91.1924 24.7148 92.2386 26.6943 92.7617C28.2496 93.1719 29.8304 93.2212 31.4224 92.894C33.268 92.5145 34.9019 91.7175 36.3549 90.5236C36.5216 90.3862 36.7046 90.2816 36.9019 90.5339C37.6535 91.4888 38.6596 92.1258 39.7118 92.6765C42.5512 94.1617 45.6453 94.6069 48.7885 94.7884C49.5492 94.8325 50.3181 94.7228 51.085 94.7012C52.5789 94.6602 54.0308 94.3679 55.4593 93.9535C56.2077 93.7361 56.9388 93.4602 57.7006 93.2027C57.7405 94.0161 57.7916 94.7997 57.8151 95.5833L57.9214 99.8563C57.9409 100.507 57.9664 101.159 58.0268 101.806C58.1812 103.475 58.3325 105.145 58.5308 106.808C58.6689 107.955 58.812 109.111 59.081 110.23C59.6219 112.49 60.355 114.69 61.2875 116.823C62.2026 118.917 63.5186 120.684 65.2752 122.141C67.5452 124.024 70.2057 124.828 73.0789 124.976C74.2671 125.039 75.489 124.98 76.6587 124.767C78.5125 124.43 80.3622 124.005 82.1669 123.459C85.8387 122.347 89.0125 120.427 91.3837 117.325C92.7334 115.556 93.8418 113.644 94.5535 111.532C95.1404 109.787 95.6935 108.025 96.1332 106.239C96.4809 104.832 96.6526 103.381 96.8643 101.944C97.0044 100.993 97.0882 100.033 97.1762 99.0747C97.3193 97.5188 97.4655 95.9639 97.5688 94.4048C97.6404 93.3196 97.6373 92.2293 97.6802 91.1421C97.6935 90.8108 97.7467 90.4816 97.7774 90.1513C97.806 89.8457 97.9594 89.74 98.2702 89.7451C99.3653 89.7616 100.462 89.7903 101.554 89.741C102.778 89.6857 104.014 89.6333 105.218 89.4303C106.933 89.142 108.639 88.7779 110.32 88.3359C112.307 87.8148 114.129 86.8814 115.883 85.8178C117.926 84.5798 119.788 83.1274 121.299 81.2566C122.613 79.6247 123.236 77.7385 122.919 75.6789V75.6789ZM119.43 76.6862C119.362 77.6247 118.934 78.4288 118.312 79.116C115.379 82.3602 111.699 84.3285 107.489 85.2978C105.89 85.665 104.24 85.8558 102.603 86.0076C101.209 86.1368 99.7948 86.1583 98.396 86.107C97.3674 86.0681 96.3469 85.8322 95.2958 85.6804C95.1905 86.6445 95.0903 87.6486 94.9686 88.6507L94.4788 92.4919C94.3305 93.7094 94.215 94.931 94.0627 96.1474C93.9134 97.328 93.7273 98.5045 93.5708 99.685C93.4246 100.785 93.3173 101.889 93.1547 102.987C92.9042 104.669 92.6649 106.355 92.3377 108.024C91.9451 110.019 91.3428 111.951 90.3602 113.75C89.1618 115.946 87.4624 117.619 85.2998 118.858C83.0708 120.136 80.6342 120.801 78.1638 121.357C76.4154 121.751 74.6137 121.815 72.8427 121.655C69.7712 121.376 67.1495 120.058 65.1679 117.669C63.2763 115.389 61.9961 112.776 61.538 109.818C61.3192 108.412 61.1617 106.993 61.036 105.576C60.8969 103.999 60.8018 102.417 60.7302 100.837C60.6392 98.8296 60.5728 96.8224 60.5288 94.8151C60.4746 92.3473 60.4572 89.8795 60.4225 87.4117L60.4163 87.3173C59.1648 88.0702 57.9347 88.8949 56.63 89.5739C55.1024 90.3698 53.4429 90.8313 51.7241 90.9616C50.3764 91.0642 49.0114 91.1575 47.6699 91.0498C45.4705 90.8724 43.2731 90.5267 41.3038 89.4405C40.5052 88.9995 39.6719 88.463 39.1218 87.7584C37.8028 86.0701 38.4347 83.9367 40.4234 82.91C41.7977 82.1992 43.2977 81.9028 44.7875 81.5571C46.0819 81.2566 47.3703 80.915 48.6331 80.5017C49.8826 80.0914 50.6709 79.075 51.449 78.078L52.6822 76.4872C52.1678 76.4328 51.6832 76.3774 51.1985 76.3323C49.7271 76.1928 48.3233 75.7866 46.9807 75.1897C45.8314 74.6799 45.814 74.6245 44.9715 75.5415C43.5645 77.0739 42.1964 78.6421 40.8181 80.2001C39.8038 81.3458 38.7956 82.4987 37.7864 83.6475C36.7864 84.7839 35.8498 85.985 34.7731 87.0425C33.1739 88.6128 31.2465 89.5574 28.9469 89.4508C27.4714 89.3831 26.1207 88.8641 24.906 88.0158C22.3988 86.264 20.7097 83.8136 19.1718 81.2402C17.2015 77.9426 15.6892 74.4297 14.3947 70.8203C13.499 68.3258 12.5992 65.8293 11.817 63.2989C10.9673 60.5491 10.2219 57.7644 9.48878 54.9807C8.93458 52.8801 8.44276 50.762 7.97343 48.6399C7.44071 46.2265 6.92844 43.8089 6.4765 41.3791C6.17179 39.739 5.9949 38.0754 5.74848 36.424C5.41617 34.1983 5.35482 31.9521 5.47547 29.7171C5.58283 27.7037 5.87118 25.6954 6.15748 23.6953C6.55421 20.928 7.46321 18.3166 8.77098 15.8509C9.5716 14.3401 10.5655 12.9667 11.7148 11.6907C13.6013 9.59628 15.8845 8.08238 18.4244 6.94592C20.1994 6.15204 22.0747 5.67407 23.9858 5.30073C26.8222 4.74686 29.6841 4.7684 32.5471 4.82789C33.7987 4.85353 35.0451 5.08226 36.2956 5.20636C38.9878 5.47509 41.6269 6.04332 44.2322 6.74489C46.131 7.25568 47.9909 7.91724 49.8744 8.49162C50.0635 8.54906 50.3406 8.54393 50.495 8.44239C53.0472 6.77155 55.8366 5.66895 58.8028 5.03815C59.9286 4.79917 61.0902 4.69455 62.2415 4.6207C63.6413 4.53146 65.0523 4.44941 66.4491 4.53044C68.128 4.62685 69.7988 4.87507 71.4675 5.10482C72.2773 5.21559 73.0677 5.49766 73.8796 5.57458C74.2681 5.61151 74.6802 5.32637 75.0912 5.23098C77.1863 4.74583 79.2722 4.2053 81.3857 3.82169C82.9593 3.53655 84.5667 3.40219 86.1669 3.30988C87.9512 3.20731 89.7487 3.13243 91.532 3.21859C93.7866 3.32731 96.0248 3.64938 98.2344 4.1653C100.972 4.8043 103.597 5.73254 106.093 7.0208C107.958 7.98288 109.731 9.09883 111.328 10.4712C112.374 11.3717 113.444 12.261 114.389 13.2641C115.555 14.5011 116.744 15.7391 117.475 17.3238C118.025 18.5187 118.418 19.7557 118.526 21.0644C118.661 22.6912 118.824 24.3241 118.809 25.9528C118.795 27.5108 118.583 29.0678 118.433 30.6217C118.091 34.1644 117.323 37.6302 116.391 41.0499C115.62 43.8746 114.719 46.6685 113.744 49.4297C112.845 51.9744 111.808 54.473 110.76 56.9613C109.986 58.8013 109.153 60.6219 108.247 62.4005C106.532 65.7708 104.749 69.1064 102.686 72.2809C102.331 72.8296 101.993 73.3917 101.646 73.9517C102.545 74.5609 103.565 74.7753 104.591 74.8861C105.568 74.9928 106.564 75.0564 107.539 74.9835C109.101 74.8676 110.657 74.644 112.209 74.4255C113.747 74.2102 115.254 73.7712 116.833 73.8871C118.409 74.0019 119.537 75.204 119.43 76.6862V76.6862ZM96.9216 73.247C96.2518 72.3793 95.5688 71.5218 94.9134 70.6439C93.8847 69.2653 93.1455 67.7258 92.4031 66.1791C91.6997 64.7134 90.8367 63.3256 90.0954 61.8763C88.8019 59.348 87.4849 56.8279 86.2937 54.2504C84.7958 51.0123 83.6148 47.6594 83.2426 44.0725C83.0851 42.5545 83.0452 41.0386 83.351 39.5349C83.8407 37.1338 85.0913 35.2558 87.1935 33.9675C89.1434 32.7726 91.3162 32.3869 93.5422 32.2659C94.9236 32.191 96.3111 32.2526 97.7447 32.2526L97.6966 32.0095C96.805 30.1397 95.9717 28.2381 94.9962 26.4123C93.6199 23.8358 91.8592 21.5127 89.898 19.3587C88.445 17.7638 86.8714 16.2837 85.1475 14.976C83.4522 13.6888 81.6659 12.539 79.76 11.5984C77.4869 10.4773 75.1199 9.61064 72.6362 9.0578C70.2497 8.5265 67.8478 8.20136 65.4 8.17469C63.312 8.15212 61.2374 8.24649 59.2037 8.71932C56.1341 9.43217 53.3263 10.6999 50.8836 12.7533C49.5196 13.9 48.3294 15.1873 47.2875 16.6202C46.0646 18.3054 45.0778 20.1249 44.2343 22.0327C43.0768 24.6502 42.2823 27.3744 41.7394 30.1745C41.4674 31.5705 41.2547 32.9788 41.038 34.386C40.9623 34.8783 40.9562 35.3819 40.9122 35.9461C41.2895 35.7491 41.5615 35.5973 41.8396 35.4619L42.7445 35.0547C45.8048 33.6506 48.9756 32.747 52.3836 32.8505C53.8314 32.8947 55.2169 33.1818 56.5043 33.8178C58.9736 35.0394 60.4184 37.1164 61.0462 39.7452C61.4797 41.5596 61.7763 43.4099 62.0646 45.2552C62.2906 46.6962 62.5217 48.1527 62.5482 49.6061C62.5861 51.7303 62.4787 53.8586 62.3632 55.9817C62.265 57.791 61.8887 59.5716 61.2589 61.2599C60.1137 64.3298 58.8376 67.3494 57.6454 70.4018C57.2517 71.41 56.949 72.4542 56.5769 73.563C57.1515 73.563 57.6178 73.5589 58.084 73.565C58.266 73.5681 58.4521 73.5732 58.628 73.6153C59.9981 73.9394 61.1863 74.562 62.1607 75.6194C63.4603 77.0267 64.1423 78.6688 64.1771 80.5694C64.1965 81.6228 64.0861 82.6792 64.0912 83.7326C64.1127 88.6415 64.1495 93.5504 64.1904 98.4583C64.1975 99.2604 64.2374 100.064 64.2947 100.865C64.4143 102.542 64.535 104.22 64.6986 105.892C64.8131 107.079 64.9726 108.264 65.1597 109.442C65.4245 111.112 66.1822 112.598 67.0421 114.019C67.7824 115.241 68.7446 116.279 70.0125 116.994C72.1669 118.211 74.4869 118.312 76.8254 117.864C78.4051 117.562 79.9563 117.075 81.49 116.574C83.0023 116.081 84.3684 115.272 85.5156 114.159C86.5902 113.114 87.353 111.84 87.8673 110.434C88.8653 107.707 89.1761 104.835 89.5892 101.986C89.7436 100.919 89.8776 99.8491 90.0187 98.7804C90.1792 97.5639 90.3418 96.3485 90.4972 95.1331C90.6117 94.2274 90.716 93.3196 90.8264 92.414C90.9839 91.1134 91.1506 89.8139 91.3009 88.5123C91.4164 87.5061 91.5146 86.4958 91.6168 85.4875C91.7487 84.1993 91.8909 82.911 92.0044 81.6207C92.0923 80.6412 92.0565 79.6442 92.2293 78.6832C92.5473 76.921 93.3776 75.4215 94.9348 74.4522C95.5862 74.0471 96.3214 73.7804 97.0443 73.4378L96.9216 73.247V73.247ZM38.0287 66.0139C37.2506 64.1657 36.7833 62.2394 36.6443 60.2475C36.5134 58.3757 36.7353 56.511 36.9265 54.6473C37.1126 52.8421 37.267 51.0287 37.3212 49.2153C37.4111 46.2347 37.2107 43.2581 37.0686 40.2796C36.9827 38.5062 37.1882 36.7112 37.3457 34.9337C37.4878 33.3326 37.6647 31.7274 37.9664 30.1499C38.4725 27.5026 39.1443 24.8933 40.0993 22.364C41.0063 19.9659 42.0482 17.6305 43.5196 15.5278C44.5277 14.0857 45.6719 12.7379 46.7711 11.3287L46.4449 11.2128C42.8682 10.0732 39.2332 9.18293 35.495 8.7942C33.7271 8.6106 31.9531 8.50291 30.18 8.39726C29.6361 8.36444 29.0839 8.43829 28.5379 8.4906C27.1862 8.61983 25.8181 8.67112 24.4878 8.92549C22.224 9.3573 20.0522 10.0835 18.0409 11.2661C16.2352 12.3277 14.7189 13.7 13.4489 15.3463C12.046 17.1638 11.1023 19.2192 10.4244 21.4111C9.62375 23.9969 9.24235 26.6575 9.13908 29.3427C9.0491 31.6967 9.00411 34.0639 9.40902 36.4086C9.71066 38.1544 9.91209 39.9185 10.2444 41.6571C10.6974 44.0274 11.1831 46.3926 11.7444 48.7384C12.5471 52.0965 13.3487 55.4597 14.2996 58.7767C15.2097 61.9553 16.2362 65.1052 17.3487 68.2171C18.2587 70.7567 19.3109 73.2491 20.4193 75.7087C21.1412 77.3108 22.0154 78.8524 22.9316 80.353C23.906 81.9459 25.0144 83.4577 26.5185 84.6137C28.4162 86.0732 29.8856 86.2999 31.814 84.6988C32.6402 84.0126 33.3385 83.1654 34.0574 82.3582C35.1995 81.0761 36.3017 79.7591 37.4388 78.4729C38.8866 76.8339 40.3529 75.2122 41.8079 73.5814C42.1157 73.2368 42.4112 72.8819 42.7108 72.5332L42.2159 72.0973C40.4071 70.3546 39.0062 68.334 38.0287 66.0139V66.0139ZM92.9246 17.2233C94.1066 18.6141 95.2508 20.0459 96.3081 21.5352C98.3531 24.4164 99.987 27.5273 101.19 30.8556C101.723 32.3223 102.149 33.8034 101.958 35.4086C101.826 36.5327 101.838 37.6733 101.739 38.8036C101.656 39.7442 101.507 40.6796 101.386 41.6171C101.204 43.0304 100.94 44.4397 100.861 45.8593C100.787 47.2101 100.864 48.5753 100.949 49.9292C101.035 51.3046 101.22 52.6739 101.346 54.0473C101.488 55.6043 101.679 57.1613 101.723 58.7213C101.759 60.0024 101.646 61.2917 101.534 62.5707C101.401 64.1113 101.012 65.6026 100.431 67.0335C100.023 68.0407 99.5351 69.0171 99.0739 70.0254L99.259 70.2223L99.5402 70.4408L99.8234 69.932C102.215 66.1493 104.343 62.221 106.185 58.1439C107.37 55.5181 108.481 52.8555 109.546 50.1784C111.207 46.0101 112.521 41.7248 113.537 37.3543C113.993 35.3922 114.342 33.4003 114.652 31.4084C114.893 29.8515 115.094 28.276 115.139 26.7047C115.187 25.0379 115.095 23.3579 114.942 21.6952C114.828 20.4398 114.519 19.1762 113.734 18.1556C112.474 16.5125 111.113 14.9411 109.439 13.698C108.03 12.6508 106.626 11.5769 105.114 10.6958C102.716 9.30089 100.121 8.37162 97.4093 7.73877C94.7631 7.12029 92.0821 6.85361 89.3837 6.7972C87.7927 6.76335 86.1945 6.93464 84.6066 7.08439C83.1679 7.21978 81.7385 7.45056 80.2896 7.64133C81.8438 8.51829 83.3765 9.29781 84.8223 10.2168C87.8622 12.1482 90.5862 14.4724 92.9246 17.2233V17.2233ZM53.4306 71.2993C54.4132 68.1474 55.7517 65.138 57.0482 62.1102C58.0994 59.6547 58.674 57.0679 58.8652 54.4114C58.9603 53.1016 58.9337 51.7754 58.8693 50.4615C58.7967 49.002 58.6801 47.5383 58.4685 46.0931C58.1965 44.2459 57.8867 42.3976 57.4511 40.5842C56.9787 38.6221 55.7875 37.2559 53.7466 36.7522C52.5032 36.4456 51.268 36.4579 50.0114 36.6569C46.9419 37.142 44.132 38.2764 41.5144 39.938C40.9878 40.2724 40.6985 40.5421 40.7895 41.3001C40.9817 42.9053 41.0236 44.5361 41.0165 46.1567C41.0063 48.4502 40.9091 50.7436 40.8222 53.036C40.7936 53.7827 40.6862 54.5253 40.6065 55.2689C40.4838 56.4074 40.2476 57.5449 40.2547 58.6813C40.2619 59.8527 40.3815 61.0517 40.6647 62.1861C41.5645 65.7832 43.4705 68.7269 46.5942 70.8039C48.5155 72.0808 50.6413 72.725 52.9746 72.847C53.1331 72.3096 53.2742 71.8019 53.4306 71.2993ZM49.764 40.4396C49.3529 39.5739 49.5881 38.8569 50.541 38.5246C50.7732 38.4426 51.0124 38.3554 51.2537 38.3318C51.585 38.299 51.9224 38.3236 52.2578 38.3236C53.4664 38.3297 54.629 38.499 55.627 39.2703C56.267 39.7647 56.4388 40.4211 56.0247 41.095C55.4368 42.0509 54.54 42.5309 53.4388 42.6232C51.7036 42.7679 50.4858 41.9566 49.764 40.4396ZM97.8623 40.1237C98.0013 38.9708 98.1128 37.8149 98.2549 36.662C98.3122 36.1984 98.0688 36.0732 97.6813 36.062C96.4625 36.0281 95.2436 35.985 94.0248 35.9625C92.6506 35.9379 91.3132 36.1594 90.0412 36.6835C88.6301 37.2661 87.5555 38.1995 87.1168 39.7401C86.7896 40.8888 86.7017 42.0366 86.8172 43.2376C86.9931 45.0685 87.398 46.845 88.0371 48.5466C88.8898 50.8246 89.7825 53.1016 90.8489 55.2843C92.2937 58.2393 93.9287 61.0999 95.4635 64.0097C95.8735 64.7862 96.2181 65.5965 96.6455 66.5032C97.5402 64.6026 97.9768 62.7 98.0269 60.7368C98.0688 59.0854 97.9369 57.4269 97.8408 55.7745C97.7805 54.7632 97.6383 53.7581 97.5402 52.7488C97.4032 51.3426 97.1956 49.9374 97.1639 48.5281C97.1322 47.0952 97.2334 45.6541 97.3561 44.2233C97.4717 42.851 97.6976 41.4899 97.8623 40.1237V40.1237ZM95.1128 39.0139C94.6598 40.2683 93.6915 40.976 92.4359 41.1842C91.2651 41.377 90.2395 40.9432 89.4768 40.0067C88.9338 39.34 89.1414 38.5503 89.9553 38.1C90.8898 37.581 91.9175 37.4497 93.1291 37.3707C93.4584 37.4312 93.9543 37.4815 94.4256 37.6169C95.1097 37.8107 95.3623 38.3267 95.1128 39.0139ZM58.8938 77.6411C58.2241 77.0923 57.3386 77.0605 56.7016 77.6626C55.9112 78.4114 55.2159 79.2678 54.5206 80.1119C53.718 81.0874 52.9654 82.1018 51.9296 82.8577C50.4224 83.9562 48.6658 84.4116 46.8999 84.8424C45.496 85.185 44.086 85.5029 42.678 85.8322L42.6607 86.0147C43.0789 86.2086 43.4838 86.4506 43.9194 86.5891C46.0666 87.2712 48.2507 87.6107 50.5196 87.4179C52.1576 87.2784 53.718 86.9204 55.1965 86.2168C57.2313 85.2496 58.7967 83.7172 60.128 81.9346C60.3509 81.6371 60.4521 81.1971 60.4787 80.8135C60.5697 79.4586 59.8836 78.4514 58.8938 77.6411V77.6411ZM111.809 78.1806C110.081 78.3662 108.351 78.5632 106.618 78.6626C105.782 78.7109 104.933 78.5508 104.088 78.4821C102.672 78.3672 101.29 78.0513 100.092 77.2923C99.3991 76.8544 98.8234 76.8051 98.0872 77.0534C97.0361 77.4082 96.1782 77.9477 95.9246 79.0904C95.7518 79.8627 95.6894 80.6627 95.6199 81.4535C95.6066 81.593 95.7805 81.8494 95.9134 81.8843C96.7242 82.0987 97.5391 82.352 98.3684 82.4269C99.3868 82.5192 100.424 82.4895 101.449 82.4382C102.557 82.3828 103.671 82.311 104.762 82.1264C107.334 81.6935 109.821 80.9879 112.031 79.5252C112.828 78.997 113.617 78.4575 114.408 77.9231L114.343 77.8103C113.498 77.9365 112.658 78.0903 111.809 78.1806V78.1806Z" fill="currentColor"/>
</svg>
