<svg width="125" height="125" viewBox="0 0 125 125" fill="none" xmlns="http://www.w3.org/2000/svg">
<path d="M70.4522 0.514649C36.2231 -3.87598 4.90537 20.3115 0.514741 54.5459C-3.87588 88.7751 20.3064 120.088 54.5408 124.483C88.7752 128.874 120.098 104.687 124.478 70.4521C128.874 36.223 104.692 4.91048 70.4522 0.514649ZM83.322 39.499C82.1622 39.5143 81.0541 39.9814 80.2335 40.8011L57.0408 63.9938L55.4418 62.3948L52.0929 59.0459C74.9522 36.2542 79.072 36.0355 83.322 39.499ZM57.9939 64.8167L81.1189 41.6917C81.422 41.3738 81.7868 41.1211 82.1909 40.9491C82.595 40.777 83.03 40.6892 83.4692 40.691C83.9084 40.6928 84.3426 40.7841 84.7453 40.9595C85.148 41.1349 85.5107 41.3906 85.8112 41.7109C86.1117 42.0313 86.3437 42.4096 86.4929 42.8226C86.6422 43.2357 86.7056 43.6749 86.6794 44.1134C86.6531 44.5518 86.5376 44.9803 86.34 45.3726C86.1425 45.7648 85.867 46.1127 85.5304 46.3949L61.0564 67.8792L57.9939 64.8167ZM59.7127 68.4313L53.9835 69.6709C53.9151 69.6863 53.8434 69.6782 53.7801 69.648C53.7168 69.6178 53.6656 69.5671 53.6345 69.5042C53.5997 69.4441 53.5859 69.374 53.5953 69.3052C53.6048 69.2363 53.6369 69.1726 53.6866 69.124L57.046 65.7646L59.7127 68.4313ZM45.1137 66.0407L51.2179 59.9365L55.796 64.5094L45.4887 66.7282C45.4028 66.7505 45.3118 66.7424 45.2312 66.7054C45.1505 66.6684 45.0851 66.6047 45.046 66.5251C44.9974 66.4496 44.9776 66.3592 44.99 66.2703C45.0024 66.1814 45.0463 66.1 45.1137 66.0407ZM26.1241 97.5928C26.072 97.5882 26.0214 97.5734 25.9751 97.5491C25.9288 97.5249 25.8878 97.4917 25.8544 97.4515C25.8209 97.4113 25.7958 97.3649 25.7804 97.3149C25.7651 97.265 25.7597 97.2125 25.7647 97.1605C25.7746 97.0699 25.815 96.9854 25.8793 96.9209H25.8897L30.8168 91.9938L37.1814 98.3584L26.1241 97.5928ZM38.7543 91.0511C38.5182 91.1731 38.3298 91.3708 38.2193 91.6125C38.1088 91.8542 38.0827 92.1261 38.1449 92.3844L39.2022 96.8896C39.2364 97.0285 39.2239 97.1747 39.1667 97.3057C39.1095 97.4367 39.0108 97.5452 38.8858 97.6145C38.7607 97.6839 38.6164 97.7101 38.475 97.6892C38.3335 97.6683 38.2029 97.6015 38.1033 97.499H38.0877L33.2231 92.6344L31.6918 91.098L51.2856 71.5251L60.7647 69.4782L65.3168 74.0303C58.7804 79.7698 49.8429 85.4938 38.7543 91.0511ZM66.2491 73.1969H66.2387L61.8689 68.8271L86.3429 47.3428C86.5692 47.1417 86.7767 46.9203 86.9627 46.6813C86.1918 53.6865 76.3949 63.5824 66.2491 73.1969ZM85.296 39.5511L85.2804 39.5407C83.5584 37.8105 82.5693 35.4832 82.5189 33.0427C82.4684 30.6021 83.3604 28.236 85.0094 26.4361C86.6584 24.6362 88.9377 23.541 91.3733 23.3781C93.8089 23.2152 96.2137 23.9972 98.0877 25.5615L89.7022 33.9626C89.6441 34.0202 89.598 34.0887 89.5665 34.1643C89.5351 34.2398 89.5188 34.3208 89.5188 34.4027C89.5188 34.4845 89.5351 34.5655 89.5665 34.6411C89.598 34.7166 89.6441 34.7852 89.7022 34.8428L96.197 41.3376C94.4218 42.2188 92.4147 42.5204 90.4588 42.1999C88.503 41.8794 86.6971 40.9529 85.296 39.5511ZM98.7231 39.5511C98.2923 39.9765 97.8194 40.3569 97.3116 40.6865L91.0199 34.4001L99.0043 26.4157C102.447 30.1657 102.322 35.9574 98.7231 39.5511ZM98.2022 31.5094C98.077 31.6002 97.9832 31.7277 97.9337 31.8742C97.8842 32.0208 97.8816 32.1791 97.9262 32.3271C98.1116 32.7027 98.1843 33.1239 98.1353 33.5399C98.0863 33.9559 97.9178 34.3487 97.6502 34.6709C97.5905 34.7461 97.5462 34.8323 97.52 34.9246C97.4937 35.0169 97.4859 35.1135 97.497 35.2088C97.5081 35.3041 97.538 35.3963 97.5848 35.4801C97.6317 35.5638 97.6946 35.6375 97.7699 35.6969C97.895 35.795 98.0485 35.8498 98.2074 35.8532C98.3128 35.8523 98.4167 35.8285 98.512 35.7835C98.6074 35.7386 98.6918 35.6735 98.7595 35.5928C99.2069 35.0553 99.488 34.3992 99.5685 33.7045C99.6489 33.0099 99.5253 32.3068 99.2127 31.6813C99.1581 31.603 99.0885 31.5364 99.008 31.4853C98.9274 31.4342 98.8375 31.3996 98.7435 31.3836C98.6494 31.3676 98.5531 31.3705 98.4602 31.3921C98.3673 31.4137 98.2796 31.4536 98.2022 31.5094Z" fill="currentColor"/>
</svg>
