<svg width="125" height="125" viewBox="0 0 125 125" fill="none" xmlns="http://www.w3.org/2000/svg">
<path d="M74.1604 0.93L78.8246 1.96333L82.6078 3.30667L85.6654 4.85667L87.9975 6.51L89.7595 8.26667L91.0551 10.0233L91.8843 11.7283L92.4026 13.2783L92.6099 14.6217L92.7135 15.655L92.6617 16.3267V43.9167L92.4026 47.1717L91.7289 50.0133L90.6405 52.39L89.2931 54.3533L87.7384 55.955L86.0282 57.2467L84.2143 58.2283L82.4005 58.9517L80.6903 59.4683L79.1356 59.83L77.7881 60.0367L76.6998 60.14H45.7608L42.1849 60.3983L39.1273 61.1217L36.5361 62.2583L34.4113 63.6533L32.7011 65.3067L31.3018 67.115L30.2653 68.975L29.488 70.8867L28.9697 72.695L28.607 74.3483L28.3997 75.7433L28.296 76.8283V92.6383H16.7392L15.6509 92.4833L14.1998 92.1217L12.5415 91.5017L10.7276 90.5717L8.86194 89.2283L6.99627 87.3683L5.18242 84.9917L3.52405 81.9433L2.07297 78.1717L0.98466 73.625L0.259121 68.2L0 61.845L0.310945 55.5417L1.14013 50.1683L2.38391 45.6733L4.04229 42.005L5.90796 39.06L7.98093 36.7867L10.1575 35.0817L12.3342 33.8417L14.4071 33.015L16.2728 32.4983L17.9312 32.24L19.175 32.1883H20.0041L20.3151 32.24H62.6036V27.9517H32.3383L32.2865 13.7433L32.1828 11.8317L32.442 10.075L33.012 8.47333L33.893 7.02667L35.1886 5.68333L36.7952 4.495L38.7645 3.46167L41.0448 2.53167L43.6878 1.75667L46.6936 1.13667L50.0104 0.62L53.6899 0.31L57.6803 0.103333L62.0336 0L68.6153 0.258333L74.1604 0.93V0.93ZM41.5112 11.16L40.3192 12.865L39.9046 14.9833L40.3192 17.1017L41.5112 18.8583L43.2214 19.995L45.3462 20.46L47.471 19.995L49.1812 18.8583L50.3731 17.1017L50.7877 14.9833L50.3731 12.865L49.1812 11.16L47.471 10.0233L45.3462 9.55833L43.2214 10.0233L41.5112 11.16ZM109.349 31.5683L110.8 31.8783L112.459 32.4983L114.272 33.4283L116.138 34.8233L118.004 36.6317L119.818 39.06L121.476 42.1083L122.927 45.88L124.015 50.4267L124.741 55.8L125 62.155L124.689 68.51L123.86 73.8833L122.616 78.3267L120.958 81.995L119.092 84.94L117.019 87.265L114.842 88.97L112.666 90.21L110.593 91.0367L108.727 91.5017L107.069 91.76L105.825 91.8633L104.996 91.8117H62.3964V96.0483H92.6617L92.7135 110.308L92.8172 112.168L92.558 113.925L91.988 115.527L91.107 117.025L89.8114 118.317L88.2048 119.557L86.2355 120.59L83.9552 121.468L81.3122 122.243L78.3064 122.915L74.9896 123.38L71.3101 123.742L67.3197 123.948L62.9664 124L56.3847 123.793L50.8396 123.07L46.1754 122.037L42.3922 120.745L39.3346 119.195L37.0025 117.49L35.2405 115.733L33.9449 113.977L33.1157 112.272L32.5974 110.722L32.3901 109.43L32.2865 108.397L32.3383 107.725V80.135L32.5974 76.8283L33.2711 74.0383L34.3595 71.6617L35.7069 69.6983L37.2616 68.045L38.9718 66.805L40.7857 65.7717L42.5995 65.0483L44.3097 64.5317L45.8644 64.2217L47.2119 64.015L48.3002 63.9117L48.9739 63.86H79.2392L82.8151 63.6017L85.8727 62.8783L88.4639 61.7933L90.5887 60.3467L92.2989 58.6933L93.6982 56.885L94.7347 55.025L95.512 53.165L96.0303 51.3567L96.393 49.7033L96.6003 48.2567L96.704 47.1717V31.3617H107.535L108.261 31.4133L109.349 31.5683V31.5683ZM75.8188 105.193L74.6269 106.898L74.2123 109.017L74.6269 111.135L75.8188 112.84L77.529 114.028L79.6538 114.442L81.7786 114.028L83.4888 112.84L84.6808 111.135L85.0954 109.017L84.6808 106.898L83.4888 105.193L81.7786 104.005L79.6538 103.592L77.529 104.005L75.8188 105.193Z" fill="currentColor"/>
</svg>
