<svg width="125" height="125" viewBox="0 0 125 125" fill="none" xmlns="http://www.w3.org/2000/svg">
<path d="M62.5 5.53201e-05C55.2101 -0.00966397 47.9751 1.26139 41.125 3.75526C66.5 17.0678 100.063 60.4896 111.682 101.078C120.329 90.0798 125.02 76.4903 125 62.5001C125 27.9844 97.0157 5.53201e-05 62.5 5.53201e-05ZM21.3177 15.4896C14.6138 21.349 9.24264 28.5763 5.56553 36.6852C1.88842 44.794 -0.00930903 53.5964 3.43341e-05 62.5001C3.43341e-05 78.2605 5.83337 92.6511 15.4584 103.646C23.9427 78.1563 39.8907 53.5886 53.5469 39.8646C43.7969 29.3646 32.8802 21.0209 21.3177 15.4896ZM33.1719 117.703C42.1997 122.509 52.2729 125.015 62.5 125C73.3959 125 83.6407 122.208 92.5625 117.302C87.4219 93.5469 77.7136 71.7865 65.0625 54.0365C51.5365 68.6198 38.0521 94.1511 33.1719 117.703Z" fill="currentColor"/>
</svg>
