<svg width="125" height="125" viewBox="0 0 125 125" fill="none" xmlns="http://www.w3.org/2000/svg">
<path d="M62.5 74.1925C68.786 74.1925 73.8818 69.0967 73.8818 62.8107C73.8818 56.5247 68.786 51.4289 62.5 51.4289C56.214 51.4289 51.1182 56.5247 51.1182 62.8107C51.1182 69.0967 56.214 74.1925 62.5 74.1925Z M105.731 44.0407C103.534 43.242 101.238 42.4433 98.8419 41.7444C99.4409 39.3482 99.9401 36.9521 100.339 34.6557C102.436 21.4768 100.14 12.1917 93.75 8.59744C91.853 7.4992 89.7564 7 87.3602 7C80.3714 7 71.4856 12.1917 62.5 20.8778C53.5144 12.1917 44.6286 7 37.6398 7C35.2436 7 33.147 7.4992 31.25 8.59744C24.8602 12.2915 22.5639 21.5767 24.6605 34.6557C25.0599 36.9521 25.5591 39.3482 26.1581 41.7444C23.762 42.4433 21.4657 43.1422 19.2692 44.0407C6.78914 48.8331 0 55.4225 0 62.8107C0 70.1989 6.88898 76.7883 19.2692 81.5807C21.4657 82.3794 23.762 83.1781 26.1581 83.877C25.5591 86.2732 25.0599 88.6693 24.6605 90.9657C22.5639 104.145 24.8602 113.43 31.25 117.024C33.147 118.122 35.2436 118.621 37.6398 118.621C44.7284 118.621 53.6142 113.43 62.5 104.744C71.4856 113.43 80.3714 118.621 87.3602 118.621C89.7564 118.621 91.853 118.122 93.75 117.024C100.14 113.33 102.436 104.045 100.339 90.9657C99.9401 88.6693 99.4409 86.2732 98.8419 83.877C101.238 83.1781 103.534 82.4792 105.731 81.5807C118.211 76.7883 125 70.1989 125 62.8107C125 55.4225 118.211 48.8331 105.731 44.0407ZM90.9545 13.5895C95.0479 15.9856 96.4457 23.3738 94.7484 33.857C94.4489 35.9537 93.9497 38.1502 93.3506 40.4465C88.1589 39.2484 82.6677 38.4497 76.877 37.9505C73.4824 33.1581 69.988 28.865 66.4936 24.9712C73.8818 17.6829 81.3698 12.6909 87.4601 12.6909C88.758 12.6909 89.9561 12.9904 90.9545 13.5895ZM79.7724 72.7947C77.9752 75.9896 75.8786 79.1845 73.6821 82.3794C69.988 82.6789 66.2939 82.7788 62.5 82.7788C58.6062 82.7788 54.9121 82.6789 51.3179 82.3794C49.1214 79.1845 47.1246 75.9896 45.3275 72.7947C43.4305 69.5 41.6334 66.1054 40.0359 62.8107C41.6334 59.516 43.4305 56.1214 45.3275 52.8267C47.1246 49.6318 49.2212 46.4369 51.4177 43.242C55.1118 42.9425 58.8059 42.8427 62.5998 42.8427C66.4936 42.8427 70.1877 42.9425 73.782 43.242C75.9784 46.4369 77.9752 49.6318 79.7724 52.8267C81.6693 56.1214 83.4665 59.516 85.0639 62.8107C83.3666 66.1054 81.6693 69.4002 79.7724 72.7947ZM88.0591 69.5C89.5567 72.9944 90.7548 76.389 91.853 79.7835C88.4585 80.5823 84.8642 81.1813 81.0703 81.6805C82.2684 79.7835 83.5663 77.7867 84.6645 75.6901C85.8626 73.5935 86.9609 71.4968 88.0591 69.5ZM62.5 96.5567C60.1038 93.9609 57.8075 91.1653 55.611 88.27C57.9073 88.3698 60.2037 88.4696 62.5 88.4696C64.7963 88.4696 67.0927 88.3698 69.389 88.27C67.1925 91.1653 64.8962 93.9609 62.5 96.5567ZM43.9297 81.5807C40.1358 81.0815 36.5415 80.4824 33.147 79.6837C34.2452 76.389 35.4433 72.8946 36.9409 69.4002C38.0391 71.397 39.1374 73.4936 40.3355 75.4904C41.5335 77.6869 42.7316 79.5839 43.9297 81.5807ZM36.9409 56.1214C35.4433 52.627 34.2452 49.2324 33.147 45.8379C36.5415 45.0391 40.1358 44.4401 43.9297 43.9409C42.7316 45.8379 41.4337 47.8347 40.3355 49.9313C39.1374 52.028 38.0391 54.1246 36.9409 56.1214ZM62.5 29.0647C64.8962 31.6605 67.1925 34.4561 69.389 37.3514C67.0927 37.2516 64.7963 37.1518 62.5 37.1518C60.2037 37.1518 57.9073 37.2516 55.611 37.3514C57.8075 34.4561 60.1038 31.6605 62.5 29.0647ZM84.6645 50.0311L81.0703 44.0407C84.8642 44.5399 88.4585 45.139 91.853 45.9377C90.7548 49.2324 89.5567 52.7268 88.0591 56.2212C86.9609 54.1246 85.8626 52.028 84.6645 50.0311ZM30.2516 33.857C28.5543 23.3738 29.9521 15.9856 34.0455 13.5895C35.0439 12.9904 36.242 12.6909 37.5399 12.6909C43.5304 12.6909 51.0184 17.5831 58.5064 24.9712C55.012 28.7652 51.5176 33.1581 48.123 37.9505C42.3323 38.4497 36.8411 39.3482 31.6494 40.4465C31.0503 38.1502 30.651 35.9537 30.2516 33.857ZM5.59105 62.8107C5.59105 58.1182 11.282 53.1262 21.266 49.4321C23.2628 48.6334 25.4593 47.9345 27.6558 47.3355C29.2532 52.3275 31.25 57.619 33.6462 62.9105C31.25 68.2021 29.1534 73.3938 27.6558 78.3858C13.8778 74.3922 5.59105 68.4018 5.59105 62.8107ZM34.0455 112.032C29.9521 109.636 28.5543 102.248 30.2516 91.7644C30.5511 89.6677 31.0503 87.4712 31.6494 85.1749C36.8411 86.373 42.3323 87.1717 48.123 87.6709C51.5176 92.4633 55.012 96.7564 58.5064 100.65C51.1182 107.938 43.6302 112.931 37.5399 112.931C36.242 112.931 35.0439 112.631 34.0455 112.032ZM94.7484 91.7644C96.4457 102.248 95.0479 109.636 90.9545 112.032C89.9561 112.631 88.758 112.931 87.4601 112.931C81.4697 112.931 73.9816 108.038 66.4936 100.65C69.988 96.8562 73.4824 92.4633 76.877 87.6709C82.6677 87.1717 88.1589 86.2732 93.3506 85.1749C93.9497 87.4712 94.349 89.6677 94.7484 91.7644ZM103.734 76.1893C101.737 76.988 99.5407 77.6869 97.3443 78.2859C95.7468 73.2939 93.75 68.0024 91.3538 62.7109C93.75 57.4193 95.8466 52.2276 97.3443 47.2356C111.122 51.2292 119.409 57.2196 119.409 62.8107C119.409 67.5032 113.618 72.4952 103.734 76.1893Z" fill="currentColor"/>
</svg>
