<svg width="125" height="125" viewBox="0 0 125 125" fill="none" xmlns="http://www.w3.org/2000/svg">
<path d="M86.6354 85.9583C91.1667 85.5677 94.6719 81.5833 94.4479 76.8229C94.2031 72.0625 90.3021 68.2396 85.5469 68.2396H85.2292C82.8694 68.3237 80.6395 69.3416 79.03 71.0693C77.4204 72.7971 76.5628 75.0933 76.6458 77.4531C76.8021 79.9479 77.8229 81.9792 79.2187 83.4583C73.7604 94.0729 65.5677 101.875 53.151 108.432C44.8021 112.797 35.9844 114.443 27.401 113.276C20.2239 112.26 14.6094 109.057 11.1719 103.906C6.02603 96.099 5.55728 87.6771 9.84374 79.25C12.9687 73.1563 17.651 68.7135 20.776 66.526C19.8326 63.9102 19.1011 61.2227 18.5885 58.4896C-4.52085 75.0417 -2.16668 97.6667 4.85415 108.359C10.0833 116.161 20.776 121.151 32.4792 121.151C35.6042 121.151 38.8854 120.922 42.0781 120.141C62.375 116.24 77.7448 104.068 86.5625 86.1198L86.6354 85.9583ZM114.49 66.4479C102.406 52.2396 84.6042 44.4375 64.3125 44.4375H61.6562C60.3385 41.5521 57.2969 39.7552 53.8542 39.7552H53.6198C48.7083 39.7552 44.8802 43.974 45.0417 48.8854C45.1979 53.5625 49.1771 57.4688 53.9375 57.4688H54.3229C56.0114 57.4035 57.6454 56.8537 59.0298 55.8849C60.4143 54.916 61.4906 53.5692 62.1302 52.0052H65.0208C77.0469 52.0052 88.4323 55.5156 98.8125 62.3802C106.766 67.6146 112.469 74.4792 115.672 82.6771C118.474 89.3854 118.323 95.9427 115.437 101.411C110.984 109.99 103.49 114.521 93.5833 114.521C87.3385 114.521 81.2552 112.568 78.1302 111.167C76.2552 112.719 73.1302 115.297 70.8698 116.859C77.7344 119.974 84.6823 121.771 91.3906 121.771C106.609 121.771 117.922 113.193 122.219 104.917C126.896 95.5521 126.51 79.7917 114.562 66.2917L114.49 66.4479ZM33.8021 88.7604C33.9583 93.4427 37.9323 97.3438 42.6979 97.3438H43.0104C44.1832 97.3173 45.3389 97.0564 46.4093 96.5764C47.4797 96.0964 48.4432 95.407 49.2431 94.5489C50.043 93.6908 50.6631 92.6812 51.0668 91.5798C51.4705 90.4783 51.6496 89.3072 51.5937 88.1354C51.5937 83.4479 47.5364 79.5573 42.776 79.5573H42.4635C42.151 79.5573 41.6823 79.5573 41.2864 79.7083C34.8125 68.7813 32.0781 57.0677 33.0989 44.4375C33.7239 34.9167 36.8489 26.6406 42.4583 19.776C47.1458 13.9219 55.9635 11.026 61.9739 10.8802C78.8281 10.5625 85.8542 31.5625 86.3958 39.9115L94.1979 42.2552C92.401 16.651 76.4896 3.22917 61.2708 3.22917C46.9792 3.22917 33.8021 13.6094 28.4896 28.8281C21.2344 49.1146 25.9948 68.6302 34.8958 84.2396C34.1146 85.2552 33.6458 87.0469 33.8021 88.7604Z" fill="currentColor"/>
</svg>
