<svg width="125" height="125" viewBox="0 0 125 125" fill="none" xmlns="http://www.w3.org/2000/svg">
<path d="M62.5 98.2435C27.9844 98.2435 0 79.3864 0 56.1217C0 32.857 27.9844 14 62.5 14C97.0156 14 125 32.8623 125 56.1217C125 79.3812 97.0156 98.2435 62.5 98.2435ZM72.0677 30.4671C45.8281 30.4671 24.5625 43.36 24.5625 59.2663C24.5625 75.1727 45.8281 88.0602 72.0625 88.0602C98.2969 88.0602 117.667 79.2449 117.667 59.2663C117.667 39.2877 98.3021 30.4671 72.0677 30.4671V30.4671ZM95.1823 79.2397C97.2259 79.8587 99.2253 80.6169 101.167 81.509C102.288 82.0662 103.311 82.8025 104.198 83.6893C104.756 84.2854 105.223 84.9619 105.583 85.6966L120.495 110.99L96.3958 111L85.1302 89.7059C84.0902 87.8503 82.8387 86.1231 81.401 84.5593C81.0399 84.1543 80.5995 83.8289 80.1074 83.6034C79.6154 83.3779 79.0823 83.2573 78.5417 83.249H72.8177V110.984L51.5 110.99V40.1577H94.3177C94.3177 40.1577 113.818 40.5089 113.818 59.1825C113.835 64.2852 111.916 69.2021 108.453 72.9296C104.989 76.657 100.243 78.9139 95.1823 79.2397V79.2397ZM85.9115 55.519L73 55.5138V67.5575H85.9115C86.7092 67.5679 87.5008 67.4154 88.2384 67.1094C88.976 66.8035 89.6444 66.3503 90.2032 65.7772C90.7619 65.2042 91.1995 64.5231 91.4896 63.7752C91.7796 63.0273 91.916 62.228 91.8906 61.4256C91.9351 60.6287 91.81 59.8315 91.5237 59.0872C91.2374 58.3429 90.7966 57.6686 90.2306 57.1095C89.6646 56.5504 88.9865 56.1193 88.2417 55.845C87.4968 55.5707 86.7024 55.4596 85.9115 55.519V55.519Z" fill="currentColor"/>
</svg>
