<svg width="125" height="125" viewBox="0 0 125 125" fill="none" xmlns="http://www.w3.org/2000/svg">
<path d="M124.14 60.9544L118.893 57.7054C118.849 57.195 118.8 56.6851 118.746 56.1758L123.254 51.9718C123.477 51.7606 123.642 51.4966 123.735 51.2043C123.827 50.9119 123.844 50.6009 123.784 50.3001C123.724 49.9994 123.589 49.7187 123.391 49.4844C123.193 49.2501 122.939 49.0698 122.653 48.9603L116.889 46.8034C116.747 46.3048 116.596 45.8087 116.436 45.3154L120.032 40.3205C120.213 40.0709 120.326 39.7794 120.362 39.4736C120.397 39.1677 120.354 38.8579 120.237 38.5734C120.119 38.289 119.93 38.0395 119.688 37.8486C119.447 37.6577 119.161 37.5319 118.857 37.4831L112.782 36.4963C112.545 36.0371 112.301 35.5817 112.049 35.1302L114.601 29.5237C114.73 29.2441 114.784 28.9361 114.759 28.6294C114.734 28.3227 114.631 28.0276 114.459 27.7726C114.287 27.5171 114.053 27.3094 113.779 27.1691C113.506 27.0287 113.201 26.9603 112.893 26.9702L106.724 27.187C106.407 26.786 106.082 26.3921 105.748 26.0053L107.166 19.9981C107.236 19.6985 107.229 19.3861 107.145 19.0902C107.06 18.7943 106.902 18.5248 106.685 18.3072C106.467 18.0896 106.198 17.9311 105.902 17.8466C105.606 17.7622 105.294 17.7545 104.994 17.8245L98.9881 19.2437C98.5961 18.9143 98.2005 18.589 97.8016 18.2678L98.0178 12.0965C98.0325 11.7878 97.9672 11.4804 97.8282 11.2044C97.6891 10.9283 97.4811 10.6929 97.2243 10.5209C96.9675 10.3489 96.6706 10.2463 96.3625 10.223C96.0544 10.1996 95.7454 10.2563 95.4657 10.3876L89.8614 12.9458C89.4072 12.6978 88.9541 12.4498 88.4952 12.2127L87.5041 6.131C87.4525 5.8285 87.3252 5.54402 87.1339 5.30414C86.9426 5.06426 86.6936 4.87683 86.4102 4.75936C86.1268 4.6419 85.8182 4.59824 85.5134 4.63247C85.2085 4.6667 84.9174 4.7777 84.667 4.95509L79.6685 8.55264C79.1755 8.39459 78.6798 8.24521 78.1815 8.10458L76.0252 2.33912C75.9158 2.05254 75.7355 1.79838 75.5013 1.6004C75.267 1.40242 74.9864 1.26709 74.6857 1.20703C74.3849 1.14698 74.0739 1.16417 73.7816 1.25701C73.4893 1.34984 73.2253 1.51528 73.0142 1.73788L68.8116 6.25292C68.3027 6.19551 67.7929 6.14618 67.2824 6.10495L64.0344 0.856333C63.8729 0.594552 63.6471 0.378449 63.3785 0.228565C63.11 0.0786816 62.8075 0 62.5 0C62.1925 0 61.89 0.0786816 61.6215 0.228565C61.3529 0.378449 61.1271 0.594552 60.9656 0.856333L57.7176 6.10443C57.2074 6.14828 56.6976 6.1976 56.1884 6.2524L51.9806 1.73736C51.7709 1.51203 51.5071 1.34412 51.2143 1.2496C50.9214 1.15507 50.6093 1.13709 50.3075 1.19736C50.0058 1.25762 49.7245 1.39413 49.4904 1.59389C49.2563 1.79365 49.0772 2.05002 48.9701 2.3386L46.8133 8.10353C46.3122 8.24629 45.8221 8.39894 45.3263 8.5516L40.333 4.95509C40.0826 4.77769 39.7914 4.66671 39.4865 4.6325C39.1816 4.5983 38.8731 4.64201 38.5896 4.75953C38.3062 4.87705 38.0573 5.06455 37.866 5.30449C37.6747 5.54443 37.5474 5.82898 37.4959 6.13152L36.5048 12.2127C36.0457 12.4498 35.5904 12.6942 35.1391 12.9458L29.5338 10.3876C29.2538 10.2595 28.9457 10.2052 28.6388 10.2299C28.3319 10.2546 28.0364 10.3576 27.7805 10.5289C27.5246 10.7002 27.3169 10.9342 27.1771 11.2087C27.0372 11.4831 26.97 11.7887 26.9817 12.0965L27.1984 18.2678C26.7969 18.5858 26.4013 18.9111 26.0119 19.2437L20.0061 17.8239C19.7066 17.7539 19.3942 17.7615 19.0984 17.8459C18.8027 17.9303 18.5333 18.0888 18.3158 18.3063C18.0984 18.5239 17.9399 18.7933 17.8556 19.0891C17.7712 19.385 17.7636 19.6975 17.8336 19.9971L19.2467 26.0048C18.9196 26.3955 18.593 26.791 18.2763 27.1864L12.107 26.9702C11.7993 26.9585 11.4937 27.0258 11.2194 27.1656C10.9451 27.3055 10.7111 27.5133 10.5398 27.7693C10.3685 28.0252 10.2656 28.3208 10.2409 28.6278C10.2162 28.9348 10.2705 29.2431 10.3986 29.5231L12.9559 35.1297C12.7043 35.5811 12.46 36.0365 12.2231 36.4958L6.14905 37.4826C5.84669 37.5341 5.56232 37.6614 5.32253 37.8527C5.08273 38.044 4.89534 38.293 4.77787 38.5765C4.66039 38.8599 4.61668 39.1685 4.6508 39.4734C4.68492 39.7783 4.79578 40.0696 4.97299 40.32L8.56889 45.3149C8.41229 45.809 8.26123 46.3048 8.11576 46.8023L2.35264 48.9593C2.06611 49.0687 1.81198 49.249 1.61401 49.4833C1.41604 49.7176 1.28068 49.9983 1.2206 50.2991C1.16051 50.6 1.17765 50.9111 1.27042 51.2036C1.36319 51.496 1.52855 51.7601 1.75106 51.9712L6.25947 56.1758C6.20226 56.6847 6.15312 57.1944 6.11208 57.7049L0.865633 60.9539C0.601468 61.1136 0.382985 61.3387 0.231334 61.6076C0.0796825 61.8765 0 62.1801 0 62.4888C0 62.7975 0.0796825 63.101 0.231334 63.3699C0.382985 63.6388 0.601468 63.864 0.865633 64.0237L6.11208 67.2727C6.15374 67.7843 6.20687 68.2959 6.25947 68.8023L1.75106 73.0116C1.52582 73.2213 1.35798 73.4852 1.26353 73.7782C1.16907 74.0711 1.15114 74.3834 1.21144 74.6853C1.27174 74.9871 1.40827 75.2685 1.60802 75.5027C1.80778 75.7368 2.06411 75.9159 2.35264 76.023L8.11576 78.1805C8.25795 78.6817 8.41107 79.1777 8.56889 79.6679L4.97299 84.6628C4.791 84.9124 4.67633 85.2046 4.64002 85.5113C4.60371 85.8181 4.64698 86.129 4.76567 86.4141C4.88437 86.6993 5.07448 86.9491 5.31769 87.1394C5.5609 87.3297 5.84901 87.4542 6.15426 87.5007L12.2283 88.487C12.4658 88.9455 12.7085 89.3993 12.9617 89.8531L10.4043 95.4602C10.2762 95.7402 10.2219 96.0485 10.2466 96.3555C10.2714 96.6625 10.3743 96.9581 10.5456 97.214C10.7168 97.47 10.9508 97.6778 11.2251 97.8177C11.4994 97.9576 11.805 98.0248 12.1127 98.0131L18.2763 97.7969C18.5982 98.1975 18.9196 98.593 19.2519 98.9832L17.8388 104.996C17.7684 105.296 17.7757 105.608 17.86 105.904C17.9443 106.2 18.1029 106.469 18.3206 106.686C18.5383 106.903 18.8079 107.061 19.1038 107.145C19.3997 107.229 19.7121 107.235 20.0113 107.164L26.0166 105.751C26.4072 106.083 26.803 106.404 27.2036 106.721L26.9874 112.893C26.9737 113.201 27.0397 113.508 27.1791 113.783C27.3185 114.058 27.5266 114.293 27.7832 114.464C28.0399 114.636 28.3364 114.738 28.6441 114.761C28.9518 114.784 29.2602 114.727 29.5396 114.596L35.1443 112.043C35.5975 112.296 36.0511 112.539 36.51 112.776L37.5011 118.852C37.5519 119.155 37.6787 119.44 37.8696 119.681C38.0606 119.922 38.3095 120.11 38.593 120.228C38.8765 120.346 39.1854 120.39 39.4906 120.356C39.7958 120.322 40.0875 120.211 40.3382 120.034L45.3315 116.437C45.8247 116.596 46.3204 116.747 46.8185 116.89L48.9748 122.656C49.0806 122.945 49.2592 123.203 49.4933 123.404C49.7274 123.604 50.0091 123.742 50.3115 123.802C50.6139 123.862 50.9267 123.844 51.2199 123.748C51.5131 123.653 51.7768 123.484 51.9858 123.257L56.1936 118.747C56.6999 118.805 57.2114 118.853 57.7228 118.9L60.9708 124.148C61.1333 124.409 61.3594 124.624 61.6278 124.773C61.8963 124.922 62.1982 125 62.5052 125C62.8122 125 63.1142 124.922 63.3826 124.773C63.6511 124.624 63.8772 124.409 64.0396 124.148L67.2876 118.9C67.7991 118.853 68.3105 118.805 68.8168 118.747L73.0195 123.257C73.2305 123.479 73.4945 123.645 73.7867 123.737C74.0789 123.83 74.3899 123.847 74.6906 123.787C74.9912 123.727 75.2718 123.592 75.506 123.394C75.7402 123.196 75.9205 122.942 76.0299 122.656L78.1867 116.89C78.685 116.748 79.1808 116.597 79.6737 116.437L84.667 120.034C84.9165 120.216 85.2086 120.331 85.5153 120.367C85.8219 120.403 86.1327 120.36 86.4178 120.241C86.7029 120.123 86.9526 119.932 87.1428 119.689C87.3331 119.446 87.4575 119.158 87.5041 118.852L88.4952 112.776C88.9536 112.539 89.4072 112.291 89.8609 112.043L95.4662 114.596C95.7459 114.723 96.0531 114.776 96.359 114.751C96.6649 114.725 96.9593 114.623 97.2146 114.452C97.4699 114.282 97.6776 114.049 97.8182 113.776C97.9588 113.504 98.0277 113.199 98.0183 112.893L97.8022 106.721C98.2028 106.406 98.5964 106.083 98.9829 105.751L104.989 107.164C105.288 107.234 105.599 107.226 105.895 107.142C106.19 107.058 106.459 106.9 106.676 106.683C106.893 106.466 107.052 106.198 107.137 105.903C107.222 105.608 107.23 105.296 107.161 104.997L105.748 98.9832C106.075 98.593 106.402 98.1975 106.718 97.7963L112.888 98.0126C113.196 98.0273 113.504 97.9619 113.78 97.8229C114.056 97.6838 114.291 97.4757 114.463 97.2189C114.635 96.962 114.737 96.665 114.761 96.3568C114.784 96.0485 114.727 95.7395 114.596 95.4596L112.044 89.8536C112.291 89.3993 112.539 88.946 112.777 88.487L118.851 87.5007C119.153 87.4493 119.438 87.3219 119.678 87.1306C119.918 86.9393 120.105 86.6902 120.223 86.4067C120.34 86.1232 120.384 85.8145 120.35 85.5095C120.315 85.2046 120.204 84.9132 120.027 84.6628L116.431 79.6679L116.884 78.1805L122.648 76.0235C122.936 75.9164 123.193 75.7373 123.393 75.503C123.592 75.2688 123.729 74.9873 123.789 74.6854C123.849 74.3835 123.831 74.0711 123.737 73.7781C123.642 73.4852 123.474 73.2212 123.249 73.0116L118.741 68.8023C118.793 68.2959 118.846 67.7843 118.888 67.2727L124.134 64.0237C124.399 63.864 124.617 63.6388 124.769 63.3699C124.92 63.101 125 62.7975 125 62.4888C125 62.1801 124.92 61.8765 124.769 61.6076C124.617 61.3387 124.399 61.1136 124.134 60.9539L124.14 60.9544ZM89.0281 104.485C88.0685 104.274 87.2315 103.692 86.6998 102.866C86.1681 102.039 85.985 101.036 86.1905 100.075C86.396 99.1139 86.9733 98.2733 87.7964 97.7369C88.6195 97.2004 89.6215 97.0116 90.5833 97.2118C91.0674 97.3075 91.5277 97.4986 91.9372 97.774C92.3468 98.0494 92.6974 98.4036 92.9687 98.816C93.2401 99.2283 93.4266 99.6906 93.5175 100.176C93.6085 100.661 93.602 101.159 93.4984 101.642C93.3948 102.125 93.1962 102.582 92.9142 102.987C92.6322 103.392 92.2724 103.737 91.8558 104.002C91.4392 104.266 90.9741 104.445 90.4876 104.528C90.0012 104.611 89.5031 104.597 89.0223 104.485H89.0281ZM87.2457 92.4279C86.8108 92.3343 86.3618 92.3274 85.9242 92.4077C85.4867 92.488 85.0693 92.654 84.696 92.896C84.3227 93.138 84.0008 93.4513 83.7488 93.818C83.4968 94.1847 83.3196 94.5976 83.2274 95.0329L81.3665 103.726C75.619 106.336 69.2387 107.787 62.5156 107.787C55.8677 107.797 49.2985 106.349 43.27 103.546L41.4085 94.8537C41.3164 94.4186 41.1392 94.0059 40.8872 93.6395C40.6351 93.273 40.3132 92.96 39.9398 92.7184C39.5665 92.4769 39.1491 92.3115 38.7116 92.2317C38.2742 92.152 37.8253 92.1595 37.3907 92.2539L29.7187 93.8992C28.2932 92.4308 26.9684 90.8677 25.7536 89.2206H63.0854C63.5073 89.2206 63.7917 89.1471 63.7917 88.7621V75.5494C63.7917 75.1638 63.5125 75.0904 63.0854 75.0904H52.1655V66.7142H63.9766C65.0521 66.7142 69.7397 67.02 71.2371 73.0121C71.7064 74.8528 72.7346 80.8501 73.4413 82.77C74.1424 84.9218 77.0003 89.2206 80.0482 89.2206H98.6506C98.8772 89.2175 99.103 89.1946 99.3256 89.1523C98.0358 90.9051 96.6226 92.5637 95.0969 94.1154L87.2457 92.4279ZM35.6084 104.306C35.1277 104.417 34.6296 104.432 34.1431 104.349C33.6566 104.266 33.1915 104.087 32.7749 103.822C32.3583 103.558 31.9985 103.213 31.7165 102.808C31.4345 102.403 31.2359 101.945 31.1324 101.463C31.0288 100.98 31.0223 100.482 31.1132 99.9965C31.2041 99.5113 31.3907 99.0491 31.662 98.6367C31.9333 98.2244 32.284 97.8702 32.6935 97.5948C33.1031 97.3194 33.5633 97.1283 34.0474 97.0326C35.0047 96.8434 35.9979 97.0381 36.8129 97.5747C37.6279 98.1113 38.1995 98.9469 38.4043 99.9012C38.6091 100.855 38.4308 101.852 37.9077 102.676C37.3847 103.5 36.5589 104.085 35.6084 104.306ZM21.4457 46.8555C21.6605 47.304 21.7832 47.7911 21.8065 48.2879C21.8298 48.7847 21.7532 49.2811 21.5813 49.7478C21.4094 50.2144 21.1457 50.6419 20.8057 51.0048C20.4657 51.3677 20.0565 51.6587 19.6021 51.8605C19.1477 52.0624 18.6574 52.171 18.1603 52.18C17.6632 52.1889 17.1693 52.098 16.708 51.9127C16.2466 51.7273 15.8271 51.4513 15.4743 51.1009C15.1214 50.7505 14.8425 50.3328 14.6539 49.8726C14.2881 48.9775 14.2853 47.9751 14.6461 47.078C15.0069 46.1809 15.7028 45.4596 16.5863 45.0672C17.4698 44.6748 18.4713 44.6421 19.3785 44.9761C20.2857 45.31 21.0272 45.9843 21.4457 46.856V46.8555ZM17.0956 57.1782L25.089 53.6228C25.4956 53.4422 25.8626 53.1832 26.1691 52.8606C26.4756 52.538 26.7155 52.1582 26.8751 51.7428C27.0348 51.3274 27.111 50.8845 27.0994 50.4397C27.0878 49.9948 26.9887 49.5565 26.8077 49.15L25.1629 45.4264H31.638V74.6157H18.5769C16.9663 68.9507 16.4651 63.0277 17.1008 57.1724L17.0956 57.1782ZM52.1707 54.3455V45.7426H67.5881C68.385 45.7426 73.209 46.6658 73.209 50.2738C73.209 53.2696 69.5074 54.3455 66.4652 54.3455H52.1707ZM108.2 62.0887C108.2 63.2281 108.158 64.3618 108.073 65.4804H103.386C102.917 65.4804 102.727 65.7857 102.727 66.2499V68.4017C102.727 73.4711 99.8689 74.5735 97.3641 74.8528C94.9808 75.1222 92.339 73.8561 92.0125 72.3952C90.6041 64.4832 88.2635 62.7899 84.5618 59.8733C89.1541 56.9562 93.9318 52.6522 93.9318 46.8925C93.9318 40.6737 89.6661 36.7547 86.7603 34.8296C82.6847 32.1396 78.1711 31.602 76.9529 31.602H28.4796C35.1788 24.1087 44.1624 19.036 54.0374 17.1706L59.7531 23.1674C60.0593 23.4897 60.4261 23.7483 60.8325 23.9284C61.2389 24.1084 61.6769 24.2065 62.1212 24.2168C62.5656 24.2271 63.0076 24.1495 63.4219 23.9885C63.8362 23.8274 64.2146 23.5861 64.5355 23.2784L70.9262 17.1602C77.4424 18.3827 83.6147 21.0086 89.0149 24.8557C94.4152 28.7029 98.9141 33.6792 102.2 39.4395L97.823 49.3292C97.4603 50.1506 97.4375 51.0823 97.7596 51.9204C98.0817 52.7586 98.7225 53.4351 99.5418 53.802L107.968 57.547C108.115 59.0449 108.189 60.5532 108.189 62.0887H108.2ZM59.7583 12.0757C60.4708 11.3958 61.4241 11.027 62.4085 11.0502C62.8959 11.0617 63.3763 11.1692 63.8222 11.3664C64.2681 11.5636 64.6708 11.8468 65.0073 12.1997C65.3439 12.5526 65.6076 12.9683 65.7835 13.4232C65.9594 13.8781 66.044 14.3631 66.0325 14.8507C66.021 15.3383 65.9136 15.8188 65.7164 16.2649C65.5192 16.7109 65.2362 17.1138 64.8834 17.4504C64.1613 18.074 63.2272 18.396 62.2743 18.3498C61.3215 18.3036 60.4229 17.8927 59.7645 17.2022C59.1061 16.5117 58.7382 15.5944 58.7371 14.6402C58.7359 13.6859 59.1015 12.7678 59.7583 12.0757V12.0757ZM103.191 47.0352C103.387 46.5892 103.67 46.1864 104.023 45.8499C104.375 45.5134 104.791 45.2499 105.245 45.0744C105.7 44.8989 106.185 44.815 106.672 44.8273C107.159 44.8397 107.639 44.9482 108.084 45.1466C108.757 45.4436 109.327 45.9337 109.721 46.5547C110.115 47.1758 110.317 47.8999 110.3 48.6354C110.282 49.371 110.047 50.0849 109.625 50.6868C109.202 51.2888 108.61 51.7516 107.923 52.0169C107.237 52.2821 106.488 52.3378 105.77 52.1769C105.053 52.016 104.399 51.6457 103.892 51.1129C103.384 50.5801 103.046 49.9088 102.921 49.1838C102.795 48.4589 102.887 47.713 103.186 47.0404L103.191 47.0352Z" fill="currentColor"/>
</svg>
