<svg width="125" height="125" viewBox="0 0 125 125" fill="none" xmlns="http://www.w3.org/2000/svg">
<path fill-rule="evenodd" clip-rule="evenodd" d="M125 62.4781C125 27.9749 97.0251 0.0219068 62.5219 0H62.4781C27.9749 0 0 27.9749 0 62.5C0 97.0251 27.9749 125 62.5 125C97.0032 125 124.978 97.0251 125 62.5219V62.4781ZM63.0476 18.2048C80.4854 12.0271 98.8871 15.6637 101.713 26.7704L101.669 26.7923C104.473 37.7238 94.9877 50.7802 82.8513 55.4683C72.0075 59.6524 63.0476 58.9952 59.3673 57.7904C55.1831 56.4102 52.7295 53.65 52.138 52.0946C51.897 51.4812 51.5027 50.4516 52.138 50.1011C52.5323 49.882 52.6857 49.9258 53.7372 51.0869C54.723 52.1822 58.7539 55.1396 66.3774 54.2853C86.4002 52.0508 98.4708 36.4751 94.659 28.1067C91.9864 22.2357 76.5422 19.585 57.2642 29.202C33.7144 40.9441 32.4438 50.6049 32.2467 54.2853C31.8678 61.2719 37.9789 65.9729 44.1173 70.6948C46.8518 72.7983 49.5917 74.9059 51.7656 77.2217C51.8423 77.3093 51.9244 77.3969 52.0066 77.4846C52.0887 77.5722 52.1709 77.6598 52.2476 77.7474C54.3725 76.9588 57.3299 76.5207 62.018 76.433C73.4095 76.2359 79.8501 83.728 79.5872 90.4534C79.39 95.7548 74.5267 97.9236 73.6286 98.0769C72.9933 98.1864 72.6208 98.1864 72.5332 97.6826C72.4675 97.3321 72.7085 97.1787 73.4752 96.6968C74.2419 96.2367 76.5422 94.6595 76.9584 91.7897C77.3746 88.9199 75.2278 82.0631 64.2525 80.7925C60.3531 80.3324 57.308 80.6391 54.6792 81.3401C56.5851 85.5243 56.9575 93.9584 52.5762 100.487C48.0415 107.256 39.6074 111.352 31.3923 109.074C28.7416 108.329 24.7327 102.853 28.1939 95.2071C31.4799 87.956 45.4784 80.8801 47.3843 79.9381V79.8943C45.7566 78.4921 43.5436 76.9684 41.1064 75.2903C33.8344 70.2832 24.5661 63.9016 22.8925 55.2711C22.2572 52.007 23.7907 44.2082 33.3858 35.2264C41.4475 27.6686 52.6857 21.8852 63.0476 18.2048ZM50.0788 83.3337C50.9989 86.7073 50.8893 89.84 49.9473 92.6659C49.9247 92.7293 49.9021 92.7936 49.8793 92.8584C49.7916 93.1075 49.7011 93.3646 49.5968 93.6079L49.2025 94.528C48.4796 96.0396 47.5157 97.4416 46.3108 98.7341C42.6743 102.699 37.6138 104.189 35.4232 102.94C33.0791 101.582 34.2402 95.9958 38.4682 91.5487C43.0029 86.7511 49.5092 83.6842 49.5092 83.6842V83.6623C49.6078 83.6075 49.7009 83.5582 49.794 83.5089C49.8871 83.4596 49.9802 83.4103 50.0788 83.3556V83.3337Z" fill="currentColor"/>
</svg>
