<svg width="125" height="125" viewBox="0 0 125 125" fill="none" xmlns="http://www.w3.org/2000/svg">
<path d="M62.6375 0L8.30573 31.2094V93.7906L62.6375 125L116.694 93.7906V31.2094L62.6375 0ZM62.4948 18.1479L101.191 40.1615V84.8391L62.4948 106.853L24.226 85.0729L23.8089 40.1615L62.4948 18.1479ZM62.7495 21.2198C57.6635 24.1505 52.5833 27.0917 47.501 30.0292V31.3516L61.0812 39.2859V41.7984C61.787 41.3917 62.4437 41.0115 63.1766 40.588L64.5094 41.3714V39.6219C69.1156 36.9823 73.9224 34.199 77.8865 31.9109C77.9047 31.2693 77.9005 30.5911 77.9068 29.9682C72.8531 27.0536 67.801 24.1365 62.7495 21.2198ZM43.4115 31.9724C38.3568 34.8526 33.3531 37.8203 28.3458 40.7818V58.5021C33.3719 61.3943 38.3911 64.2974 43.4115 67.1995L45.5068 65.9891V50.8016C49.9656 48.226 54.6328 45.5276 58.4766 43.3042V40.7818L43.4115 31.9724ZM82.1786 32.4302L67.113 41.1276V42.8875L80.8458 50.9135V66.8844C81.2906 67.1417 81.7339 67.4005 82.1786 67.6573L97.2443 58.9599V41.2396L82.1786 32.4302ZM63.1766 43.5995C58.1578 46.5078 53.1344 49.4073 48.1109 52.3073V70.1396C53.137 73.0318 58.1562 75.9349 63.1766 78.837L78.2422 70.1292V52.4089L63.1766 43.5995ZM30.899 62.9885C30.0516 63.4896 29.1932 63.9724 28.3458 64.474V82.1943C33.3682 85.0958 38.3896 87.999 43.4115 90.9021L45.5068 89.6917V74.4938C46.3531 74.0047 47.1141 73.563 47.9687 73.0698C47.1203 72.5776 46.3818 72.1516 45.5068 71.6458V69L43.4115 70.2109C39.1141 67.726 34.6083 65.1276 30.899 62.9885ZM94.6911 63.4359L82.1792 70.6688C81.7208 70.4036 81.3083 70.1625 80.8464 69.8958V71.6354L78.2828 73.1208L80.8464 74.6161V90.587C81.2911 90.8443 81.7344 91.1031 82.1792 91.3599L97.2448 82.6521V64.9318L94.6911 63.4359ZM50.5828 74.575C49.7594 75.0505 48.9344 75.5234 48.1109 75.999V93.8313C53.1302 96.7349 58.1536 99.6312 63.1766 102.529L78.2422 93.8313V76.1109L75.6891 74.6156L63.1771 81.8484C58.8505 79.3464 54.3161 76.7292 50.5828 74.575Z" fill="currentColor"/>
</svg>
