<svg width="125" height="125" viewBox="0 0 125 125" fill="none" xmlns="http://www.w3.org/2000/svg">
<path d="M62.5 0C28.125 0 0 28.125 0 62.5C0 96.875 28.125 125 62.5 125C96.875 125 125 96.875 125 62.5C125 28.125 97.1875 0 62.5 0ZM91.2552 90.3125C90.0052 92.1823 87.8177 92.8125 85.9375 91.5625C71.25 82.5 52.8125 80.6198 30.9323 85.6198C28.7552 86.2552 26.875 84.6875 26.25 82.8125C25.625 80.6198 27.1875 78.75 29.0625 78.125C52.8125 72.8073 73.4375 75 89.6875 85C91.875 85.9375 92.1823 88.4323 91.2552 90.3125ZM98.7552 73.125C97.1875 75.3125 94.375 76.25 92.1823 74.6875C75.3125 64.375 49.6875 61.25 30 67.5C27.5052 68.125 24.6875 66.875 24.0625 64.375C23.4375 61.875 24.6875 59.0573 27.1875 58.4323C50 51.5625 78.125 55.0052 97.5 66.875C99.3802 67.8177 100.313 70.9375 98.7552 73.125ZM99.3802 55.625C79.375 43.75 45.9375 42.5 26.875 48.4427C23.75 49.375 20.625 47.5 19.6875 44.6875C18.75 41.5573 20.625 38.4375 23.4375 37.4948C45.625 30.9323 82.1875 32.1823 105.318 45.9375C108.125 47.5 109.063 51.25 107.5 54.0625C105.943 56.2552 102.187 57.1823 99.3802 55.625Z" fill="currentColor"/>
</svg>
