<svg width="125" height="125" viewBox="0 0 125 125" fill="none" xmlns="http://www.w3.org/2000/svg">
<path d="M113.679 6.50786C111.918 10.7109 109.689 14.6948 107.006 18.3555C95.2395 6.5992 79.2934 -0.00249286 62.6688 7.06138e-07C28.2921 7.06138e-07 0 28.3155 0 62.7373C0 79.9091 7.03266 96.3456 19.4674 108.193L21.7804 110.243C33.0819 119.767 47.3793 124.994 62.1531 125C94.8419 125 122.321 99.3909 124.65 66.7421C126.359 50.7593 121.67 30.5473 113.679 6.51308V6.50786ZM28.3755 108.553C27.3649 109.805 25.8229 110.535 24.208 110.535C22.788 110.528 21.4283 109.959 20.4252 108.953C19.422 107.947 18.8568 106.585 18.8527 105.164C18.8527 102.222 21.2751 99.7925 24.208 99.7925C25.2211 99.7956 26.2127 100.085 27.0686 100.628C27.9244 101.171 28.6096 101.945 29.0452 102.86C29.4808 103.776 29.649 104.796 29.5305 105.803C29.412 106.811 29.0116 107.764 28.3755 108.553V108.553ZM113.419 89.7699C97.9519 110.389 64.9192 103.443 43.7431 104.433C43.7431 104.433 39.982 104.663 36.2052 105.278C36.2052 105.278 37.6221 104.679 39.461 103.975C54.3234 98.8017 61.356 97.7953 70.3891 93.1542C87.4029 84.4979 104.219 65.5532 107.719 45.8471C101.239 64.8075 81.6101 81.098 63.7159 87.7206C51.4582 92.2417 29.3184 96.6376 29.3184 96.6376L28.4224 96.1683C13.3464 88.8261 12.8932 56.1616 40.2893 45.6176C52.2865 40.9975 63.768 43.5318 76.7237 40.4447C90.5598 37.1595 106.563 26.7719 113.075 13.2295C120.368 34.8911 129.146 68.8071 113.419 89.7699V89.7699Z" fill="currentColor"/>
</svg>
