<svg width="125" height="125" viewBox="0 0 125 125" fill="none" xmlns="http://www.w3.org/2000/svg">
<path fill-rule="evenodd" clip-rule="evenodd" d="M16 107.921V17.0765C16 7.64519 37.1117 0 63.1517 0C89.1917 0 110.303 7.64519 110.303 17.0765V107.921C110.303 117.355 89.1917 124.997 63.1517 124.997L63.1517 125C37.1117 125 16 117.352 16 107.921ZM25.6376 16.0929C25.6376 9.86909 42.4349 4.82511 63.1517 4.82511C83.8685 4.82511 100.663 9.86909 100.663 16.0929C100.663 16.4243 100.616 16.7524 100.522 17.0765C98.8642 22.8417 82.7657 27.3607 63.1517 27.3607C62.9358 27.3607 62.7203 27.3602 62.5052 27.3591C43.1849 27.2611 27.4187 22.7782 25.7784 17.0765C25.6852 16.7524 25.6376 16.4243 25.6376 16.0929ZM45.1041 86.6935C47.1519 85.1438 48.1758 82.9577 48.1758 80.1351C48.1758 78.1175 47.5846 76.4294 46.4072 75.071C45.2223 73.715 43.2425 72.3817 40.4601 71.066C38.5935 70.1805 37.3583 69.4358 36.757 68.8345C36.1532 68.2333 35.8539 67.461 35.8539 66.5201C35.8438 66.091 35.9408 65.6661 36.1363 65.2839C36.3318 64.9018 36.6195 64.5744 36.9734 64.3315C37.7205 63.7855 38.7369 63.5139 40.0224 63.5139C42.5809 63.5139 44.8651 64.2057 46.8701 65.5893V59.3856C44.9582 58.6259 42.5532 58.2435 39.6476 58.2435C36.3696 58.2435 33.7407 59.051 31.7634 60.6611C29.7835 62.2736 28.7948 64.4145 28.7948 67.0836C28.7948 70.7616 31.064 73.6697 35.6023 75.798C37.8287 76.8496 39.3054 77.7074 40.0325 78.3716C40.7595 79.0357 41.1218 79.8181 41.1218 80.7162C41.1218 81.6319 40.7444 82.364 39.9897 82.9174C39.235 83.4709 38.1658 83.7476 36.7822 83.7476C33.9193 83.7476 31.298 82.7363 28.9181 80.7162V87.3576C30.981 88.4645 33.547 89.018 36.6187 89.018C40.2287 89.018 43.0563 88.2432 45.1041 86.6935ZM80.1931 73.4131C80.1931 76.9125 79.3956 79.9514 77.8057 82.5225C76.2132 85.096 73.9743 86.8998 71.0837 87.9388L79.7151 95.9286H71.0007L64.8372 89.018C62.1958 88.9224 59.8109 88.223 57.6876 86.9224C55.5644 85.6243 53.9241 83.8407 52.7694 81.5791C51.6147 79.3175 51.0361 76.7942 51.0361 74.0144C51.0361 70.9301 51.6625 68.1805 52.9128 65.7654C54.1656 63.3503 55.9241 61.4937 58.1933 60.1931C60.4624 58.895 63.0612 58.2435 65.997 58.2435C68.7341 58.2435 71.1869 58.8724 73.3529 60.1328C75.5164 61.3906 77.1969 63.1818 78.3943 65.5063C79.5943 67.8308 80.1931 70.4672 80.1931 73.4131ZM71.1667 66.6384C72.4824 68.3893 73.139 70.7716 73.139 73.788C73.139 76.7188 72.4598 79.0257 71.1013 80.7036C69.7454 82.3841 67.9139 83.2243 65.602 83.2243C63.3329 83.2243 61.5165 82.3564 60.1455 80.6206C58.7769 78.8848 58.0927 76.5653 58.0927 73.6597C58.0927 70.7415 58.792 68.4044 60.1882 66.6459C61.587 64.8899 63.4461 64.012 65.7706 64.012C68.0548 64.012 69.851 64.8874 71.1667 66.6384ZM85.1112 88.4998H102.832V83.0633H91.8131V58.7441H85.1112V88.4998Z" fill="currentColor"/>
</svg>
