<svg width="125" height="125" viewBox="0 0 125 125" fill="none" xmlns="http://www.w3.org/2000/svg">
<path d="M112.906 2.71354C107.531 -2.07813 101.031 -0.151047 94.6094 5.54687C93.6194 6.43351 92.6688 7.36323 91.7604 8.33333C80.7761 19.9844 70.5833 41.5625 67.4167 58.0417C68.6511 60.5417 69.6146 63.7344 70.25 66.1719C70.5685 67.3842 70.8533 68.6052 71.1042 69.8333C71.1042 69.8333 71.0052 69.4635 70.6042 68.2917L70.3438 67.5312C70.29 67.3909 70.2327 67.252 70.1719 67.1146C69.4531 65.4479 67.474 61.9323 66.599 60.401C65.8542 62.6042 65.1927 64.6615 64.6406 66.526C67.1615 71.1302 68.6927 79.026 68.6927 79.026C68.6927 79.026 68.5625 78.5104 67.9271 76.724C67.3698 75.1458 64.5729 70.2448 63.9063 69.099C62.7761 73.2865 62.3229 76.1094 62.7292 76.7969C63.5208 78.1302 64.2708 80.4323 64.9271 82.974C66.4167 88.7031 67.4531 95.6823 67.4531 95.6823L67.5417 96.8489C67.346 101.621 67.4434 106.401 67.8333 111.161C68.3281 117.13 69.2552 122.255 70.4375 125L71.2448 124.562C69.5052 119.156 68.7969 112.068 69.1094 103.901C69.5781 91.4115 72.4531 76.349 77.7604 60.651C86.7344 36.9531 99.1823 17.9375 110.573 8.85416C100.193 18.2292 86.1354 48.5937 81.9271 59.8333C77.2188 72.4167 73.8802 84.2292 71.8698 95.5469C75.3386 84.9375 86.5625 80.3802 86.5625 80.3802C86.5625 80.3802 92.0677 73.5885 98.5 63.8906C94.6458 64.7708 88.3177 66.276 86.1979 67.1667C83.0729 68.474 82.2292 68.9219 82.2292 68.9219C82.2292 68.9219 92.3594 62.7552 101.047 59.9635C112.995 41.1458 126.016 14.4115 112.906 2.71354ZM16.1719 5.54166C13.6392 5.55127 11.213 6.562 9.42264 8.35338C7.63223 10.1448 6.62283 12.5715 6.61459 15.1042V101.604C6.62284 104.136 7.63258 106.562 9.42328 108.351C11.214 110.141 13.6401 111.149 16.1719 111.156H65.224C64.8563 106.466 64.7659 101.758 64.9531 97.0573C64.9219 96.7344 64.8958 96.3229 64.8698 96.0156C64.2344 91.8524 63.4124 87.7197 62.4063 83.6302C61.7761 81.1823 60.974 78.9531 60.4844 78.125C59.8802 77.099 59.974 76.5104 59.9792 75.875C59.9792 75.25 60.0573 74.599 60.1719 73.8646C60.4804 72.0298 60.8873 70.213 61.3906 68.4219L62.5208 68.276C62.4323 68.0937 62.4479 67.9375 62.3594 67.7708L62.1458 65.7865C62.7694 63.701 63.4327 61.6278 64.1354 59.5677L65.1771 59.4687C65.1354 59.3854 65.125 59.2708 65.0833 59.1927L64.8594 57.5469C68.1406 40.4635 78.3333 18.7812 89.8594 6.55208C90.2031 6.1927 90.5521 5.88541 90.8906 5.54166H16.1719Z" fill="currentColor"/>
</svg>
