<svg width="125" height="125" viewBox="0 0 125 125" fill="none" xmlns="http://www.w3.org/2000/svg">
<path d="M62.5 25.9531C78.1458 25.9531 94.9167 29.1406 108.26 37.6146C116.932 43.1563 125 51.5625 125 62.5104C125 75.3021 114.078 84.6042 103.615 90.0469C91.1615 96.4948 76.4479 99.0469 62.5 99.0469C46.8594 99.0469 30.1198 95.8958 16.7708 87.3906C8.10417 81.8437 0 73.4427 0 62.5156C0 49.6667 10.8958 40.401 21.3854 34.9479C33.875 28.5104 48.5573 25.9531 62.5 25.9531ZM62.3698 29.8385C47.8229 29.8385 32.151 32.5625 19.5313 40.1667C11.5938 44.9167 3.75 52.3906 3.75 62.3177C3.75 73.9792 14.375 82.1406 23.875 86.8281C35.6354 92.5677 49.3802 94.7969 62.3698 94.7969C76.9427 94.7969 92.625 92.0729 105.245 84.4687C113.146 79.6875 121.021 72.25 121.021 62.3177C121.021 50.6354 110.422 42.4583 100.896 37.8125C89.1354 32.0625 75.3854 29.8385 62.3698 29.8385ZM7.47396 54.2448L31.4167 50.1615L38.625 34.5208L45.8021 50.1563L69.7396 54.2396L45.8021 58.3646L38.625 74.0417L31.4167 58.3646L7.47396 54.2448ZM60.1094 66.1667L70.6719 64.3125L73.8229 57.2344L76.9792 64.3125L87.5417 66.1667L76.9792 67.9896L73.8229 75.0729L70.6719 67.9896L60.1094 66.1667ZM81.9635 47.3073L92.526 45.4844L95.6771 38.375L98.8333 45.4792L109.396 47.3021L98.8333 49.1615L95.6771 56.2448L92.5208 49.1615L81.9635 47.3073ZM70.6771 80.7812L81.1979 78.9583L84.3594 71.849L87.5469 78.9583L98.1042 80.7812L87.5469 82.6406L84.3594 89.724L81.2031 82.6406L70.6771 80.7812ZM38.2292 83.3385L48.7917 81.5156L51.9792 74.401L55.1302 81.5156L65.6927 83.3385L55.1302 85.1979L51.9792 92.276L48.7917 85.1979L38.2292 83.3385ZM91.3333 65.875L101.865 64.0156L105.016 56.9375L108.203 64.0156L118.766 65.875L108.203 67.6979L105.016 74.7656L101.859 67.6979L91.3333 65.875Z" fill="currentColor"/>
</svg>
