<svg width="125" height="125" viewBox="0 0 125 125" fill="none" xmlns="http://www.w3.org/2000/svg">
<path d="M62.5 0C54.7031 0 48.1823 5.02604 45.5833 11.3021C44.6575 13.6463 44.2351 16.159 44.3438 18.6771C42.642 16.8198 40.5696 15.34 38.2604 14.3333C35.8448 13.3501 33.2466 12.8955 30.6406 13C26.0066 13.1449 21.6004 15.0437 18.3125 18.3125C12.7917 23.8229 11.7344 31.9844 14.3333 38.2604C15.2656 40.5104 16.7813 42.5313 18.6042 44.2708C16.1058 44.2017 13.62 44.6485 11.3021 45.5833C5.02604 48.1823 0 54.6979 0 62.5C0 70.2969 5.02604 76.8177 11.3021 79.4167C13.5781 80.3594 16.1146 80.7188 18.6667 80.6458C16.8073 82.4063 15.2813 84.4583 14.3333 86.7396C11.7344 93.0156 12.7969 101.177 18.3125 106.687C23.8229 112.208 31.9844 113.266 38.2604 110.667C40.5365 109.724 42.5833 108.188 44.3438 106.333C44.2708 108.885 44.6406 111.422 45.5833 113.698C48.1823 119.974 54.6979 125 62.5 125C70.2969 125 76.8177 119.974 79.4167 113.698C80.3425 111.354 80.7649 108.841 80.6563 106.323C82.4167 108.177 84.4583 109.724 86.7396 110.667C93.0156 113.266 101.177 112.203 106.687 106.687C112.208 101.177 113.266 93.0156 110.667 86.7396C109.66 84.4304 108.18 82.358 106.323 80.6563C108.841 80.7649 111.354 80.3425 113.698 79.4167C119.974 76.8177 125 70.3021 125 62.5C125 54.7031 119.974 48.1823 113.698 45.5833C111.356 44.6632 108.847 44.2445 106.333 44.3542C108.193 42.5938 109.719 40.5417 110.667 38.2604C113.266 31.9844 112.203 23.8229 106.687 18.3125C103.4 15.0437 98.9934 13.1449 94.3594 13C91.7534 12.8955 89.1552 13.3501 86.7396 14.3333C84.4635 15.276 82.4167 16.8073 80.6563 18.6667C80.7634 16.1521 80.3411 13.643 79.4167 11.3021C76.8177 5.02604 70.3021 0 62.5 0ZM62.2865 8.40104C64.2634 8.35777 66.2081 8.90716 67.8702 9.97849C69.5323 11.0498 70.8357 12.5941 71.6127 14.4125C72.3897 16.2309 72.6047 18.2402 72.2301 20.1818C71.8554 22.1235 70.9082 23.9085 69.5104 25.3073V45.5833L83.8438 31.25C83.8438 29.2907 84.4247 27.3755 85.5133 25.7464C86.6018 24.1173 88.1489 22.8476 89.959 22.0978C91.7692 21.348 93.761 21.1519 95.6826 21.5341C97.6042 21.9163 99.3694 22.8598 100.755 24.2452C102.14 25.6306 103.084 27.3958 103.466 29.3174C103.848 31.239 103.652 33.2308 102.902 35.041C102.152 36.8511 100.883 38.3982 99.2536 39.4867C97.6245 40.5753 95.7093 41.1563 93.75 41.1563L79.4167 55.4896H99.6927C101.079 54.1058 102.844 53.1639 104.765 52.7829C106.686 52.402 108.677 52.5991 110.486 53.3493C112.296 54.0996 113.842 55.3693 114.93 56.998C116.018 58.6268 116.598 60.5414 116.598 62.5C116.598 64.4586 116.018 66.3732 114.93 68.002C113.842 69.6307 112.296 70.9004 110.486 71.6507C108.677 72.4009 106.686 72.598 104.765 72.2171C102.844 71.8361 101.079 70.8942 99.6927 69.5104H79.4167L93.75 83.8438C95.7093 83.8438 97.6245 84.4247 99.2536 85.5133C100.883 86.6018 102.152 88.1489 102.902 89.959C103.652 91.7692 103.848 93.761 103.466 95.6826C103.084 97.6042 102.14 99.3694 100.755 100.755C99.3694 102.14 97.6042 103.084 95.6826 103.466C93.761 103.848 91.7692 103.652 89.959 102.902C88.1489 102.152 86.6018 100.883 85.5133 99.2536C84.4247 97.6245 83.8438 95.7093 83.8438 93.75L69.5104 79.4167V99.6927C70.8942 101.079 71.8361 102.844 72.2171 104.765C72.598 106.686 72.4009 108.677 71.6507 110.486C70.9004 112.296 69.6307 113.842 68.002 114.93C66.3732 116.018 64.4586 116.598 62.5 116.598C60.5414 116.598 58.6268 116.018 56.998 114.93C55.3693 113.842 54.0996 112.296 53.3493 110.486C52.5991 108.677 52.402 106.686 52.7829 104.765C53.1639 102.844 54.1058 101.079 55.4896 99.6927V79.4167L41.1563 93.75C41.1563 95.7093 40.5753 97.6245 39.4867 99.2536C38.3982 100.883 36.8511 102.152 35.041 102.902C33.2308 103.652 31.239 103.848 29.3174 103.466C27.3958 103.084 25.6306 102.14 24.2452 100.755C22.8598 99.3694 21.9163 97.6042 21.5341 95.6826C21.1519 93.761 21.348 91.7692 22.0978 89.959C22.8476 88.1489 24.1173 86.6018 25.7464 85.5133C27.3755 84.4247 29.2907 83.8438 31.25 83.8438L45.5833 69.5104H25.3073C23.9212 70.8942 22.1561 71.8361 20.2349 72.2171C18.3137 72.598 16.3227 72.4009 14.5135 71.6507C12.7043 70.9004 11.1581 69.6307 10.0703 68.002C8.9825 66.3732 8.40191 64.4586 8.40191 62.5C8.40191 60.5414 8.9825 58.6268 10.0703 56.998C11.1581 55.3693 12.7043 54.0996 14.5135 53.3493C16.3227 52.5991 18.3137 52.402 20.2349 52.7829C22.1561 53.1639 23.9212 54.1058 25.3073 55.4896H45.5833L31.25 41.1563C29.2907 41.1563 27.3755 40.5753 25.7464 39.4867C24.1173 38.3982 22.8476 36.8511 22.0978 35.041C21.348 33.2308 21.1519 31.239 21.5341 29.3174C21.9163 27.3958 22.8598 25.6306 24.2452 24.2452C25.6306 22.8598 27.3958 21.9163 29.3174 21.5341C31.239 21.1519 33.2308 21.348 35.041 22.0978C36.8511 22.8476 38.3982 24.1173 39.4867 25.7464C40.5753 27.3755 41.1563 29.2907 41.1563 31.25L55.4896 45.5833V25.3073C54.1176 23.9343 53.1791 22.1884 52.7909 20.2866C52.4026 18.3848 52.5816 16.4108 53.3056 14.6099C54.0297 12.8089 55.2669 11.2604 56.8635 10.1565C58.4601 9.05271 60.3459 8.44228 62.2865 8.40104Z" fill="currentColor"/>
</svg>
