<svg width="125" height="125" viewBox="0 0 125 125" fill="none" xmlns="http://www.w3.org/2000/svg">
<path d="M62.9094 5.92292C61.3228 5.91664 59.7365 5.97189 58.1542 6.08854C50.3589 6.50209 42.7573 8.71198 35.65 11.8625C37.1094 11.8589 38.7125 11.6141 40.0198 12.4281C41.6276 13.3182 42.3615 15.1729 43.8974 16.1313C46.0781 16.9786 48.4266 16.1682 50.65 15.924C57.7651 15.0974 65.1182 16.4979 71.4833 19.7714C75.5875 21.9307 79.2943 24.7781 82.6943 27.9167C87.9286 32.5182 92.2307 38.0599 97.4151 42.7167C99.1062 44.2224 101.051 45.4547 103.164 46.2771C108.103 48.2172 113.565 48.0656 118.543 49.8797C120.111 50.4073 121.517 51.2844 122.939 52.1193C122.082 49.3224 121.17 46.5432 120.01 43.8599C114.894 31.7927 105.843 21.4677 94.5974 14.7526C85.0823 9.00573 74.0109 5.96823 62.9094 5.92292ZM25.9792 17.7089C16.8974 24.2005 9.63385 33.2104 5.20052 43.4516C1.56927 51.7188 -0.126565 60.7828 0.0208307 69.7964C0.0249973 85.3943 0.0505182 100.993 0.00833068 116.591C-0.0718777 117.44 0.442706 118.156 0.793227 118.886C6.82448 119.258 12.8859 118.957 18.9302 119.046C15.9609 117.966 12.5568 116.195 11.9833 112.753C11.0464 107.793 13.4344 102.972 15.9948 98.8797C20.1031 92.4854 25.5448 87.0912 31.1542 82.0167C37.962 76.1198 45.4948 71.1214 53.2224 66.5198C55.2938 65.1865 57.6771 64.137 59.1661 62.0906C57.812 62.2047 56.4833 62.5375 55.2516 63.1115C50.1099 65.3469 45.2339 68.1438 40.4297 71.024C35.8443 73.8625 31.2266 76.6724 26.9151 79.925C23.8995 82.0844 21.0865 84.4964 18.1672 86.7823C17.5224 81.8854 16.3531 77.0818 15.1255 72.3026C13.6193 65.9547 12.6411 59.412 13.063 52.8745C13.3755 46.1802 15.5094 39.5328 19.4911 34.113C21.0224 31.8688 23.1318 30.076 24.5828 27.7771C25.8307 25.8115 23.9536 23.7786 24.1141 21.7286C24.0849 20.1635 25.1229 18.9151 25.9792 17.7089ZM107.019 63.8016C106.147 63.788 105.271 63.8589 104.426 63.9474C97.5714 64.7859 91.0214 67.1438 84.6479 69.7036C70.3698 75.7021 56.5812 83.1177 44.3281 92.6422C39.4437 96.5479 34.6141 100.685 30.999 105.836C29.9068 107.553 28.5354 109.654 29.3115 111.754C30.3073 113.138 32.1625 113.382 33.7359 113.593C39.2359 114.082 44.75 113.188 50.1193 112.041C60.9557 109.577 71.4453 105.494 80.9703 99.7573C88.1281 95.6193 95.0495 91.0094 101.259 85.5391C104.742 82.3797 108.095 78.9755 110.495 74.8969C111.605 72.9396 112.584 70.7969 112.537 68.4979C112.55 67.2031 112.414 65.5839 111.158 64.8672C109.911 64.0787 108.473 63.824 107.019 63.8016ZM124.863 64.1953C120.754 74.5755 112.614 82.6797 104.19 89.7063C96.8464 95.6625 88.8448 100.787 80.4599 105.148C69.0797 111.5 56.8302 116.486 44.0068 119C70.2307 119.115 96.4578 119.021 122.681 119.046C123.858 119.21 125.064 118.304 124.98 117.064C125.014 102.145 124.98 87.226 124.993 72.3068C125.002 69.6031 125.031 66.8943 124.863 64.1953ZM66.2354 82.0677C68.1125 86.0792 68.3234 90.9047 66.5182 94.975C64.8474 98.9781 61.3932 102.136 57.3063 103.554C51.8349 105.44 45.4521 103.98 41.3396 99.901C48.6411 92.701 57.276 86.9948 66.2354 82.0677Z" fill="currentColor"/>
</svg>
