<svg width="125" height="125" viewBox="0 0 125 125" fill="none" xmlns="http://www.w3.org/2000/svg">
<path d="M62.5026 0C97.0156 0 125 27.9844 125 62.5026C125 97.0156 97.0156 125 62.4974 125C27.9844 125 0 97.0156 0 62.4974C0 27.9844 27.9844 0 62.5026 0ZM62.5026 103.26C67.8941 103.321 73.2441 102.311 78.2427 100.29C83.2413 98.2686 87.7892 95.2756 91.6231 91.4844C95.4569 87.6931 98.5005 83.179 100.578 78.2033C102.655 73.2276 103.724 67.8892 103.724 62.4974C103.723 57.1055 102.653 51.7673 100.576 46.7919C98.4979 41.8164 95.4537 37.3026 91.6193 33.5119C87.785 29.7211 83.2367 26.7287 78.2378 24.708C73.239 22.6872 67.8889 21.6783 62.4974 21.7396C40.1734 22.0031 22.2151 40.175 22.2151 62.5C22.2151 84.825 40.1786 102.997 62.5026 103.26ZM62.5026 82.5036C59.8675 82.5171 57.2557 82.0097 54.8173 81.0106C52.3788 80.0115 50.1619 78.5404 48.2938 76.6818C46.4257 74.8232 44.9433 72.6138 43.9318 70.1805C42.9202 67.7472 42.3995 65.138 42.3995 62.5029C42.3995 59.8677 42.9202 57.2585 43.9318 54.8252C44.9433 52.3919 46.4257 50.1825 48.2938 48.324C50.1619 46.4654 52.3788 44.9943 54.8173 43.9952C57.2557 42.996 59.8675 42.4886 62.5026 42.5021C73.5464 42.5052 82.4974 51.4589 82.4974 62.5026C82.4974 73.5464 73.5464 82.5005 62.5026 82.5036Z" fill="currentColor"/>
</svg>
