<svg width="125" height="125" viewBox="0 0 125 125" fill="none" xmlns="http://www.w3.org/2000/svg">
<path d="M82.375 33.125V50.625H83.5625C90.1085 50.7362 96.3552 53.386 100.985 58.0154C105.614 62.6448 108.264 68.8915 108.375 75.4375V91.25H125V74.9375C125 51.875 106.25 33.125 83.1875 33.125H82.8125H82.375ZM35.1875 33.1875V36.3125H40.4375V50.625H44.0625V36.3125H49.3125V33.1875H35.1875ZM50.625 33.1875V50.625H54.25V42.8125H61.0625V50.625H64.6875V33.1875H61.0625V39.8125H54.25V33.1875H50.625ZM66.25 33.1875V50.625H78.75V47.5625H69.625V43H77.6875V39.9375H69.625V36.25H78.75V33.1875H66.25ZM24.1875 52.8125C21.875 52.8125 15.8125 53.8125 15.8125 61.9375C15.8125 70.0625 21.875 71.0625 24.1875 71.0625C26.5 71.0625 32.5625 70.0625 32.5625 61.9375C32.5625 53.8125 26.5 52.8125 24.1875 52.8125ZM0 53.3125V70.6875H3.375V58.3125H3.4375L10.5625 70.6875H14.1875V53.3125H10.8125V65.375H10.75L3.8125 53.3125H0ZM34.0625 53.3125L34.125 70.6875H37.6875V63.875H41.4375C44.125 63.875 44.25 64.8125 44.25 67.1875C44.25 69 44.375 69.875 44.625 70.6875H48.625V70.25C47.875 70 47.875 69.375 47.875 66.8125C47.875 63.5625 47.125 63 45.6875 62.375C47.375 61.8125 48.375 60.1875 48.375 58.25C48.375 56.75 47.5 53.3125 42.875 53.3125H34.0625ZM49.25 53.3125V56.375H54.5625V70.6875H58.1875V56.375H63.4375V53.3125H49.25ZM64.75 53.3125V70.6875H68.375V62.875H75.125V70.6875H78.75V53.3125H75.125V59.875H68.375V53.3125H64.75ZM82.3125 53.3125V70.75H83.125C88.75 70.75 93.25 75.3125 93.25 80.875V91.25H105.688V75.6875C105.625 63.625 96 53.8125 84.0625 53.3125H82.75H82.3125ZM24.1875 55.9375C26.125 55.9375 28.875 57.125 28.875 62C28.875 66.875 26.125 68.0625 24.1875 68.0625C22.25 68.0625 19.4375 66.875 19.4375 62C19.4375 57.125 22.25 55.9375 24.1875 55.9375ZM37.625 56.3125H42.125C44.25 56.3125 44.6875 57.625 44.6875 58.5625C44.6875 60.25 43.75 60.9375 41.875 60.9375H37.625V56.3125ZM56.8125 73C52.25 73 48.625 76.1875 48.625 82.4375C48.625 88.625 52 91.8125 56.75 91.8125C61.25 91.8125 63.75 89.125 64.5 85.25H60.75C60.3125 87.4375 58.875 88.625 56.8125 88.625C53.625 88.625 52.375 85.75 52.375 82.5625C52.375 77.5 55 76.3125 56.8125 76.3125C59.875 76.3125 60.4375 78.3125 60.75 79.375V79.3125H64.5C64.3125 76.6875 62.125 73 56.8125 73ZM21.9375 73.4375V91.3125H25.625V83.8125H33.5V80.625H25.625V76.625H34.625V73.4375H21.9375ZM38.75 73.4375L32.375 91.3125H36.3125L37.5 87.625H44.1875L45.3125 91.3125H49.375L43.0625 73.4375H38.75ZM66 73.4375V91.3125H78.8125V88.125H69.4375V83.5H77.75V80.375H69.4375V76.625H78.8125V73.4375H66ZM82.375 73.5V91.375H90.6875V81C90.6875 76.875 87.3125 73.5 83.1875 73.5H82.375ZM40.8125 77.5H40.875L43.0625 84.5625H38.5L40.8125 77.5ZM15.1875 82.25C14.5508 82.2438 13.9192 82.3636 13.3291 82.6025C12.7389 82.8414 12.2018 83.1947 11.7487 83.6419C11.2956 84.0892 10.9354 84.6217 10.689 85.2088C10.4425 85.7958 10.3145 86.4258 10.3125 87.0625C10.3125 89.8125 12.5625 91.875 15.1875 91.875C15.8208 91.8798 16.4488 91.7587 17.0349 91.5186C17.621 91.2784 18.1534 90.9241 18.6013 90.4763C19.0491 90.0284 19.4034 89.496 19.6436 88.9099C19.8837 88.3238 20.0049 87.6958 20 87.0625C20.0049 86.4292 19.8837 85.8012 19.6436 85.2151C19.4034 84.629 19.0491 84.0966 18.6013 83.6487C18.1534 83.2009 17.621 82.8466 17.0349 82.6064C16.4488 82.3663 15.8208 82.2451 15.1875 82.25ZM15.1875 83C17.375 83 19.125 84.75 19.125 87.0625C19.125 89.4375 17.4375 91.1875 15.1875 91.1875C12.9375 91.1875 11.1875 89.375 11.1875 87.0625C11.1875 84.75 12.9375 83 15.1875 83ZM13.3125 84.25V89.9375H14.1875V87.5H15.125L16.6875 89.9375H17.625L16 87.4375C16.875 87.3125 17.5 86.875 17.5 85.875C17.5 84.75 16.8125 84.25 15.5 84.25H13.3125ZM14.1875 84.9375H15.375C16 84.9375 16.625 85.0625 16.625 85.8125C16.625 86.6875 15.875 86.75 15.125 86.75H14.1875V84.9375Z" fill="currentColor"/>
</svg>
