<svg width="125" height="125" viewBox="0 0 125 125" fill="none" xmlns="http://www.w3.org/2000/svg">
<path d="M5.85938 0C2.61458 0 0 2.61458 0 5.85938V119.141C0 122.385 2.61458 125 5.85938 125H119.141C122.385 125 125 122.385 125 119.141V5.85938C125 2.61458 122.385 0 119.141 0H5.85938ZM96.2917 50.7813C99.4792 50.7813 102.302 50.974 104.766 51.3594C107.089 51.7075 109.369 52.3011 111.568 53.1302V65.9323C110.512 65.2025 109.391 64.573 108.219 64.0521C107.01 63.508 105.761 63.0553 104.484 62.6979C102.066 62.0239 99.5682 61.6736 97.0573 61.6563C95.4948 61.6563 94.0729 61.8021 92.7917 62.1042C91.6497 62.3484 90.5543 62.7739 89.5469 63.3646C88.6615 63.9063 87.9844 64.5573 87.5 65.3125C87.0128 66.0737 86.7593 66.9609 86.7708 67.8646C86.7708 68.8854 87.0469 69.8073 87.5833 70.6198C88.125 71.4323 88.8958 72.2031 89.8906 72.9323C90.8854 73.6615 92.0938 74.3698 93.5156 75.0677C94.9375 75.7708 96.5469 76.4948 98.3385 77.2344C100.786 78.2604 102.984 79.3542 104.932 80.5052C106.88 81.6615 108.552 82.9687 109.948 84.4271C111.344 85.8802 112.406 87.5417 113.146 89.4115C113.885 91.2813 114.26 93.4531 114.26 95.9375C114.26 99.3594 113.609 102.24 112.318 104.563C111.056 106.853 109.245 108.795 107.047 110.214C104.678 111.716 102.053 112.768 99.3021 113.318C96.3542 113.943 93.2448 114.255 89.9792 114.255C86.7651 114.269 83.5567 113.983 80.3958 113.401C77.6611 112.928 75.0088 112.063 72.5208 110.833V97.1354C77.228 101.141 83.1993 103.355 89.3802 103.385C91.1146 103.385 92.6302 103.229 93.9219 102.917C95.2188 102.604 96.2969 102.167 97.1667 101.615C98.0313 101.052 98.6771 100.396 99.1094 99.6354C99.5872 98.7501 99.8045 97.7475 99.7363 96.7438C99.6681 95.74 99.3171 94.7761 98.724 93.9635C97.9501 92.9395 97.0036 92.0583 95.9271 91.3594C94.592 90.4744 93.1862 89.7009 91.724 89.0469C89.9909 88.2554 88.2422 87.4983 86.4792 86.776C81.6979 84.7812 78.1354 82.3385 75.7865 79.4583C73.4427 76.5781 72.2656 73.0938 72.2656 69.0156C72.2656 65.8177 72.9063 63.0729 74.1875 60.776C75.4688 58.4792 77.2083 56.5885 79.4167 55.1042C81.7524 53.5633 84.3455 52.4537 87.0729 51.8281C90.0936 51.1159 93.1882 50.7645 96.2917 50.7813ZM17.5781 51.7604H67.3854V63.0417H49.5104V113.281H35.3594V63.0417H17.5781V51.7604Z" fill="currentColor"/>
</svg>
