<svg width="125" height="125" viewBox="0 0 125 125" fill="none" xmlns="http://www.w3.org/2000/svg">
<path d="M0 62.5V125H125V0H0V62.5ZM100.73 57.5C103.724 58.1948 106.445 59.7606 108.55 62C109.709 63.2064 110.716 64.5497 111.55 66C111.55 66.16 106.15 69.81 102.86 71.85C102.74 71.93 102.26 71.41 101.73 70.62C101.129 69.5837 100.276 68.7164 99.2496 68.0991C98.2231 67.4818 97.057 67.1346 95.86 67.09C92.07 66.83 89.63 68.82 89.65 72.09C89.6187 72.9041 89.8051 73.7119 90.19 74.43C91.02 76.16 92.57 77.19 97.43 79.29C106.38 83.14 110.21 85.68 112.59 89.29C115.25 93.29 115.84 99.75 114.04 104.53C112.04 109.73 107.14 113.26 100.21 114.43C97.0448 114.793 93.8468 114.759 90.69 114.33C85.8722 113.548 81.4279 111.254 78 107.78C76.85 106.51 74.61 103.2 74.75 102.96C75.1151 102.689 75.4994 102.445 75.9 102.23L80.5 99.59L84.09 97.51L84.84 98.62C86.1057 100.431 87.7166 101.973 89.58 103.16C93.58 105.26 99.04 104.97 101.74 102.54C102.647 101.65 103.212 100.469 103.338 99.2049C103.464 97.9405 103.143 96.6719 102.43 95.62C101.43 94.23 99.43 93.06 93.84 90.62C87.39 87.84 84.61 86.12 82.07 83.38C80.4843 81.5719 79.3136 79.4386 78.64 77.13C78.1375 74.4924 78.0633 71.7912 78.42 69.13C79.75 62.9 84.42 58.55 91.24 57.26C94.3984 56.8692 97.5977 56.9569 100.73 57.52V57.5ZM71.39 62.74V67.86H55.16V114.09H43.65V67.85H27.38V62.85C27.3363 61.1287 27.3831 59.4064 27.52 57.69C27.58 57.61 37.52 57.57 49.52 57.59H71.33L71.39 62.74Z" fill="currentColor"/>
</svg>
