<svg width="125" height="125" viewBox="0 0 125 125" fill="none" xmlns="http://www.w3.org/2000/svg">
<path d="M91.7187 2.3698C87.0084 2.3698 82.491 4.24098 79.1602 7.5717C75.8295 10.9024 73.9583 15.4199 73.9583 20.1302C73.9583 24.8406 75.8295 29.358 79.1602 32.6887C82.491 36.0195 87.0084 37.8906 91.7187 37.8906C96.4291 37.8906 100.947 36.0195 104.277 32.6887C107.608 29.358 109.479 24.8406 109.479 20.1302C109.479 15.4199 107.608 10.9024 104.277 7.5717C100.947 4.24098 96.4291 2.3698 91.7187 2.3698ZM67.2917 4.16667C46.474 4.04688 26.7552 15.3177 16.3958 33.599C16.8468 33.5738 17.2984 33.5616 17.75 33.5625C22.5071 33.5675 27.169 34.8966 31.2135 37.401C35.1279 31.7474 40.3321 27.107 46.3957 23.8638C52.4592 20.6205 59.2079 18.8676 66.0833 18.75C66.3705 13.5109 68.2513 8.48447 71.474 4.34376C70.0825 4.23384 68.6875 4.17477 67.2917 4.16667ZM115.344 30.1771C113.292 35.0083 109.805 39.0921 105.354 41.875C108.907 48.5819 110.644 56.1009 110.395 63.6865C110.146 71.2721 107.918 78.6607 103.932 85.1198C108.09 88.5226 111.065 93.1531 112.432 98.349C120.045 88.7448 124.426 76.9795 124.949 64.7354C125.472 52.4913 122.11 40.3953 115.344 30.1771ZM17.7604 41.3125C13.0501 41.3125 8.53263 43.1837 5.20191 46.5144C1.87118 49.8451 0 54.3626 0 59.0729C0.00138107 63.7824 1.87317 68.2985 5.20375 71.6281C8.53432 74.9577 13.051 76.8281 17.7604 76.8281C22.4708 76.8281 26.9882 74.957 30.3189 71.6262C33.6497 68.2955 35.5208 63.7781 35.5208 59.0677C35.5208 54.3574 33.6497 49.8399 30.3189 46.5092C26.9882 43.1785 22.4708 41.3125 17.7604 41.3125ZM28.3177 82.2813C23.5659 84.4379 18.2679 85.0885 13.1354 84.1458C16.6853 92.9245 22.3371 100.697 29.5942 106.78C36.8513 112.862 45.4914 117.07 54.7552 119.031C58.9007 119.919 63.1304 120.354 67.3698 120.328C64.1092 116.055 62.2875 110.858 62.1667 105.484C60.7044 105.321 59.2512 105.085 57.8125 104.776C51.5351 103.448 45.6317 100.741 40.5302 96.8489C35.4288 92.9573 31.2572 87.9794 28.3177 82.276V82.2813ZM87.7187 87.1146C83.0084 87.1146 78.491 88.9858 75.1602 92.3165C71.8295 95.6472 69.9583 100.165 69.9583 104.875C69.9583 109.585 71.8295 114.103 75.1602 117.434C78.491 120.764 83.0084 122.635 87.7187 122.635C92.4291 122.635 96.9465 120.764 100.277 117.434C103.608 114.103 105.479 109.585 105.479 104.875C105.479 100.165 103.608 95.6472 100.277 92.3165C96.9465 88.9858 92.4291 87.1146 87.7187 87.1146Z" fill="currentColor"/>
</svg>
