<svg width="125" height="125" viewBox="0 0 125 125" fill="none" xmlns="http://www.w3.org/2000/svg">
<path d="M83.0938 62.5C82.6302 62.8437 82.0781 63.2396 81.4063 63.7135C77.1042 66.7604 70.8698 68.8437 62.7604 68.8437H62.2188C54.1146 68.8437 47.8698 66.7604 43.5729 63.7135C43.0082 63.3121 42.4457 62.9076 41.8854 62.5C42.3542 62.151 42.9063 61.7552 43.5729 61.2812C47.8698 58.2396 54.1146 56.151 62.2188 56.151H62.7604C70.8698 56.151 77.1146 58.2396 81.4063 61.2812C82.0781 61.75 82.625 62.151 83.0938 62.5ZM125 37.401C125 37.401 121.307 34.5833 109.635 30.2917C99.3854 26.5365 91.6563 25.6927 91.6563 25.6927L91.6875 47.7917C91.6875 50.9062 90.8438 53.7448 88.4688 56.9844C79.7604 53.8073 71.5208 51.8542 62.526 51.8542C53.526 51.8542 45.2969 53.8073 36.5885 56.9844C34.2083 53.7604 33.3594 50.901 33.3594 47.7917L33.3958 25.6927C33.3958 25.6927 25.6146 26.526 15.3594 30.2917C3.69271 34.5937 0 37.401 0 37.401C0.484375 47.4323 9.27083 56.349 23.099 62.5052C9.25521 68.6458 0.46875 77.5365 0 87.5937C0 87.5937 3.69271 90.4062 15.3594 94.7031C25.6094 98.4583 33.3438 99.3021 33.3438 99.3021L33.3073 77.1979C33.3073 74.0885 34.1615 71.2448 36.5313 68.0104C45.2396 71.1875 53.4688 73.1302 62.4688 73.1302C71.4635 73.1302 79.7031 71.1823 88.4063 68.0104C90.7865 71.2396 91.6354 74.0885 91.6354 77.1979L91.6042 99.3021C91.6042 99.3021 99.3333 98.4687 109.583 94.7031C121.255 90.401 124.948 87.5937 124.948 87.5937C124.464 77.5573 115.677 68.6354 101.849 62.4948C115.688 56.3385 124.469 47.4531 124.948 37.3906" fill="currentColor"/>
</svg>
