<svg width="125" height="125" viewBox="0 0 125 125" fill="none" xmlns="http://www.w3.org/2000/svg">
<path d="M120.573 13.474L94.8437 1.09376C93.3897 0.393531 91.7539 0.162745 90.1628 0.433359C88.5718 0.703973 87.1043 1.4626 85.9635 2.60417L36.6927 47.5521L15.2344 31.2604C14.2663 30.5261 13.0717 30.1538 11.8578 30.208C10.6439 30.2622 9.48731 30.7396 8.58853 31.5573L1.70311 37.8177C1.16655 38.3055 0.737757 38.8999 0.444174 39.5629C0.15059 40.226 -0.00130907 40.943 -0.00179935 41.6681C-0.00228963 42.3933 0.14864 43.1105 0.441327 43.7739C0.734013 44.4374 1.16201 45.0324 1.69791 45.5208L20.3073 62.5L1.69791 79.4792C1.16201 79.9677 0.734013 80.5627 0.441327 81.2261C0.14864 81.8895 -0.00228963 82.6068 -0.00179935 83.3319C-0.00130907 84.057 0.15059 84.774 0.444174 85.4371C0.737757 86.1001 1.16655 86.6945 1.70311 87.1823L8.59374 93.4375C9.49252 94.2552 10.6491 94.7326 11.863 94.7868C13.0769 94.841 14.2715 94.4687 15.2396 93.7344L36.6979 77.4427L85.9687 122.391C87.1083 123.532 88.5749 124.291 90.1652 124.562C91.7555 124.833 93.3906 124.602 94.8437 123.901L120.583 111.521C121.908 110.882 123.025 109.882 123.806 108.636C124.587 107.39 125.001 105.95 125 104.479V20.5156C125 19.0441 124.585 17.6024 123.801 16.3567C123.018 15.1109 121.899 14.1116 120.573 13.474ZM93.7708 90.875L56.3854 62.5L93.7708 34.125V90.875Z" fill="currentColor"/>
</svg>
