<svg width="125" height="125" viewBox="0 0 125 125" fill="none" xmlns="http://www.w3.org/2000/svg">
<path d="M91.5781 0.328125C89.5921 0.300666 87.6701 1.03071 86.2031 2.36979H86.1979C86.1082 2.44457 86.0213 2.52275 85.9375 2.60417L44.4167 48.5208L20.1823 28.6458L18.0625 26.8229C17.3314 26.2152 16.4479 25.8192 15.5077 25.6778C14.5676 25.5364 13.6067 25.655 12.7292 26.0208C12.7083 26.0294 12.6874 26.0381 12.6667 26.0469L3.20313 29.9531C3.06685 30.0099 2.93305 30.0725 2.80208 30.1406C2.71917 30.187 2.63754 30.2356 2.55729 30.2865C2.49049 30.3232 2.4245 30.3614 2.35938 30.401C2.27432 30.4576 2.19095 30.5167 2.10938 30.5781C2.0565 30.6188 2.0044 30.6605 1.95313 30.7031C1.87497 30.7634 1.79855 30.826 1.72396 30.8906C1.66007 30.9464 1.59755 31.0037 1.53646 31.0625C1.47947 31.1219 1.4239 31.1827 1.36979 31.2448C1.31085 31.3093 1.25354 31.3753 1.19792 31.4427C1.13502 31.5174 1.07423 31.5938 1.01562 31.6719C0.972734 31.73 0.931059 31.7891 0.890625 31.849C0.832505 31.9341 0.776925 32.0209 0.723958 32.1094C0.688015 32.1694 0.653286 32.2302 0.619792 32.2917C0.575725 32.3773 0.534043 32.4641 0.494792 32.5521C0.458151 32.6293 0.423418 32.7075 0.390625 32.7865C0.361063 32.8622 0.333277 32.9386 0.307292 33.0156C0.277492 33.0965 0.249706 33.1781 0.223958 33.2604C0.1952 33.3551 0.169147 33.4507 0.145833 33.5469C0.127042 33.616 0.109677 33.6854 0.09375 33.7552C0.0773043 33.8486 0.0634103 33.9423 0.0520833 34.0365C0.0394823 34.123 0.0290623 34.2098 0.0208333 34.2969C0.00790233 34.4406 0.000951884 34.5848 0 34.7292L0 90.2812C0.00605806 91.3039 0.313034 92.3021 0.882646 93.1514C1.45226 94.0007 2.2593 94.6636 3.20313 95.0573L12.6667 99.0364C13.5563 99.4066 14.5311 99.5228 15.4828 99.372C16.4345 99.2212 17.3257 98.8094 18.0573 98.1823L20.1823 96.3594L44.4167 76.4896L85.9427 122.401C86.064 122.518 86.1891 122.631 86.3177 122.74C86.4145 122.829 86.5134 122.916 86.6146 123C86.7135 123.075 86.8142 123.148 86.9167 123.219C87.0241 123.298 87.1335 123.374 87.2448 123.448C87.356 123.517 87.4689 123.583 87.5833 123.646C87.6946 123.711 87.8075 123.774 87.9219 123.833C88.0386 123.89 88.1567 123.944 88.276 123.995C88.3962 124.05 88.5178 124.102 88.6406 124.151C88.7662 124.198 88.893 124.241 89.0208 124.281C89.1346 124.319 89.2492 124.353 89.3646 124.385C89.5025 124.424 89.6414 124.459 89.7813 124.49C89.8987 124.517 90.0168 124.541 90.1354 124.562C90.2652 124.583 90.3954 124.601 90.526 124.615C90.6559 124.632 90.7861 124.646 90.9167 124.656C91.0433 124.665 91.17 124.67 91.2969 124.672C91.4305 124.675 91.5643 124.675 91.6979 124.672C91.8335 124.667 91.969 124.658 92.1042 124.646C92.2207 124.636 92.3371 124.624 92.4531 124.609C92.6049 124.588 92.756 124.562 92.9062 124.531C93.0108 124.513 93.115 124.492 93.2188 124.469C93.3587 124.434 93.4976 124.396 93.6354 124.354C93.7543 124.322 93.8724 124.288 93.9896 124.25C94.1123 124.204 94.2339 124.156 94.3542 124.104C94.5125 124.045 94.6688 123.981 94.8229 123.911L120.573 111.531C121.517 111.076 122.361 110.434 123.052 109.646C123.218 109.459 123.374 109.264 123.521 109.062C123.528 109.05 123.535 109.038 123.542 109.026C123.691 108.816 123.83 108.599 123.958 108.375C124.075 108.172 124.183 107.963 124.281 107.75C124.297 107.721 124.313 107.691 124.328 107.661C124.405 107.477 124.474 107.289 124.536 107.099C124.563 107.035 124.589 106.971 124.615 106.906C124.674 106.722 124.726 106.537 124.771 106.349C124.787 106.285 124.803 106.221 124.818 106.156C124.853 105.984 124.883 105.81 124.906 105.635C124.922 105.549 124.935 105.462 124.948 105.375C124.963 105.219 124.973 105.063 124.979 104.906C124.99 104.768 124.997 104.629 125 104.49V20.5312V20.5156C125.001 20.4601 125.001 20.4045 125 20.349C124.996 20.0878 124.978 19.8271 124.948 19.5677C124.789 18.2665 124.304 17.0263 123.54 15.9614C122.775 14.8965 121.755 14.041 120.573 13.474L94.8229 1.09375C93.8102 0.610574 92.7053 0.351219 91.5833 0.333333L91.5781 0.328125ZM93.75 36.0417V88.974L61.4688 62.5156L93.75 36.0417ZM15.625 44.6562L31.7656 62.5052L15.6198 80.349L15.625 44.6562Z" fill="currentColor"/>
</svg>
