<svg width="125" height="125" viewBox="0 0 125 125" fill="none" xmlns="http://www.w3.org/2000/svg">
<path d="M76.7969 0C76.7969 0.21875 76.7969 0.442708 76.7969 0.671875C76.7969 8.58854 70.3802 15.0052 62.4635 15.0052C54.5469 15.0052 48.1302 8.58854 48.1302 0.671875C48.1302 0.4375 48.1302 0.21875 48.1302 0H0V125H125V0H76.7969ZM59.6563 111.62L53.5677 81.5H53.4635L46.8802 111.62H38.4896L28.9896 67.3646H37.2708L42.9375 97.4844H43.0417L49.8698 67.3646H57.6146L63.7448 97.8542H63.849L70.3177 67.3646H78.4479L67.8906 111.62H59.6563ZM105.255 111.62L102.432 101.771H87.5313L85.3594 111.62H77.0781L87.7865 67.3646H100.854L113.875 111.62H105.255ZM92.7708 78.2708L89.1563 94.5104H100.401L96.2552 78.2708H92.7708Z" fill="currentColor"/>
</svg>
