<svg width="125" height="125" viewBox="0 0 125 125" fill="none" xmlns="http://www.w3.org/2000/svg">
<path d="M93.25 32.6094C89.4531 32.5365 86.3229 35.5521 86.25 39.3437V39.4375C86.3125 43.25 89.4375 46.2865 93.25 46.2344C97.3281 46.2344 100.563 43.2187 100.563 39.4375C100.568 35.625 97.3333 32.6094 93.25 32.6094ZM117.781 32.6094C113.891 32.6094 110.698 35.6302 110.698 39.4375C110.698 43.1406 113.891 46.2344 117.786 46.2344C121.781 46.2344 125 43.2187 125 39.4375C125 35.625 121.781 32.6094 117.781 32.6094ZM40.4896 35.4375C36.5938 35.4375 33.9688 37.3854 32.6042 41.7656C31.3438 46.2292 23.2604 77.2969 23.2604 77.2969L12.6563 35.9219H0C0 35.9219 12.1563 80.0052 13.8125 85.1719C15.0677 89.1562 18.1875 92.3906 22.6667 92.3906C27.9219 92.3906 30.3698 88.5781 31.4375 85.1719C32.6094 81.651 40.4896 52.5625 40.4896 52.5625C40.4896 52.5625 48.3802 81.6719 49.4427 85.1719C50.6146 88.5729 53.0365 92.3906 58.2031 92.3906C62.7813 92.3906 65.7865 89.1562 67.1615 85.1719C68.8021 80.0156 81 35.9219 81 35.9219H68.2396L57.7135 77.2969C57.7135 77.2969 49.6406 46.2292 48.276 41.7656C47.0156 37.3698 44.2656 35.4375 40.4896 35.4375ZM87.4063 52.9531V91.9896H99.5V52.9531H87.4063ZM111.849 52.9531V91.9896H123.917V52.9531H111.849Z" fill="currentColor"/>
</svg>
