<svg width="125" height="125" viewBox="0 0 125 125" fill="none" xmlns="http://www.w3.org/2000/svg">
<path d="M122.385 32.2188C121.679 29.5587 120.287 27.1309 118.347 25.1785C116.407 23.226 113.989 21.8174 111.333 21.0938C101.589 18.4635 62.5 18.4635 62.5 18.4635C62.5 18.4635 23.4115 18.4635 13.6615 21.0938C11.0073 21.8187 8.59007 23.2278 6.65145 25.1801C4.71282 27.1325 3.32079 29.5596 2.61458 32.2188C0 42.0313 0 62.5 0 62.5C0 62.5 0 82.9687 2.61458 92.7812C3.32076 95.4413 4.71341 97.8691 6.65308 99.8215C8.59275 101.774 11.0113 103.183 13.6667 103.906C23.4115 106.536 62.5 106.536 62.5 106.536C62.5 106.536 101.589 106.536 111.339 103.906C113.994 103.183 116.413 101.775 118.353 99.8221C120.292 97.8696 121.685 95.4415 122.391 92.7812C125 82.9687 125 62.5 125 62.5C125 62.5 125 42.0313 122.385 32.2188ZM49.7135 81.0833V43.9167L82.3854 62.5L49.7135 81.0833Z" fill="currentColor"/>
</svg>
