<?xml version="1.0" standalone="no"?>
<!DOCTYPE svg PUBLIC "-//W3C//DTD SVG 20010904//EN"
 "http://www.w3.org/TR/2001/REC-SVG-20010904/DTD/svg10.dtd">
<svg version="1.0" xmlns="http://www.w3.org/2000/svg"
 width="700.000000pt" height="700.000000pt" viewBox="0 0 700.000000 700.000000"
 preserveAspectRatio="xMidYMid meet">
<metadata>
Created by potrace 1.14, written by Peter Selinger 2001-2017
</metadata>
<g transform="translate(0.000000,700.000000) scale(0.100000,-0.100000)"
fill="#000000" stroke="none">
<path d="M3225 6740 c-143 -83 -267 -154 -275 -159 -8 -5 -76 -44 -150 -87
-127 -72 -290 -167 -440 -254 -94 -55 -449 -260 -490 -283 -19 -10 -91 -52
-160 -92 -69 -40 -141 -82 -160 -93 -40 -22 -183 -104 -328 -188 -110 -64
-105 -61 -430 -248 -152 -87 -242 -145 -243 -155 -4 -63 -3 -3385 1 -3390 4
-7 193 -118 379 -223 153 -87 513 -295 543 -314 21 -13 40 -24 42 -24 2 0 37
-19 78 -43 62 -37 484 -281 581 -336 18 -10 268 -155 557 -321 289 -167 541
-312 560 -323 19 -11 49 -28 65 -38 17 -11 37 -22 45 -26 8 -3 32 -17 52 -30
21 -13 42 -23 47 -23 5 0 272 151 593 336 321 186 597 345 613 354 17 9 87 50
155 90 69 40 145 84 170 98 42 24 659 379 1180 680 129 74 237 139 240 143 3
4 5 771 4 1705 l0 1698 -230 133 c-126 72 -267 154 -314 181 -306 179 -593
342 -601 342 -5 0 -9 5 -9 10 0 6 -4 10 -9 10 -8 0 -92 48 -671 382 -616 355
-699 403 -750 431 -30 16 -62 36 -71 43 -8 8 -18 14 -21 14 -4 0 -41 20 -82
45 -42 25 -79 45 -82 45 -3 0 -25 14 -49 30 -24 17 -52 30 -62 30 -10 -1 -135
-68 -278 -150z m1694 -1757 c53 -31 105 -61 116 -67 11 -6 120 -69 241 -139
l221 -129 0 -1157 0 -1157 -155 -90 c-85 -49 -174 -100 -198 -114 -24 -14
-272 -157 -551 -319 -280 -162 -640 -371 -800 -464 l-293 -169 -272 158 c-150
87 -325 188 -388 225 -63 36 -261 151 -440 254 -179 104 -342 198 -362 208
l-38 20 19 31 c52 86 143 240 159 266 42 72 177 298 198 332 l23 36 271 -156
c149 -87 292 -170 318 -185 26 -15 52 -30 59 -33 9 -4 145 70 331 181 9 6 40
23 67 38 28 15 57 32 65 37 23 16 342 200 345 200 2 0 33 18 70 41 37 22 84
50 103 61 195 109 262 152 263 166 1 10 2 206 3 438 l1 421 -393 0 -393 1
-197 196 -196 196 -1 365 0 365 854 0 854 0 96 -57z"/>
</g>
</svg>
