<?xml version="1.0" standalone="no"?>
<!DOCTYPE svg PUBLIC "-//W3C//DTD SVG 20010904//EN"
 "http://www.w3.org/TR/2001/REC-SVG-20010904/DTD/svg10.dtd">
<svg version="1.0" xmlns="http://www.w3.org/2000/svg"
 width="260.000000pt" height="260.000000pt" viewBox="0 0 260.000000 260.000000"
 preserveAspectRatio="xMidYMid meet">
<metadata>
Created by potrace 1.11, written by Peter Selinger 2001-2013
</metadata>
<g transform="translate(0.000000,260.000000) scale(0.100000,-0.100000)"
fill="#000000" stroke="none">
<path d="M750 2245 l-545 -314 -1 -628 c-1 -390 2 -633 8 -640 6 -7 40 -29 76
-49 37 -21 180 -102 317 -182 138 -79 275 -158 305 -175 30 -16 60 -33 65 -37
6 -5 31 -20 57 -34 26 -14 96 -55 157 -90 l110 -65 158 91 c87 50 175 102 195
114 21 13 40 24 42 24 3 0 29 14 58 31 29 18 154 90 278 162 124 71 248 143
275 159 28 16 59 33 71 39 21 11 21 11 21 645 l0 634 -160 93 c-88 50 -177
101 -196 112 -55 31 -304 175 -326 188 -42 26 -92 55 -137 80 -26 15 -99 56
-161 92 -63 36 -116 65 -118 65 -2 0 -249 -142 -549 -315z m683 -166 c67 -39
170 -99 229 -133 59 -33 108 -64 108 -68 0 -4 -135 -6 -301 -6 -202 1 -303 -2
-307 -9 -4 -6 -6 -68 -6 -137 l2 -126 74 -73 74 -73 145 1 144 1 0 -163 0
-162 -143 -83 c-79 -46 -169 -98 -201 -116 -31 -18 -70 -40 -88 -49 l-32 -16
-115 66 c-63 37 -119 67 -123 67 -4 0 -28 -35 -53 -78 -24 -42 -56 -96 -70
-119 l-27 -42 -89 51 c-49 28 -91 52 -93 54 -3 3 -5 767 -2 840 1 20 75 70
196 134 17 8 73 41 125 72 285 168 406 237 418 238 7 0 67 -32 135 -71z"/>
</g>
</svg>
