<svg width="455" height="463" viewBox="0 0 455 463" fill="none" xmlns="http://www.w3.org/2000/svg">
    <g id="inner">
        <rect width="455" height="463" fill="none"/>
        <path d="M228 367L345 299.25V163.75H257.414H228.5V206.5H271.5H274.5H285H301V273L228.5 315L210.375 304.5L202 299.648L192.25 294L169.5 333.125L228 367Z" fill="#7D7D89"/>
        <path fill-rule="evenodd" clip-rule="evenodd" d="M228.5 163.75L205.5 140.75V183.5L228.5 206.5V163.75ZM301 273L228.5 315L210.375 304.5L202 299.648L274.5 257.648L301 273ZM140.25 316.188L169.5 333.125L192.25 294L163.5 277.345L140.25 316.188Z" fill="#595977"/>
        <path fill-rule="evenodd" clip-rule="evenodd" d="M274.5 206.5H285H301V273L274.5 257.648V206.5Z" fill="#414168"/>
        <path d="M257.414 163.75H345L305.28 140.75H205.5L228.5 163.75H257.414Z" fill="#414168"/>
    </g>
</svg>