<svg width="260" height="260" viewBox="0 0 260 260" fill="none" xmlns="http://www.w3.org/2000/svg">
<path d="M130 216.244L204.195 173.281V87.3537H148.653H130.317V114.463H157.585H159.488H166.146H176.293V156.634L130.317 183.268L118.823 176.61L113.512 173.533L107.329 169.951L92.9025 194.762L130 216.244Z" fill="#7D7D89"/>
<path fill-rule="evenodd" clip-rule="evenodd" d="M130.317 87.3537L115.732 72.7683V99.8781L130.317 114.463V87.3537ZM176.293 156.634L130.317 183.268L118.823 176.61L113.512 173.533L159.488 146.899L176.293 156.634ZM74.3537 184.021L92.9025 194.762L107.329 169.951L89.0976 159.389L74.3537 184.021Z" fill="#595977"/>
<path fill-rule="evenodd" clip-rule="evenodd" d="M159.488 114.463H166.146H176.293V156.634L159.488 146.899V114.463Z" fill="#414168"/>
<path d="M148.653 87.3537H204.195L179.007 72.7683H115.732L130.317 87.3537H148.653Z" fill="#414168"/>
<path fill-rule="evenodd" clip-rule="evenodd" d="M55.8049 173.28L20.2927 193.573L130 256.829V216.244L55.8049 173.28Z" fill="#7ACDA0"/>
<path d="M239.707 193.573V67.061L204.195 87.3537V173.28L239.707 193.573Z" fill="#7ACDA0"/>
<path d="M20.2927 67.061V193.573L55.8049 173.28V87.3537L20.2927 67.061Z" fill="#B0E5B3"/>
<path d="M239.707 67.061L130 3.80487V44.3902L204.195 87.3537L239.707 67.061Z" fill="#B0E5B3"/>
<path d="M130 3.80487L20.2927 67.061L55.8049 87.3537L130 44.3902V3.80487Z" fill="#E0EFBD"/>
<path d="M130 256.829L239.707 193.573L204.195 173.28L130 216.244V256.829Z" fill="#6CB5AE"/>
</svg>
