<svg width="125" height="125" viewBox="0 0 125 125" fill="none" xmlns="http://www.w3.org/2000/svg">
<path d="M62.3693 120.578C94.4386 120.578 120.436 94.5802 120.436 62.5109C120.436 30.4416 94.4386 4.44424 62.3693 4.44424C30.3 4.44424 4.30264 30.4416 4.30264 62.5109C4.30264 94.5802 30.3 120.578 62.3693 120.578Z" fill="white"/>
<path d="M93.7024 44.4207C92.4388 44.4207 87.1667 44.4207 86.6221 44.5079V88.9586C87.1667 89.0457 92.5314 89.0457 93.1577 89.0457C98.9282 89.0457 101.635 82.2813 101.635 64.9754C101.635 48.7234 98.2093 44.4207 93.7024 44.4207Z" fill="#C75B12"/>
<path d="M62.5 0C28.038 0 0 28.0489 0 62.5C0 96.9511 28.038 125 62.5 125C96.962 125 125 96.962 125 62.5C125 28.038 96.962 0 62.5 0ZM52.3697 37.8251C50.567 37.8251 49.3933 38.9689 49.3933 40.7253V93.0815C49.3933 94.6636 50.5642 95.8918 52.3697 95.8918V97.5611C50.0251 97.8334 40.3033 98.9717 32.8199 98.9717C24.3426 98.9717 18.8445 94.5792 15.868 90.9764C16.4127 89.4841 16.4998 88.2532 16.4998 85.8813V41.0821C16.4998 37.7707 18.2971 36.0741 18.2971 36.0741H30.3854V37.7435C28.6725 37.7435 27.4089 38.8872 27.4089 41.0821V84.8302C27.4089 88.6073 30.0232 90.0043 32.8199 90.0043C35.7964 90.0043 38.3208 88.3349 38.3208 84.8302V41.0821C38.3208 37.5419 39.5625 36.1123 39.5625 36.1123C45.2458 36.1123 52.3616 36.0714 52.3616 36.0714L52.3697 37.8251ZM53.6632 108.489L54.0227 107.011C55.7465 107.011 57.2252 105.861 57.2252 102.988V29.6665H30.2656C27.4743 29.6665 25.9085 30.8156 25.2576 32.4577L23.4521 31.9648L26.08 20.7181C26.7363 20.9659 28.215 21.1293 30.4371 21.1293H95.2736C96.5045 21.1293 98.2283 20.9659 98.8846 20.7181L101.512 31.9648L99.707 32.4577C98.8029 30.6523 97.6537 29.6665 94.7807 29.6665H67.7312V102.988C67.7312 105.943 69.0438 107.011 70.852 107.011L71.2115 108.489H53.6632ZM91.8097 98.0104C84.3264 98.0104 74.9886 97.7381 72.6439 97.4821V95.8128C74.4466 95.8128 75.6203 94.5819 75.6203 93.0025V40.6409C75.6203 38.8845 74.4494 37.7407 72.6439 37.7407V35.9843C75.5305 35.712 85.1352 35.3688 91.6273 35.3688C105.516 35.3688 112.999 42.7487 112.999 64.9754C112.996 87.7304 106.776 98.0077 91.807 98.0077L91.8097 98.0104Z" fill="#C75B12"/>
</svg>
