<svg width="457" height="438" viewBox="0 0 457 438" fill="none" xmlns="http://www.w3.org/2000/svg">
<path d="M195.24 270.389H277.19L301.174 285.946H191.629L148.014 423.641L142.458 437.994C88.1024 416.881 37.8209 368.082 16.8008 313.263C-5.79112 257.619 -5.5915 195.322 17.3564 139.824C38.8395 85.005 90.6026 35.4643 145.699 15.0924C189.036 -2.87188 247.003 -4.81647 292.932 9.35125C347.977 25.7932 394.86 62.2688 424.331 111.581C456.741 165.752 465.723 234.461 446.092 296.224C432.991 338.791 407.488 376.482 372.846 404.473L366.827 395.121L312.286 303.632L396.551 350.58C397.014 350.58 397.292 350.117 397.014 349.654L286.636 254.369L429.424 276.13C429.887 276.13 430.072 275.945 430.072 275.667L429.146 274.926L294.599 227.793L434.424 193.995C434.887 193.995 434.887 193.532 434.702 193.254L291.266 202.606L393.958 125.286L403.589 117.6C403.774 117.137 402.848 116.859 402.57 117.322L296.081 171.4L276.45 181.216L346.084 58.429C346.084 58.1512 346.085 57.6882 345.622 57.966L254.689 164.733L272.097 24.445C272.097 24.1672 271.634 23.8894 271.171 24.1672L229.224 160.474L217.556 118.248L192.647 20.0928C192.369 19.815 191.906 19.6298 191.721 20.0928L192.369 32.0381L201.722 165.659L115.234 53.1508C115.049 52.9656 114.771 53.1508 114.586 53.336L179.961 177.882L56.2482 110.377C56.063 110.377 55.6 110.655 55.6 110.84L154.218 191.772L165.516 201.125L25.1348 186.309C24.6718 186.494 24.6718 186.957 25.1348 187.235L161.163 227.053L25.8756 266.685C25.776 266.836 25.7229 267.013 25.7229 267.194C25.7229 267.375 25.776 267.553 25.8756 267.704L165.516 251.406L55.8778 344.561C55.6926 344.561 55.4148 345.024 55.8778 345.302L57.3593 344.839L145.236 298.817L165.793 266.037H189.221L172.923 254.555L227.279 167.419L195.24 270.389Z" fill="#568200"/>
</svg>
