<svg width="366" height="373" viewBox="0 0 366 373" fill="none" xmlns="http://www.w3.org/2000/svg">
<path d="M125.9 10.2C80.6 25.7 42 59.6 20.5 102.5C13 117.3 7.60001 133 4.30001 149.3C-3.89999 189.7 1.80001 232.8 20.4 269.6C32.5 293.6 49.9 315 70.9 331.7C90.8 347.5 113.9 359.3 138.5 365.8C169.5 374.1 202.5 373.9 233.7 366.8C261.9 360.3 288.6 346.8 309.9 327.2C332.4 306.5 348.5 279.3 357 250C366.3 218.1 367.5 184 361.7 151.2C303.4 151.2 245 151.2 186.7 151.2C186.7 175.4 186.7 199.6 186.7 223.8C220.5 223.8 254.3 223.8 288.1 223.8C284.2 247 270.4 268.2 250.9 281.3C238.6 289.6 224.5 294.9 209.9 297.5C195.3 300 180.1 300.3 165.5 297.4C150.6 294.4 136.5 288.2 124.1 279.5C104.3 265.6 89.2 245.3 81.5 222.4C73.6 199.1 73.5 173.2 81.5 150C87.1 133.6 96.3 118.5 108.5 106.1C123.5 90.7 143 79.7 164.1 75.2C182.1 71.4 201.1 72.1 218.7 77.4C233.7 81.9 247.5 90.2 258.8 101C270.2 89.6 281.6 78.2 293 66.8C299 60.7 305.3 54.8 311.1 48.5C293.8 32.5 273.4 19.6 251.2 11.4C211.2 -3.4 166.2 -3.7 125.9 10.2Z" fill="white"/>
<path d="M125.9 10.2C166.1 -3.69999 211.2 -3.39999 251.2 11.3C273.4 19.5 293.7 32.3 311.1 48.4C305.3 54.7 299 60.6 293 66.7C281.6 78.1 270.2 89.5 258.8 100.9C247.5 90.1 233.7 81.9 218.7 77.3C201.1 72 182.1 71.2 164.1 75.1C143.1 79.6 123.6 90.6 108.5 106C96.3 118.3 87.1 133.5 81.5 149.9C61.2 134.1 40.9 118.4 20.5 102.6C42 59.6 80.6 25.7 125.9 10.2Z" fill="#EA4335"/>
<path d="M4.40001 149.2C7.70001 133 13.1 117.2 20.6 102.4C40.9 118.2 61.2 133.9 81.6 149.7C73.6 173 73.6 198.9 81.6 222.1C61.3 237.9 41 253.7 20.7 269.4C1.90001 232.7 -3.79999 189.6 4.40001 149.2Z" fill="#FBBC05"/>
<path d="M186.7 151.1C245 151.1 303.4 151.1 361.7 151.1C367.5 183.8 366.2 217.9 357 249.9C348.5 279.2 332.4 306.4 309.9 327.1C290.2 311.8 270.5 296.5 250.8 281.2C270.3 268.1 284.1 246.9 288 223.7C254.2 223.7 220.4 223.7 186.6 223.7C186.7 199.5 186.7 175.3 186.7 151.1Z" fill="#4285F4"/>
<path d="M20.5 269.5C40.8 253.8 61.1 238 81.4 222.2C89.2 245.1 104.2 265.4 124 279.3C136.4 288 150.6 294.2 165.4 297.2C180 300.2 195.1 299.8 209.8 297.3C224.4 294.7 238.5 289.4 250.8 281.1C270.5 296.4 290.2 311.7 309.9 327C288.6 346.7 261.9 360.1 233.7 366.6C202.5 373.7 169.5 373.9 138.5 365.6C113.9 359.1 90.8 347.4 70.9 331.5C50 314.9 32.6 293.5 20.5 269.5Z" fill="#34A853"/>
</svg>
