<svg width="137" height="73" viewBox="0 0 137 73" fill="none" xmlns="http://www.w3.org/2000/svg">
<path d="M68.1956 27.0955C67.2822 28.6178 62.1067 36.2289 58.1489 42.3178L81.5911 38.9689L83.4178 38.6644C87.68 38.0555 89.2022 34.0978 89.5067 33.1844C94.3778 22.5289 99.2489 21.92 108.382 20.0933C127.867 15.8311 137 0.304444 137 0C126.04 1.82667 109.904 4.56667 109.904 4.56667C80.0689 10.0467 73.3711 18.5711 68.1956 27.0955Z" fill="#3D3834"/>
<path d="M75.5022 61.1933C75.5022 61.1933 101.38 58.1489 110.818 55.1044C126.953 49.6244 132.433 37.4467 132.433 37.4467C132.433 37.4467 107.773 40.1867 96.8133 45.0578C94.6822 45.9711 87.68 47.4933 75.5022 61.1933Z" fill="#3D3834"/>
<path d="M60.5844 63.02C76.1111 55.7133 80.0689 46.2756 80.0689 46.2756C80.0689 46.2756 76.1111 46.58 70.6311 47.4933L51.1467 50.2333C49.32 52.6689 45.9711 56.6267 45.0578 57.54C42.6222 60.28 41.1 60.28 35.0111 60.8889C33.4889 60.8889 32.88 59.9756 33.7933 58.1489L40.1867 48.4067C40.7955 47.1889 41.7089 45.9711 42.0133 45.3622L63.3244 12.7867C42.6222 17.3533 29.2267 26.7911 23.4422 35.62L0 72.7622L56.0178 64.8467C57.54 64.2378 59.3667 63.6289 60.5844 63.02Z" fill="#3D3834"/>
</svg>
