<svg width="125" height="67" viewBox="0 0 125 67" fill="none" xmlns="http://www.w3.org/2000/svg">
<path d="M62.2222 24.7222C61.3889 26.1111 56.6667 33.0556 53.0555 38.6111L74.4444 35.5556L76.1111 35.2778C80 34.7222 81.3889 31.1111 81.6667 30.2778C86.1111 20.5556 90.5556 20 98.8889 18.3333C116.667 14.4445 125 0.277778 125 0C115 1.66667 100.278 4.16667 100.278 4.16667C73.0555 9.16667 66.9444 16.9445 62.2222 24.7222Z M68.8889 55.8333C68.8889 55.8333 92.5 53.0556 101.111 50.2778C115.833 45.2778 120.833 34.1667 120.833 34.1667C120.833 34.1667 98.3334 36.6667 88.3334 41.1111C86.3889 41.9444 80 43.3333 68.8889 55.8333Z M55.2778 57.5001C69.4445 50.8334 73.0556 42.2223 73.0556 42.2223C73.0556 42.2223 69.4445 42.5001 64.4445 43.3334L46.6667 45.8334C45 48.0556 41.9445 51.6667 41.1111 52.5001C38.8889 55.0001 37.5 55.0001 31.9445 55.5556C30.5556 55.5556 30 54.7223 30.8334 53.0556L36.6667 44.1667C37.2222 43.0556 38.0556 41.9445 38.3334 41.389L57.7778 11.6667C38.8889 15.8334 26.6667 24.4445 21.3889 32.5001L0 66.389L51.1111 59.1667C52.5 58.6112 54.1667 58.0556 55.2778 57.5001Z" fill="#AA1F23"/>
</svg>
