<svg width="333" height="333" viewBox="0 0 333 333" fill="none" xmlns="http://www.w3.org/2000/svg">
<path fill-rule="evenodd" clip-rule="evenodd" d="M333 166.5C333 206.883 318.624 243.908 294.709 272.736C282.629 231.265 250.896 198.166 210.266 184.196C218.217 174.658 223 162.388 223 149C223 118.624 198.376 94 168 94C137.624 94 113 118.624 113 149C113 162.142 117.609 174.208 125.3 183.668C83.6284 197.416 51.0693 231.206 39.0349 273.627C14.6751 244.672 0 207.3 0 166.5C0 74.5446 74.5446 0 166.5 0C258.455 0 333 74.5446 333 166.5ZM155.288 72.1682C158.197 72.1682 160.555 74.5262 160.555 77.4349C160.555 80.3436 158.197 82.7015 155.288 82.7015C127.29 82.7015 104.636 104.906 104.636 132.244C104.636 135.153 102.278 137.511 99.369 137.511C96.4603 137.511 94.1023 135.153 94.1023 132.244C94.1023 99.0407 121.52 72.1682 155.288 72.1682ZM152.725 47.8571C152.725 44.9484 150.367 42.5905 147.458 42.5905C100.946 42.5905 63.1951 79.5952 63.1951 125.292C63.1951 128.2 65.553 130.558 68.4617 130.558C71.3704 130.558 73.7284 128.2 73.7284 125.292C73.7284 85.4602 106.717 53.1238 147.458 53.1238C150.367 53.1238 152.725 50.7658 152.725 47.8571ZM89.7174 225.486V314.277C112.692 326.239 138.806 333 166.5 333C194.886 333 221.613 325.897 245 313.37V225.178C244.801 222.502 242.026 220.743 239.49 221.786L167.364 251.456L95.2391 221.786C92.6066 220.703 89.7174 222.639 89.7174 225.486Z" fill="#0ACDAF"/>
</svg>
